<svg width="80" height="16" viewBox="0 0 80 16" fill="none" xmlns="http://www.w3.org/2000/svg">
<g clip-path="url(#clip0_19_276)">
<path d="M8.99231 4.034H7.01001V11.965H8.99231V4.034Z" fill="#1B1F22"/>
<path d="M8.00114 14C6.3969 14 4.89668 13.377 3.75751 12.243C2.62334 11.109 2.00024 9.604 2.00024 8C2.00024 6.396 2.62534 4.891 3.75751 3.757C4.89068 2.625 6.3969 2 8.00114 2C9.60538 2 11.1116 2.625 12.2448 3.757C13.377 4.891 14.002 6.396 14.002 8C14.002 9.604 13.3769 11.109 12.2438 12.243C11.1086 13.377 9.60438 14 8.00114 14ZM8.00114 2.786C5.12571 2.786 2.78536 5.126 2.78536 8C2.78536 10.875 5.12471 13.215 8.00014 13.215C10.8766 13.215 13.2159 10.875 13.2159 8C13.2179 5.125 10.8776 2.786 8.00114 2.786Z" fill="#1B1F22"/>
<path d="M24.9947 4.034H23.0125V11.965H24.9947V4.034Z" fill="#1B1F22"/>
<path d="M24.0036 14C22.3993 14 20.8991 13.377 19.7599 12.243C18.6278 11.109 18.0027 9.604 18.0027 8C18.0027 6.396 18.6278 4.891 19.7599 3.757C20.8931 2.625 22.3993 2 24.0036 2C25.6078 2 27.1141 2.625 28.2472 3.757C29.3794 4.891 30.0045 6.396 30.0045 8C30.0045 9.604 29.3794 11.109 28.2462 12.243C27.1111 13.377 25.6068 14 24.0036 14ZM24.0036 2.786C21.1282 2.786 18.7878 5.126 18.7878 8C18.7878 10.875 21.1272 13.215 24.0026 13.215C26.879 13.215 29.2184 10.875 29.2184 8C29.2204 5.125 26.88 2.786 24.0036 2.786Z" fill="#1B1F22"/>
<path d="M40.9982 4.034H39.0149V11.965H40.9982V4.034Z" fill="#878586"/>
<path d="M40.006 14C38.4018 14 36.9016 13.377 35.7624 12.243C34.6302 11.109 34.0051 9.604 34.0051 8C34.0051 6.396 34.6302 4.891 35.7624 3.757C36.8956 2.625 38.4018 2 40.006 2C41.6103 2 43.1155 2.625 44.2497 3.757C45.3828 4.891 46.0069 6.396 46.0069 8C46.0069 9.604 45.3828 11.109 44.2487 12.243C43.1135 13.377 41.6093 14 40.006 14ZM40.006 2.786C37.1306 2.786 34.7902 5.126 34.7902 8C34.7902 10.875 37.1296 13.215 40.005 13.215C42.8805 13.215 45.2208 10.875 45.2208 8C45.2228 5.125 42.8815 2.786 40.006 2.786Z" fill="#878586"/>
<path d="M57.0007 4.034H55.0164V11.965H57.0007V4.034Z" fill="#1B1F22"/>
<path d="M56.0085 14C54.4042 14 52.904 13.377 51.7648 12.243C50.6317 11.109 50.0076 9.604 50.0076 8C50.0076 6.396 50.6317 4.891 51.7648 3.757C52.899 2.625 54.4042 2 56.0085 2C57.6127 2 59.1179 2.625 60.2521 3.757C61.3853 4.891 62.0094 6.396 62.0094 8C62.0094 9.604 61.3853 11.109 60.2511 12.243C59.1159 13.377 57.6117 14 56.0085 14ZM56.0085 2.786C53.134 2.786 50.7927 5.126 50.7927 8C50.7927 10.875 53.133 13.215 56.0075 13.215C58.8829 13.215 61.2233 10.875 61.2233 8C61.2253 5.125 58.8839 2.786 56.0085 2.786Z" fill="#1B1F22"/>
<path d="M72.991 4.034H71.0067V11.965H72.991V4.034Z" fill="#1B1F22"/>
<path d="M71.9988 14C70.3946 14 68.8904 13.377 67.7552 12.243C66.621 11.109 65.9979 9.603 65.9979 8C65.9979 6.397 66.621 4.891 67.7552 3.757C68.8904 2.625 70.3956 2 71.9988 2C73.6021 2 75.1083 2.625 76.2425 3.757C77.3736 4.891 77.9997 6.397 77.9997 8C77.9997 9.604 77.3746 11.109 76.2415 12.243C75.1063 13.377 73.6031 14 71.9988 14ZM71.9988 2.786C69.1234 2.786 66.783 5.126 66.783 8C66.783 10.875 69.1224 13.215 71.9978 13.215C74.8723 13.215 77.2126 10.875 77.2126 8C77.2146 5.125 74.8753 2.786 71.9988 2.786Z" fill="#1B1F22"/>
</g>
<defs>
<clipPath id="clip0_19_276">
<rect width="80" height="16" fill="white"/>
</clipPath>
</defs>
</svg>
