<svg width="360" height="45" viewBox="0 0 360 45" fill="none" xmlns="http://www.w3.org/2000/svg">
<rect x="47" y="5" width="25" height="5" rx="2" fill="#878586"/>
<rect x="137" y="5" width="25" height="5" rx="2.5" fill="#878586"/>
<rect x="227" y="5" width="25" height="5" rx="2.5" fill="#878586"/>
<path d="M13 19.5L16 17L16 22L13 19.5Z" fill="#878586"/>
<path d="M23 19.5L26 17L26 22L23 19.5Z" fill="#878586"/>
<path d="M18 39.5L15 42L15 37L18 39.5Z" fill="#878586"/>
<path d="M3 19.5L6 17L6 22L3 19.5Z" fill="#878586"/>
<path d="M8 39.5L5 42L5 37L8 39.5Z" fill="#878586"/>
<path d="M28 39.5L25 42L25 37L28 39.5Z" fill="#878586"/>
</svg>
