<svg width="80" height="16" viewBox="0 0 80 16" fill="none" xmlns="http://www.w3.org/2000/svg">
<g clip-path="url(#clip0_16_128)">
<path d="M8.84936 7.946L11.3817 10.629V8.449L7.99323 4.854L4.62073 8.432V10.613L7.13911 7.946V14H8.84936V7.946Z" fill="#1B1F22"/>
<path d="M11.1527 3.669C11.2767 3.669 11.3777 3.569 11.3777 3.446V2.223C11.3777 2.1 11.2767 2 11.1527 2H4.84874C4.72672 2 4.62671 2.1 4.62671 2.223V3.446C4.62671 3.569 4.73072 3.669 4.85574 3.669H11.1527Z" fill="#1B1F22"/>
<path d="M24.8517 7.946L27.384 10.629V8.449L23.9945 4.854L20.624 8.432V10.613L23.1414 7.946V14H24.8517V7.946Z" fill="#1B1F22"/>
<path d="M27.155 3.669C27.2791 3.669 27.3801 3.569 27.3801 3.446V2.223C27.3801 2.1 27.2791 2 27.155 2H20.8511C20.7281 2 20.6221 2.1 20.6221 2.223V3.446C20.6221 3.569 20.7261 3.669 20.8511 3.669H27.155Z" fill="#1B1F22"/>
<path d="M40.8531 7.946L43.3855 10.629V8.449L39.997 4.854L36.6265 8.432V10.613L39.1438 7.946V14H40.8531V7.946Z" fill="#878586"/>
<path d="M43.1575 3.669C43.2805 3.669 43.3825 3.569 43.3825 3.446V2.223C43.3825 2.1 43.2805 2 43.1575 2H36.8535C36.7305 2 36.6245 2.1 36.6245 2.223V3.446C36.6245 3.569 36.7285 3.669 36.8535 3.669H43.1575Z" fill="#878586"/>
<path d="M56.8556 7.946L59.388 10.629V8.449L55.9995 4.854L52.63 8.432V10.613L55.1454 7.946V14H56.8556V7.946Z" fill="#1B1F22"/>
<path d="M59.1599 3.669C59.283 3.669 59.385 3.569 59.385 3.446V2.223C59.385 2.1 59.283 2 59.1599 2H52.856C52.734 2 52.627 2.1 52.627 2.223V3.446C52.627 3.569 52.731 3.669 52.856 3.669H59.1599Z" fill="#1B1F22"/>
<path d="M72.858 7.946L75.3903 10.629V8.449L72.0018 4.854L68.6323 8.432V10.613L71.1477 7.946V14H72.858V7.946Z" fill="#1B1F22"/>
<path d="M75.1623 3.669C75.2853 3.669 75.3873 3.569 75.3873 3.446V2.223C75.3873 2.1 75.2853 2 75.1623 2H68.8583C68.7363 2 68.6293 2.1 68.6293 2.223V3.446C68.6293 3.569 68.7333 3.669 68.8583 3.669H75.1623Z" fill="#1B1F22"/>
</g>
<defs>
<clipPath id="clip0_16_128">
<rect width="80" height="16" fill="white"/>
</clipPath>
</defs>
</svg>
