<svg width="80" height="16" viewBox="0 0 80 16" fill="none" xmlns="http://www.w3.org/2000/svg">
<g clip-path="url(#clip0_19_251)">
<path d="M3.25615 2.749H9.98615V3.824H10.7333V2.749C10.7333 2.338 10.3982 2 9.98615 2H3.25615C2.84408 2 2.50903 2.335 2.50903 2.749V10.975C2.50903 11.387 2.85208 11.723 3.25615 11.723H4.81038V10.975H3.25615V2.749Z" fill="#1B1F22"/>
<path d="M12.7421 4.28H10.7328H9.98571H9.2306H6.01112C5.82309 4.28 5.65807 4.344 5.53205 4.451C5.51204 4.467 5.49304 4.484 5.47504 4.501C5.35002 4.628 5.27001 4.801 5.26001 4.992C5.26001 5.002 5.255 5.015 5.255 5.027V6.112V6.859V7.607V8.356V9.104V9.852V10.975V11.723V13.25C5.255 13.389 5.28701 13.516 5.35902 13.624C5.49604 13.85 5.73608 14 6.01112 14H12.7411C12.7671 14 12.7921 13.999 12.8171 13.997C13.1932 13.957 13.4902 13.639 13.4902 13.252V5.028C13.4902 4.615 13.1552 4.28 12.7421 4.28ZM6.01112 11.723V10.975V9.854V9.104V8.357V7.609V6.861V6.114V5.028H9.98671H10.7348H12.7441V13.252H6.01112V11.723Z" fill="#1B1F22"/>
<path d="M9.98601 8.267H6.76001V9.217V9.268H8.55301H9.98601H10.733H12.055V8.267H10.733H9.98601Z" fill="#1B1F22"/>
<path d="M7.18311 11.256V11.711V12.256H11.7331V11.256H11.0361H7.18311Z" fill="#1B1F22"/>
<path d="M7.13502 7.20899H9.98902H10.734H11.612C11.82 7.20899 11.988 7.05999 11.988 6.87599V6.54299C11.988 6.35999 11.822 6.20999 11.612 6.20999H10.734H9.98602H9.30002H7.13502C6.93802 6.20999 6.76902 6.35999 6.76902 6.54299V6.84499V6.87599C6.76002 7.06099 6.92802 7.20899 7.13502 7.20899Z" fill="#1B1F22"/>
<path d="M19.2588 2.749H25.9888V3.824H26.736V2.749C26.736 2.338 26.4009 2 25.9888 2H19.2588C18.8548 2 18.5117 2.335 18.5117 2.749V10.975C18.5117 11.387 18.8548 11.723 19.2588 11.723H20.8191V10.975H19.2588V2.749Z" fill="#1B1F22"/>
<path d="M28.7448 4.28H26.7355H25.9884H25.2333H22.0128C21.8298 4.28 21.6638 4.344 21.5338 4.451C21.5168 4.467 21.4958 4.484 21.4778 4.501C21.3527 4.628 21.2717 4.801 21.2617 4.992C21.2617 5.002 21.2617 5.015 21.2617 5.027V6.112V6.859V7.607V8.356V9.104V9.852V10.975V11.723V13.25C21.2617 13.389 21.2887 13.516 21.3627 13.624C21.4988 13.85 21.7388 14 22.0138 14H28.7438C28.7698 14 28.7948 13.999 28.8198 13.997C29.1959 13.957 29.493 13.639 29.493 13.252V5.028C29.493 4.615 29.1579 4.28 28.7448 4.28ZM22.0138 11.723V10.975V9.854V9.104V8.357V7.609V6.861V6.114V5.028H25.9894H26.7375H28.7468V13.252H22.0168V11.723H22.0138Z" fill="#1B1F22"/>
<path d="M25.9877 8.267H22.7617V9.217V9.268H24.5547H25.9877H26.7347H28.0567V8.267H26.7347H25.9877Z" fill="#1B1F22"/>
<path d="M23.1348 11.256V11.711V12.256H27.6838V11.256H26.9868H23.1348Z" fill="#1B1F22"/>
<path d="M23.1358 7.20899H25.9898H26.7348H27.6128C27.8208 7.20899 27.9888 7.05999 27.9888 6.87599V6.54299C27.9888 6.35999 27.8228 6.20999 27.6128 6.20999H26.7348H25.9878H25.2998H23.1338C22.9378 6.20999 22.7598 6.35999 22.7598 6.54299V6.84499V6.87599C22.7618 7.06099 22.9298 7.20899 23.1358 7.20899Z" fill="#1B1F22"/>
<path d="M35.2613 2.749H41.9913V3.824H42.7394V2.749C42.7384 2.338 42.4044 2 41.9903 2H35.2603C34.8482 2 34.5132 2.335 34.5132 2.749V10.975C34.5132 11.387 34.8482 11.723 35.2603 11.723H36.8205V10.975H35.2603L35.2613 2.749Z" fill="#878586"/>
<path d="M44.7483 4.28H42.738H41.9899H41.2358H38.0153C37.8372 4.28 37.6712 4.344 37.5412 4.451C37.5242 4.467 37.5032 4.484 37.4852 4.501C37.3602 4.628 37.2792 4.801 37.2692 4.992C37.2692 5.002 37.2692 5.015 37.2692 5.027V6.112V6.859V7.607V8.356V9.104V9.852V10.975V11.723V13.25C37.2692 13.389 37.2962 13.516 37.3702 13.624C37.5012 13.85 37.7412 14 38.0163 14H44.7463C44.7713 14 44.7963 13.999 44.8213 13.997C45.1974 13.957 45.4954 13.639 45.4954 13.252V5.028C45.4944 4.615 45.1603 4.28 44.7483 4.28ZM38.0163 11.723V10.975V9.854V9.104V8.357V7.609V6.861V6.114V5.028H41.9929H42.739H44.7493V13.252H38.0193V11.723H38.0163Z" fill="#878586"/>
<path d="M41.9892 8.267H38.7642V9.217V9.268H40.5572H41.9892H42.7372H44.0592V8.267H42.7372H41.9892Z" fill="#878586"/>
<path d="M39.4512 11.287V11.742V12.287H44.0002V11.287H43.3042H39.4512Z" fill="#878586"/>
<path d="M39.1382 7.20899H41.9932H42.7372H43.6152C43.8232 7.20899 43.9912 7.05999 43.9912 6.87599V6.54299C43.9912 6.35999 43.8252 6.20999 43.6152 6.20999H42.7372H41.9892H41.3012H39.1352C38.9392 6.20999 38.7612 6.35999 38.7612 6.54299V6.84499V6.87599C38.7642 7.06099 38.9322 7.20899 39.1382 7.20899Z" fill="#878586"/>
<path d="M51.2638 2.749H57.9938V3.824H58.7419V2.749C58.7409 2.338 58.4068 2 57.9928 2H51.2628C50.8567 2 50.5146 2.335 50.5146 2.749V10.975C50.5146 11.387 50.8507 11.723 51.2628 11.723H52.824V10.975H51.2628L51.2638 2.749Z" fill="#1B1F22"/>
<path d="M60.7507 4.28H58.7404H57.9923H57.2382H54.0177C53.8387 4.28 53.6727 4.344 53.5426 4.451C53.5246 4.467 53.5056 4.484 53.4866 4.501C53.3606 4.628 53.2796 4.801 53.2716 4.992C53.2716 5.002 53.2716 5.015 53.2716 5.027V6.112V6.859V7.607V8.356V9.104V9.852V10.975V11.723V13.25C53.2716 13.389 53.2986 13.516 53.3716 13.624C53.5026 13.85 53.7437 14 54.0177 14H60.7487C60.7737 14 60.7987 13.999 60.8237 13.997C61.1998 13.957 61.4978 13.639 61.4978 13.252V5.028C61.4968 4.615 61.1628 4.28 60.7507 4.28ZM54.0177 11.723V10.975V9.854V9.104V8.357V7.609V6.861V6.114V5.028H57.9973H58.7434H60.7537V13.252H54.0237V11.723H54.0177Z" fill="#1B1F22"/>
<path d="M57.9916 8.267H54.7666V9.217V9.268H56.5596H57.9916H58.7396H60.0616V8.267H58.7396H57.9916Z" fill="#1B1F22"/>
<path d="M55.1096 11.287V11.742V12.287H59.6586V11.287H58.9626H55.1096Z" fill="#1B1F22"/>
<path d="M55.1407 7.20899H57.9957H58.7397H59.6177C59.8257 7.20899 59.9937 7.05999 59.9937 6.87599V6.54299C59.9937 6.35999 59.8277 6.20999 59.6177 6.20999H58.7397H57.9917H57.3037H55.1377C54.9427 6.20999 54.7637 6.35999 54.7637 6.54299V6.84499V6.87599C54.7667 7.06099 54.9337 7.20899 55.1407 7.20899Z" fill="#1B1F22"/>
<path d="M67.2661 2.749H73.9961V3.824H74.7442V2.749C74.7432 2.338 74.4092 2 73.9951 2H67.2651C66.859 2 66.517 2.335 66.517 2.749V10.975C66.517 11.387 66.859 11.723 67.2651 11.723H68.8263V10.975H67.2651L67.2661 2.749Z" fill="#1B1F22"/>
<path d="M76.7531 4.28H74.7428H73.9947H73.2406H70.0201C69.8351 4.28 69.6691 4.344 69.5411 4.451C69.5231 4.467 69.5041 4.484 69.485 4.501C69.359 4.628 69.278 4.801 69.27 4.992C69.27 5.002 69.27 5.015 69.27 5.027V6.112V6.859V7.607V8.356V9.104V9.852V10.975V11.723V13.25C69.27 13.389 69.297 13.516 69.37 13.624C69.5051 13.85 69.7461 14 70.0201 14H76.7501C76.7751 14 76.8002 13.999 76.8252 13.997C77.2012 13.957 77.4993 13.639 77.4993 13.252V5.028C77.4993 4.615 77.1652 4.28 76.7531 4.28ZM70.0201 11.723V10.975V9.854V9.104V8.357V7.609V6.861V6.114V5.028H73.9987H74.7448H76.7551V13.252H70.0251V11.723H70.0201Z" fill="#1B1F22"/>
<path d="M73.9939 8.267H70.7689V9.217V9.268H72.5619H73.9939H74.7419H76.0639V8.267H74.7419H73.9939Z" fill="#1B1F22"/>
<path d="M71.142 11.256V11.711V12.256H75.69V11.256H74.994H71.142Z" fill="#1B1F22"/>
<path d="M71.143 7.20899H73.998H74.742H75.62C75.828 7.20899 75.996 7.05999 75.996 6.87599V6.54299C75.996 6.35999 75.83 6.20999 75.62 6.20999H74.742H73.994H73.306H71.14C70.945 6.20999 70.766 6.35999 70.766 6.54299V6.84499V6.87599C70.769 7.06099 70.936 7.20899 71.143 7.20899Z" fill="#1B1F22"/>
</g>
<defs>
<clipPath id="clip0_19_251">
<rect width="80" height="16" fill="white"/>
</clipPath>
</defs>
</svg>
