<svg width="80" height="16" viewBox="0 0 80 16" fill="none" xmlns="http://www.w3.org/2000/svg">
<path d="M9.0001 6.99903H6.0001V4.00003H4.0001V6.99903H1.0011V8.99903H4.0001V11.998H6.0001V8.99903H9.0001V6.99903Z" fill="black" fill-opacity="0.6"/>
<path d="M25.0001 6.99903H22.0001V4.00003H20.0001V6.99903H17.0011V8.99903H20.0001V11.998H22.0001V8.99903H25.0001V6.99903Z" fill="black" fill-opacity="0.6"/>
<path opacity="0.25" d="M40.9951 6.99903H37.9951V4.00003H35.9951V6.99903H32.9961V8.99903H35.9951V11.998H37.9951V8.99903H40.9951V6.99903Z" fill="black" fill-opacity="0.6"/>
<path d="M56.9991 6.99903H54.0011V4.00003H52.0001V6.99903H49.0011V8.99903H52.0001V11.998H54.0011V8.99903H56.9991V6.99903Z" fill="black" fill-opacity="0.6"/>
<path opacity="0.75" d="M72.9991 6.99903H70.0011V4.00003H68.0001V6.99903H65.0011V8.99903H68.0001V11.998H70.0011V8.99903H72.9991V6.99903Z" fill="black" fill-opacity="0.6"/>
</svg>
