<svg width="80" height="16" viewBox="0 0 80 16" fill="none" xmlns="http://www.w3.org/2000/svg">
<g clip-path="url(#clip0_19_283)">
<path d="M13.002 7.544L12.6149 5.919L11.1947 6.071C11.0487 5.828 10.8817 5.608 10.6966 5.41L11.2217 4.134L9.80151 3.258L8.91438 4.361C8.60633 4.28 8.29028 4.24 7.97023 4.238L7.41415 3L5.79891 3.433L5.98794 4.804C5.7659 4.942 5.56187 5.099 5.37884 5.271L4.15266 4.767L3.27553 6.19L4.33069 7.043C4.25468 7.334 4.20967 7.635 4.20267 7.938L3.00049 8.438L3.39655 10.066L4.73075 9.92C4.87777 10.19 5.0678 10.434 5.27783 10.649L4.78176 11.85L6.20297 12.725L7.0571 11.666C7.34714 11.738 7.64118 11.777 7.94223 11.781L8.4463 13L10.0715 12.611L9.92653 11.23C10.1776 11.077 10.4076 10.9 10.6146 10.704L11.8588 11.217L12.7339 9.793L11.6298 8.902C11.6958 8.631 11.7338 8.354 11.7368 8.069L13.002 7.544ZM9.0674 10.07C7.92123 10.658 6.51402 10.207 5.92093 9.057C5.33884 7.908 5.79091 6.5 6.93908 5.91C8.08525 5.323 9.49246 5.777 10.0806 6.925C10.6676 8.074 10.2156 9.48 9.0674 10.07Z" fill="#1B1F22"/>
<path d="M29.0043 7.544L28.6173 5.919L27.197 6.071C27.051 5.828 26.884 5.608 26.699 5.41L27.224 4.134L25.8038 3.258L24.9167 4.361C24.6086 4.28 24.2926 4.24 23.9736 4.238L23.4165 3L21.8012 3.433L21.9893 4.804C21.7682 4.942 21.5632 5.099 21.3812 5.271L20.155 4.767L19.2778 6.19L20.333 7.043C20.257 7.334 20.212 7.635 20.205 7.938L19.0028 8.438L19.3989 10.066L20.7391 9.92C20.8861 10.19 21.0771 10.434 21.2862 10.649L20.7921 11.848L22.2133 12.723L23.0674 11.664C23.3565 11.736 23.6515 11.775 23.9525 11.779L24.4526 13L26.0779 12.611L25.9318 11.23C26.1839 11.077 26.4109 10.9 26.6199 10.704L27.8641 11.217L28.7393 9.793L27.6341 8.902C27.7001 8.631 27.7381 8.354 27.7411 8.069L29.0043 7.544ZM25.0697 10.07C23.9235 10.658 22.5163 10.207 21.9232 9.056C21.3412 7.908 21.7932 6.5 22.9404 5.91C24.0866 5.323 25.4948 5.777 26.0829 6.925C26.67 8.074 26.2179 9.48 25.0697 10.07Z" fill="#1B1F22"/>
<path d="M45.0067 7.544L44.6197 5.919L43.1995 6.071C43.0535 5.828 42.8864 5.608 42.7014 5.41L43.2265 4.134L41.8063 3.258L40.9191 4.361C40.6111 4.28 40.295 4.24 39.976 4.238L39.4189 3L37.8037 3.433L37.9917 4.804C37.7707 4.942 37.5656 5.099 37.3836 5.271L36.1574 4.767L35.2803 6.19L36.3355 7.043C36.2594 7.334 36.2144 7.635 36.2074 7.938L35.0052 8.438L35.4013 10.066L36.7415 9.92C36.8885 10.19 37.0796 10.434 37.2886 10.649L36.7945 11.848L38.2157 12.723L39.0699 11.664C39.3589 11.736 39.6539 11.775 39.955 11.779L40.4551 13L42.0803 12.611L41.9343 11.23C42.1863 11.077 42.4134 10.9 42.6224 10.704L43.8666 11.217L44.7417 9.793L43.6365 8.902C43.7026 8.631 43.7406 8.354 43.7436 8.069L45.0067 7.544ZM41.0722 10.07C39.926 10.658 38.5188 10.207 37.9257 9.056C37.3436 7.908 37.7957 6.5 38.9428 5.91C40.089 5.323 41.4972 5.777 42.0853 6.925C42.6724 8.074 42.2203 9.48 41.0722 10.07Z" fill="#878586"/>
<path d="M61.0091 7.544L60.622 5.919L59.2018 6.071C59.0558 5.828 58.8887 5.608 58.7037 5.41L59.2288 4.134L57.8086 3.258L56.9215 4.361C56.6134 4.28 56.2974 4.24 55.9783 4.238L55.4212 3L53.806 3.433L53.994 4.804C53.773 4.942 53.568 5.099 53.3859 5.271L52.1597 4.767L51.2826 6.19L52.3378 7.043C52.2618 7.334 52.2167 7.635 52.2097 7.938L51.0076 8.438L51.4036 10.066L52.7438 9.92C52.8909 10.19 53.0819 10.434 53.2909 10.649L52.7968 11.848L54.218 12.723L55.0722 11.664C55.3612 11.736 55.6563 11.775 55.9573 11.779L56.4574 13L58.0826 12.611L57.9366 11.23C58.1886 11.077 58.4157 10.9 58.6247 10.704L59.8689 11.217L60.744 9.793L59.6389 8.902C59.7049 8.631 59.7429 8.354 59.7459 8.069L61.0091 7.544ZM57.0745 10.07C55.9283 10.658 54.5211 10.207 53.928 9.056C53.3459 7.908 53.798 6.5 54.9452 5.91C56.0913 5.323 57.4995 5.777 58.0876 6.925C58.6747 8.074 58.2227 9.48 57.0745 10.07Z" fill="#1B1F22"/>
<path d="M76.9995 7.544L76.6125 5.919L75.1923 6.071C75.0462 5.828 74.8792 5.608 74.6942 5.41L75.2153 4.134L73.794 3.258L72.9109 4.361C72.6009 4.28 72.2868 4.24 71.9668 4.238L71.4117 3L69.7964 3.433L69.9845 4.804C69.7554 4.942 69.5504 5.099 69.3764 5.271L68.1502 4.767L67.2741 6.19L68.3292 7.043C68.2532 7.334 68.2082 7.635 68.2012 7.938L66.999 8.438L67.3881 10.066L68.7283 9.92C68.8833 10.19 69.0743 10.434 69.2834 10.649L68.7833 11.85L70.2045 12.725L71.0576 11.666C71.3467 11.738 71.6417 11.777 71.9508 11.781L72.4508 13L74.0761 12.611L73.9301 11.23C74.1811 11.077 74.4111 10.9 74.6182 10.704L75.8544 11.217L76.7295 9.793L75.6273 8.902C75.6933 8.631 75.7313 8.354 75.7343 8.069L76.9995 7.544ZM73.0659 10.07C71.9198 10.658 70.5045 10.207 69.9195 9.056C69.3374 7.908 69.7894 6.497 70.9366 5.91C72.0828 5.323 73.499 5.777 74.0831 6.925C74.6652 8.074 74.2131 9.48 73.0659 10.07Z" fill="#1B1F22"/>
</g>
<defs>
<clipPath id="clip0_19_283">
<rect width="80" height="16" fill="white"/>
</clipPath>
</defs>
</svg>
