<svg width="80" height="16" viewBox="0 0 80 16" fill="none" xmlns="http://www.w3.org/2000/svg">
<g clip-path="url(#clip0_16_129)">
<path d="M7.15111 8.054L4.62073 5.37V7.551L8.00924 11.143L11.3817 7.567V5.386L8.86236 8.054V2H7.15111V8.054Z" fill="#1B1F22"/>
<path d="M4.84879 12.328C4.72577 12.328 4.61975 12.43 4.61975 12.555V13.778C4.61975 13.901 4.72377 14.007 4.84879 14.007H11.1527C11.2747 14.007 11.3778 13.903 11.3778 13.778V12.55C11.3778 12.428 11.2747 12.326 11.1527 12.326H4.84879V12.328Z" fill="#1B1F22"/>
<path d="M23.1534 8.054L20.624 5.37V7.551L24.0115 11.143L27.384 7.567V5.386L24.8647 8.054V2H23.1534V8.054Z" fill="#1B1F22"/>
<path d="M20.8511 12.328C20.7281 12.328 20.6221 12.43 20.6221 12.553V13.778C20.6221 13.903 20.7261 14.007 20.8511 14.007H27.155C27.2761 14.007 27.3801 13.903 27.3801 13.778V12.552C27.3801 12.432 27.2761 12.329 27.155 12.329L20.8511 12.328Z" fill="#1B1F22"/>
<path d="M39.1558 8.054L36.6265 5.37V7.551L40.014 11.143L43.3855 7.567V5.386L40.8661 8.054V2H39.1558V8.054Z" fill="#878586"/>
<path d="M36.8535 12.328C36.7305 12.328 36.6245 12.43 36.6245 12.553V13.778C36.6245 13.903 36.7285 14.007 36.8535 14.007H43.1575C43.2785 14.007 43.3825 13.903 43.3825 13.778V12.552C43.3825 12.432 43.2785 12.329 43.1575 12.329L36.8535 12.328Z" fill="#878586"/>
<path d="M55.1574 8.054L52.63 5.37V7.551L56.0175 11.143L59.388 7.567V5.386L56.8686 8.054V2H55.1574V8.054Z" fill="#1B1F22"/>
<path d="M52.856 12.328C52.734 12.328 52.627 12.43 52.627 12.553V13.778C52.627 13.903 52.731 14.007 52.856 14.007H59.1599C59.281 14.007 59.385 13.903 59.385 13.778V12.552C59.385 12.432 59.281 12.329 59.1599 12.329L52.856 12.328Z" fill="#1B1F22"/>
<path d="M71.1597 8.054L68.6323 5.37V7.551L72.0198 11.143L75.3903 7.567V5.386L72.871 8.054V2H71.1597V8.054Z" fill="#1B1F22"/>
<path d="M68.8583 12.328C68.7363 12.328 68.6293 12.43 68.6293 12.553V13.778C68.6293 13.903 68.7333 14.007 68.8583 14.007H75.1623C75.2833 14.007 75.3873 13.903 75.3873 13.778V12.552C75.3873 12.432 75.2833 12.329 75.1623 12.329L68.8583 12.328Z" fill="#1B1F22"/>
</g>
<defs>
<clipPath id="clip0_16_129">
<rect width="80" height="16" fill="white"/>
</clipPath>
</defs>
</svg>
