<svg width="80" height="16" viewBox="0 0 80 16" fill="none" xmlns="http://www.w3.org/2000/svg">
<g clip-path="url(#clip0_19_270)">
<path d="M14.4439 11.141C14.2149 11.35 13.9708 11.495 13.6988 11.579C13.4238 11.659 13.1557 11.691 12.8937 11.691C12.7057 11.691 12.5376 11.676 12.3726 11.661C12.2106 11.636 12.0626 11.601 11.9335 11.57C11.7935 11.542 11.6835 11.506 11.5795 11.467C11.4825 11.433 11.4085 11.406 11.3605 11.394L2.82217 6.674C2.62714 6.566 2.45012 6.434 2.29509 6.278C2.14007 6.121 2.00805 5.95 1.89803 5.762C1.78802 5.574 1.70301 5.373 1.644 5.159C1.58699 4.943 1.55798 4.725 1.55798 4.501C1.55798 4.154 1.62099 3.829 1.74801 3.524C1.88603 3.22 2.06606 2.955 2.29009 2.728C2.51913 2.5 2.78417 2.323 3.08921 2.193C3.39326 2.064 3.71731 2 4.05736 2C4.40341 2 4.72846 2.065 5.0345 2.195C5.33955 2.323 5.60459 2.501 5.83262 2.73C6.06066 2.954 6.23669 3.22 6.3657 3.524C6.49472 3.828 6.55873 4.154 6.55873 4.501C6.55873 4.799 6.50273 5.082 6.41271 5.352C6.3137 5.623 6.17268 5.873 5.98365 6.102C5.97865 6.113 5.97665 6.121 5.97665 6.131C5.96965 6.141 5.96064 6.164 5.96064 6.197C5.96064 6.252 5.97965 6.311 5.99465 6.381C6.01565 6.447 6.06666 6.504 6.14467 6.548L14.4439 11.141ZM6.58174 11.5C6.58174 11.841 6.51873 12.164 6.38371 12.467C6.25169 12.774 6.07266 13.038 5.85263 13.264C5.62359 13.493 5.36055 13.67 5.04751 13.803C4.74546 13.934 4.42141 14 4.07936 14C3.73331 14 3.40826 13.934 3.10322 13.803C2.80017 13.67 2.53213 13.492 2.3061 13.264C2.07706 13.038 1.90204 12.774 1.77102 12.467C1.642 12.164 1.57799 11.841 1.57799 11.5C1.57799 11.07 1.671 10.682 1.86003 10.331C2.04706 9.98 2.29909 9.689 2.61614 9.467L4.40041 8.406L6.19968 9.43C6.15867 9.461 6.11967 9.493 6.08566 9.534C6.05766 9.566 6.03165 9.604 6.00765 9.643C5.98665 9.688 5.97465 9.734 5.97465 9.79C5.97465 9.837 5.98865 9.885 6.01765 9.934C6.20568 10.141 6.3477 10.378 6.44072 10.649C6.53573 10.919 6.58174 11.201 6.58174 11.5ZM2.94719 4.501C2.94719 4.652 2.9772 4.796 3.03521 4.933C3.09821 5.069 3.17323 5.188 3.27524 5.294C3.37826 5.398 3.49527 5.482 3.62929 5.543C3.76631 5.605 3.90834 5.634 4.06036 5.634C4.20938 5.634 4.3644 5.604 4.49842 5.543C4.64045 5.481 4.76046 5.398 4.86348 5.294C4.96649 5.189 5.04651 5.069 5.10552 4.933C5.16352 4.796 5.19353 4.652 5.19353 4.501C5.19353 4.349 5.16352 4.207 5.10552 4.069C5.04551 3.934 4.96549 3.812 4.86348 3.71C4.76146 3.609 4.64045 3.528 4.50143 3.469C4.3614 3.411 4.21538 3.383 4.06336 3.383C3.91134 3.383 3.76932 3.411 3.62929 3.47C3.49627 3.529 3.37826 3.609 3.27524 3.71C3.17123 3.814 3.09421 3.933 3.03521 4.07C2.9782 4.208 2.94719 4.35 2.94719 4.501ZM2.94719 11.5C2.94719 11.65 2.9772 11.793 3.03521 11.926C3.09321 12.059 3.17323 12.18 3.27524 12.28C3.37826 12.384 3.49827 12.468 3.6393 12.522C3.77732 12.585 3.91734 12.61 4.07736 12.61C4.22938 12.61 4.37341 12.586 4.50543 12.522C4.64645 12.463 4.76546 12.382 4.86048 12.28C4.96349 12.18 5.04351 12.059 5.10252 11.926C5.16052 11.793 5.19053 11.648 5.19053 11.5C5.19053 11.344 5.16052 11.195 5.10252 11.057C5.03951 10.919 4.95649 10.799 4.86048 10.696C4.75646 10.592 4.64045 10.512 4.50543 10.461C4.37141 10.398 4.23439 10.374 4.07736 10.374C3.92034 10.374 3.77532 10.395 3.6393 10.461C3.49327 10.524 3.37326 10.601 3.27524 10.696C3.17123 10.8 3.08721 10.925 3.03521 11.057C2.9782 11.193 2.94719 11.342 2.94719 11.5ZM10.9214 4.785C11.1234 4.703 11.3405 4.63 11.5705 4.567C11.7645 4.513 11.9855 4.461 12.2306 4.413C12.4766 4.363 12.7287 4.339 12.9927 4.339C13.2587 4.339 13.5208 4.374 13.7738 4.446C14.0249 4.516 14.2529 4.642 14.4439 4.823L9.49417 7.573L7.71691 6.571L10.9214 4.785Z" fill="#1B1F22"/>
<path d="M30.4466 11.141C30.2175 11.35 29.9735 11.495 29.7014 11.579C29.4264 11.659 29.1584 11.691 28.8963 11.691C28.7083 11.691 28.5403 11.676 28.3752 11.661C28.2132 11.636 28.0652 11.601 27.9362 11.57C27.7962 11.542 27.6861 11.506 27.5821 11.467C27.4851 11.433 27.4111 11.406 27.3631 11.394L18.8228 6.674C18.6278 6.566 18.4498 6.434 18.2937 6.278C18.1457 6.122 18.0067 5.951 17.8977 5.763C17.7867 5.575 17.7026 5.374 17.6426 5.159C17.5796 4.944 17.5576 4.725 17.5576 4.501C17.5576 4.154 17.6206 3.829 17.7466 3.524C17.8797 3.22 18.0597 2.955 18.2857 2.728C18.5148 2.5 18.7778 2.323 19.0808 2.194C19.3949 2.064 19.7189 2 20.059 2C20.406 2 20.7301 2.065 21.0361 2.195C21.3412 2.323 21.6072 2.502 21.8343 2.731C22.0633 2.955 22.2383 3.221 22.3673 3.525C22.4974 3.829 22.5604 4.155 22.5604 4.502C22.5604 4.8 22.5034 5.083 22.4143 5.353C22.3153 5.624 22.1733 5.874 21.9843 6.103C21.9793 6.114 21.9763 6.122 21.9763 6.132C21.9633 6.142 21.9613 6.165 21.9613 6.198C21.9613 6.253 21.9813 6.312 21.9933 6.382C22.0163 6.448 22.0673 6.506 22.1443 6.549L30.4466 11.141ZM22.5844 11.5C22.5844 11.841 22.5214 12.164 22.3863 12.467C22.2543 12.774 22.0753 13.038 21.8553 13.264C21.6262 13.493 21.3622 13.67 21.0501 13.803C20.7481 13.934 20.426 14 20.082 14C19.7349 14 19.4109 13.934 19.1058 13.803C18.7958 13.67 18.5348 13.492 18.3087 13.264C18.0797 13.038 17.9067 12.774 17.7736 12.467C17.6436 12.164 17.5816 11.841 17.5816 11.5C17.5816 11.07 17.6736 10.682 17.8637 10.331C18.0507 9.98 18.3017 9.689 18.6208 9.467L20.404 8.406L22.2033 9.43C22.1623 9.457 22.1223 9.493 22.0903 9.534C22.0663 9.566 22.0343 9.605 22.0103 9.642C21.9903 9.689 21.9863 9.734 21.9863 9.788C21.9863 9.835 21.9983 9.883 22.0283 9.934C22.2163 10.135 22.3613 10.376 22.4514 10.649C22.5384 10.919 22.5844 11.201 22.5844 11.5ZM18.9498 4.501C18.9498 4.652 18.9798 4.796 19.0378 4.933C19.0958 5.069 19.1749 5.188 19.2779 5.294C19.3809 5.398 19.4979 5.482 19.6319 5.543C19.7719 5.605 19.912 5.634 20.067 5.634C20.216 5.634 20.37 5.604 20.5051 5.543C20.6511 5.481 20.7651 5.398 20.8661 5.294C20.9701 5.189 21.0511 5.069 21.1092 4.933C21.1672 4.796 21.1962 4.652 21.1962 4.501C21.1962 4.349 21.1672 4.207 21.1092 4.069C21.0461 3.933 20.9631 3.812 20.8661 3.71C20.7661 3.609 20.6451 3.527 20.5061 3.468C20.366 3.41 20.22 3.382 20.068 3.382C19.916 3.382 19.7729 3.41 19.6329 3.469C19.4989 3.528 19.3829 3.609 19.2789 3.71C19.1749 3.814 19.0908 3.933 19.0388 4.07C18.9808 4.208 18.9498 4.35 18.9498 4.501ZM18.9498 11.5C18.9498 11.65 18.9798 11.793 19.0378 11.926C19.0958 12.059 19.1749 12.18 19.2779 12.28C19.3809 12.384 19.5009 12.468 19.6419 12.522C19.78 12.585 19.92 12.61 20.08 12.61C20.232 12.61 20.376 12.586 20.5081 12.522C20.6491 12.463 20.7681 12.382 20.8621 12.28C20.9661 12.18 21.0471 12.059 21.1051 11.926C21.1632 11.793 21.1922 11.649 21.1922 11.5C21.1922 11.344 21.1632 11.195 21.1051 11.057C21.0421 10.919 20.9591 10.799 20.8621 10.696C20.7591 10.593 20.6441 10.512 20.5081 10.461C20.374 10.398 20.237 10.374 20.08 10.374C19.923 10.374 19.778 10.395 19.6419 10.461C19.4959 10.524 19.3759 10.601 19.2779 10.696C19.1739 10.8 19.0898 10.925 19.0378 11.057C18.9808 11.193 18.9498 11.342 18.9498 11.5ZM26.924 4.785C27.1261 4.703 27.3431 4.63 27.5731 4.567C27.7671 4.513 27.9882 4.461 28.2332 4.413C28.4793 4.363 28.7313 4.339 28.9953 4.339C29.2614 4.339 29.5234 4.374 29.7765 4.446C30.0275 4.516 30.2555 4.642 30.4466 4.823L25.4968 7.573L23.7205 6.572L26.924 4.785Z" fill="#1B1F22"/>
<path d="M46.449 11.141C46.2199 11.35 45.9699 11.495 45.7039 11.579C45.4308 11.659 45.1608 11.691 44.8997 11.691C44.7117 11.691 44.5427 11.676 44.3787 11.661C44.2196 11.636 44.0696 11.601 43.9406 11.57C43.8006 11.542 43.6926 11.506 43.5865 11.467C43.4875 11.433 43.4145 11.406 43.3665 11.394L34.8262 6.672C34.6312 6.564 34.4532 6.432 34.2971 6.276C34.1491 6.12 34.0111 5.949 33.9011 5.761C33.7901 5.573 33.7071 5.372 33.646 5.157C33.583 4.942 33.561 4.723 33.561 4.499C33.561 4.152 33.624 3.827 33.7501 3.522C33.8831 3.218 34.0631 2.953 34.2891 2.726C34.5182 2.498 34.7812 2.321 35.0843 2.192C35.3973 2.064 35.7214 2 36.0614 2C36.4085 2 36.7325 2.065 37.0386 2.195C37.3436 2.323 37.6096 2.502 37.8367 2.731C38.0657 2.955 38.2407 3.221 38.3698 3.525C38.4998 3.829 38.5628 4.155 38.5628 4.502C38.5628 4.8 38.5058 5.083 38.4168 5.353C38.3177 5.624 38.1757 5.874 37.9867 6.103C37.9817 6.114 37.9787 6.122 37.9787 6.132C37.9657 6.142 37.9637 6.165 37.9637 6.198C37.9637 6.253 37.9837 6.312 37.9957 6.382C38.0187 6.448 38.0697 6.506 38.1467 6.549L46.449 11.141ZM38.5868 11.5C38.5868 11.841 38.5238 12.164 38.3888 12.467C38.2567 12.774 38.0777 13.038 37.8577 13.264C37.6286 13.493 37.3646 13.67 37.0526 13.803C36.7505 13.934 36.4285 14 36.0844 14C35.7374 14 35.4133 13.934 35.1083 13.803C34.7982 13.67 34.5372 13.492 34.3111 13.264C34.0821 13.038 33.9091 12.774 33.7761 12.467C33.646 12.164 33.584 11.841 33.584 11.5C33.584 11.07 33.6761 10.682 33.8661 10.331C34.0531 9.98 34.3041 9.689 34.6232 9.467L36.4065 8.406L38.2057 9.43C38.1647 9.457 38.1247 9.493 38.0927 9.534C38.0687 9.566 38.0367 9.605 38.0127 9.642C37.9927 9.689 37.9887 9.734 37.9887 9.788C37.9887 9.835 38.0007 9.883 38.0307 9.934C38.2187 10.135 38.3638 10.376 38.4538 10.649C38.5408 10.919 38.5868 11.201 38.5868 11.5ZM34.9522 4.501C34.9522 4.652 34.9822 4.796 35.0403 4.933C35.0983 5.069 35.1773 5.188 35.2803 5.294C35.3833 5.398 35.5003 5.482 35.6343 5.543C35.7744 5.605 35.9144 5.634 36.0694 5.634C36.2184 5.634 36.3735 5.604 36.5075 5.543C36.6535 5.481 36.7665 5.398 36.8685 5.294C36.9725 5.189 37.0536 5.069 37.1116 4.933C37.1696 4.796 37.1986 4.652 37.1986 4.501C37.1986 4.349 37.1696 4.207 37.1116 4.069C37.0486 3.933 36.9655 3.812 36.8685 3.71C36.7685 3.609 36.6475 3.527 36.5085 3.468C36.3685 3.41 36.2224 3.382 36.0704 3.382C35.9184 3.382 35.7754 3.41 35.6353 3.469C35.5013 3.528 35.3853 3.609 35.2813 3.71C35.1773 3.814 35.0933 3.933 35.0413 4.07C34.9832 4.208 34.9522 4.35 34.9522 4.501ZM34.9522 11.5C34.9522 11.65 34.9822 11.793 35.0403 11.926C35.0983 12.059 35.1773 12.18 35.2803 12.28C35.3833 12.384 35.5033 12.468 35.6443 12.522C35.7824 12.585 35.9224 12.61 36.0824 12.61C36.2344 12.61 36.3785 12.586 36.5105 12.522C36.6515 12.463 36.7705 12.382 36.8645 12.28C36.9685 12.18 37.0496 12.059 37.1076 11.926C37.1656 11.793 37.1946 11.649 37.1946 11.5C37.1946 11.344 37.1656 11.195 37.1076 11.057C37.0446 10.919 36.9615 10.799 36.8645 10.696C36.7615 10.593 36.6465 10.512 36.5105 10.461C36.3765 10.398 36.2394 10.374 36.0824 10.374C35.9254 10.374 35.7804 10.395 35.6443 10.461C35.4983 10.524 35.3783 10.601 35.2803 10.696C35.1763 10.8 35.0923 10.925 35.0403 11.057C34.9832 11.193 34.9522 11.342 34.9522 11.5ZM42.9264 4.785C43.1275 4.703 43.3465 4.63 43.5765 4.567C43.7686 4.513 43.9896 4.461 44.2356 4.413C44.4807 4.363 44.7317 4.339 44.9968 4.339C45.2648 4.339 45.5248 4.374 45.7789 4.446C46.0289 4.516 46.2559 4.642 46.449 4.823L41.4972 7.573L39.722 6.572L42.9264 4.785Z" fill="#878586"/>
<path d="M62.4514 11.141C62.2224 11.35 61.9723 11.495 61.7063 11.579C61.4332 11.659 61.1632 11.691 60.9002 11.691C60.7121 11.691 60.5451 11.676 60.3791 11.661C60.2201 11.636 60.07 11.601 59.941 11.57C59.801 11.542 59.693 11.506 59.587 11.467C59.4879 11.433 59.4149 11.406 59.3669 11.394L50.8276 6.674C50.6336 6.566 50.4566 6.434 50.2996 6.278C50.1525 6.122 50.0135 5.951 49.9035 5.763C49.7935 5.575 49.7115 5.374 49.6515 5.159C49.5885 4.944 49.5645 4.725 49.5645 4.501C49.5645 4.154 49.6275 3.829 49.7535 3.524C49.8855 3.22 50.0665 2.955 50.2926 2.728C50.5216 2.5 50.7836 2.323 51.0877 2.194C51.3997 2.064 51.7228 2 52.0648 2C52.4109 2 52.7349 2.065 53.041 2.195C53.346 2.323 53.6131 2.502 53.8391 2.731C54.0681 2.955 54.2422 3.221 54.3712 3.525C54.5032 3.829 54.5642 4.155 54.5642 4.502C54.5642 4.8 54.5092 5.083 54.4182 5.353C54.3182 5.624 54.1761 5.874 53.9871 6.103C53.9801 6.114 53.9781 6.122 53.9781 6.132C53.9661 6.142 53.9621 6.165 53.9621 6.198C53.9621 6.253 53.9831 6.312 53.9951 6.382C54.0171 6.448 54.0671 6.506 54.1461 6.549L62.4514 11.141ZM54.5892 11.5C54.5892 11.841 54.5262 12.164 54.3912 12.467C54.2602 12.774 54.0811 13.038 53.8611 13.264C53.6321 13.493 53.368 13.67 53.056 13.803C52.7519 13.934 52.4309 14 52.0858 14C51.7398 14 51.4157 13.934 51.1107 13.803C50.7986 13.67 50.5416 13.492 50.3126 13.264C50.0835 13.038 49.9115 12.774 49.7795 12.467C49.6465 12.164 49.5865 11.841 49.5865 11.5C49.5865 11.07 49.6785 10.682 49.8675 10.331C50.0555 9.98 50.3056 9.689 50.6266 9.467L52.4089 8.406L54.2102 9.429C54.1681 9.451 54.1291 9.492 54.0961 9.532C54.0721 9.566 54.0401 9.605 54.0161 9.642C53.9951 9.689 53.9911 9.734 53.9911 9.788C53.9911 9.835 54.0041 9.883 54.0341 9.934C54.2222 10.135 54.3652 10.376 54.4582 10.649C54.5432 10.919 54.5892 11.201 54.5892 11.5ZM50.9547 4.501C50.9547 4.652 50.9837 4.796 51.0417 4.933C51.1007 5.069 51.1797 5.188 51.2827 5.294C51.3867 5.398 51.5037 5.482 51.6368 5.543C51.7768 5.605 51.9158 5.634 52.0728 5.634C52.2219 5.634 52.3749 5.604 52.5109 5.543C52.6569 5.481 52.7709 5.398 52.873 5.294C52.977 5.189 53.058 5.069 53.115 4.933C53.174 4.796 53.201 4.652 53.201 4.501C53.201 4.349 53.174 4.207 53.115 4.069C53.052 3.933 52.969 3.812 52.873 3.71C52.7729 3.609 52.6509 3.527 52.5119 3.468C52.3739 3.41 52.2269 3.382 52.0738 3.382C51.9228 3.382 51.7778 3.41 51.6378 3.469C51.5047 3.528 51.3877 3.609 51.2837 3.71C51.1797 3.814 51.0957 3.933 51.0427 4.07C50.9867 4.208 50.9547 4.35 50.9547 4.501ZM50.9547 11.5C50.9547 11.65 50.9837 11.793 51.0417 11.926C51.1007 12.059 51.1797 12.18 51.2827 12.28C51.3867 12.384 51.5057 12.468 51.6468 12.522C51.7858 12.585 51.9238 12.61 52.0848 12.61C52.2369 12.61 52.3809 12.586 52.5119 12.522C52.6519 12.463 52.7729 12.382 52.866 12.28C52.97 12.18 53.051 12.059 53.108 11.926C53.167 11.793 53.194 11.649 53.194 11.5C53.194 11.344 53.167 11.195 53.108 11.057C53.045 10.919 52.962 10.799 52.866 10.696C52.7619 10.593 52.6479 10.512 52.5119 10.461C52.3799 10.398 52.2409 10.374 52.0848 10.374C51.9278 10.374 51.7828 10.395 51.6468 10.461C51.5007 10.524 51.3797 10.601 51.2827 10.696C51.1787 10.8 51.0947 10.925 51.0417 11.057C50.9847 11.193 50.9547 11.342 50.9547 11.5ZM58.9289 4.785C59.1299 4.703 59.3489 4.63 59.579 4.567C59.771 4.513 59.992 4.461 60.2381 4.413C60.4831 4.363 60.7341 4.339 60.9992 4.339C61.2672 4.339 61.5272 4.374 61.7793 4.446C62.0313 4.516 62.2584 4.642 62.4514 4.823L57.4996 7.573L55.7244 6.572L58.9289 4.785Z" fill="#1B1F22"/>
<path d="M78.4418 11.141C78.2127 11.35 77.9627 11.495 77.6966 11.579C77.4236 11.659 77.1536 11.691 76.8835 11.691C76.6985 11.691 76.5295 11.676 76.3644 11.661C76.2034 11.636 76.0514 11.601 75.9204 11.57C75.7873 11.542 75.6723 11.506 75.5733 11.467C75.4693 11.433 75.4003 11.406 75.3523 11.394L66.82 6.674C66.626 6.566 66.4489 6.434 66.2919 6.278C66.1379 6.122 66.0049 5.951 65.8929 5.763C65.7888 5.575 65.7048 5.374 65.6418 5.159C65.5828 4.944 65.5548 4.725 65.5548 4.501C65.5548 4.154 65.6198 3.829 65.7508 3.524C65.8829 3.22 66.0639 2.955 66.2899 2.728C66.516 2.5 66.781 2.323 67.084 2.194C67.3921 2.064 67.7141 2 68.0572 2C68.4102 2 68.7273 2.065 69.0363 2.195C69.3404 2.323 69.6064 2.502 69.8345 2.731C70.0605 2.955 70.2375 3.221 70.3665 3.525C70.4986 3.829 70.5546 4.155 70.5546 4.502C70.5546 4.8 70.5066 5.083 70.4085 5.353C70.3085 5.624 70.1695 5.874 69.9795 6.103C69.9655 6.114 69.9635 6.122 69.9635 6.132C69.9595 6.142 69.9555 6.165 69.9555 6.198C69.9555 6.253 69.9705 6.312 69.9885 6.382C70.0105 6.448 70.0605 6.506 70.1375 6.549L78.4418 11.141ZM70.5806 11.5C70.5806 11.841 70.5136 12.164 70.3825 12.467C70.2505 12.774 70.0725 13.038 69.8455 13.264C69.6194 13.493 69.3524 13.67 69.0473 13.803C68.7423 13.934 68.4212 14 68.0772 14C67.7301 14 67.4061 13.934 67.098 13.803C66.793 13.67 66.535 13.492 66.2999 13.264C66.0729 13.038 65.9039 12.774 65.7738 12.467C65.6338 12.164 65.5798 11.841 65.5798 11.5C65.5798 11.07 65.6728 10.682 65.8619 10.331C66.0499 9.98 66.2999 9.689 66.621 9.467L68.4032 8.406L70.2005 9.43C70.1615 9.452 70.1225 9.493 70.0885 9.533C70.0585 9.567 70.0325 9.606 70.0095 9.643C69.9885 9.69 69.9765 9.735 69.9765 9.789C69.9765 9.836 69.9975 9.884 70.0215 9.935C70.2095 10.136 70.3505 10.377 70.4516 10.65C70.5346 10.919 70.5806 11.201 70.5806 11.5ZM66.945 4.501C66.945 4.652 66.966 4.796 67.031 4.933C67.09 5.069 67.1701 5.188 67.2731 5.294C67.3771 5.398 67.4941 5.482 67.6271 5.543C67.7601 5.605 67.9062 5.634 68.0542 5.634C68.2102 5.634 68.3652 5.604 68.4973 5.543C68.6373 5.481 68.7563 5.398 68.8593 5.294C68.9623 5.189 69.0443 5.069 69.0943 4.933C69.1574 4.796 69.1804 4.652 69.1804 4.501C69.1804 4.349 69.1594 4.207 69.0943 4.069C69.0353 3.933 68.9543 3.812 68.8593 3.71C68.7553 3.609 68.6303 3.527 68.4983 3.468C68.3582 3.41 68.2122 3.382 68.0542 3.382C67.9082 3.382 67.7601 3.41 67.6271 3.469C67.4941 3.528 67.3771 3.609 67.2731 3.71C67.1691 3.814 67.085 3.933 67.031 4.07C66.975 4.208 66.945 4.35 66.945 4.501ZM66.945 11.5C66.945 11.65 66.966 11.793 67.031 11.926C67.09 12.059 67.1701 12.18 67.2731 12.28C67.3771 12.384 67.4961 12.468 67.6291 12.522C67.7751 12.585 67.9142 12.61 68.0692 12.61C68.2152 12.61 68.3662 12.586 68.4983 12.522C68.6303 12.463 68.7523 12.382 68.8523 12.28C68.9563 12.18 69.0383 12.059 69.0883 11.926C69.1514 11.793 69.1744 11.649 69.1744 11.5C69.1744 11.344 69.1534 11.195 69.0883 11.057C69.0303 10.919 68.9483 10.799 68.8523 10.696C68.7483 10.592 68.6253 10.512 68.4983 10.461C68.3652 10.398 68.2212 10.374 68.0692 10.374C67.9142 10.374 67.7661 10.395 67.6291 10.461C67.4891 10.524 67.3701 10.601 67.2731 10.696C67.1691 10.8 67.085 10.925 67.031 11.057C66.974 11.193 66.945 11.342 66.945 11.5ZM74.9182 4.785C75.1202 4.703 75.3393 4.63 75.5663 4.567C75.7543 4.513 75.9824 4.461 76.2214 4.413C76.4655 4.363 76.7175 4.339 76.9895 4.339C77.2576 4.339 77.5106 4.374 77.7616 4.446C78.0147 4.516 78.2407 4.642 78.4418 4.823L73.49 7.573L71.7147 6.572L74.9182 4.785Z" fill="#1B1F22"/>
</g>
<defs>
<clipPath id="clip0_19_270">
<rect width="80" height="16" fill="white"/>
</clipPath>
</defs>
</svg>
