<svg width="80" height="16" viewBox="0 0 80 16" fill="none" xmlns="http://www.w3.org/2000/svg">
<g clip-path="url(#clip0_19_173)">
<path d="M6.38 7.07201L9.31744 4.30301H6.92908L3.00049 8.00901L6.91207 11.697H9.29843L6.38 8.94301H13.002V7.07201H6.38Z" fill="#1B1F22"/>
<path d="M22.3823 7.07201L25.3198 4.30301H22.9314L19.0028 8.00901L22.9144 11.697H25.3008L22.3823 8.94301H29.0043V7.07201H22.3823Z" fill="#1B1F22"/>
<path d="M38.3848 7.07201L41.3222 4.30301H38.9338L35.0052 8.00901L38.9168 11.697H41.3032L38.3848 8.94301H45.0067V7.07201H38.3848Z" fill="#878586"/>
<path d="M54.3871 7.07201L57.3245 4.30301H54.9362L51.0076 8.00901L54.9192 11.697H57.3055L54.3871 8.94301H61.0091V7.07201H54.3871Z" fill="#1B1F22"/>
<path d="M70.3775 7.07201L73.316 4.30301H70.9266L66.998 8.00901L70.9096 11.697H73.296L70.3775 8.94301H76.9995V7.07201H70.3775Z" fill="#1B1F22"/>
</g>
<defs>
<clipPath id="clip0_19_173">
<rect width="80" height="16" fill="white"/>
</clipPath>
</defs>
</svg>
