<svg width="80" height="16" viewBox="0 0 80 16" fill="none" xmlns="http://www.w3.org/2000/svg">
<g clip-path="url(#clip0_19_274)">
<path d="M7.56483 9.00398C7.47982 9.15898 7.37681 9.30098 7.25479 9.42798C7.13477 9.55698 6.99875 9.66598 6.85073 9.75698C6.70371 9.84998 6.54368 9.92198 6.37266 9.97098C6.20063 10.018 6.0216 10.046 5.83958 10.046H3.96529C3.69425 10.046 3.44422 9.99198 3.20018 9.88498C2.96514 9.77898 2.75611 9.63298 2.57909 9.44898C2.40006 9.26598 2.25904 9.04698 2.15602 8.79898C2.05201 8.55298 2 8.28498 2 7.99798C2 7.71298 2.05201 7.44798 2.15602 7.19998C2.25904 6.95198 2.40006 6.73498 2.57909 6.55098C2.75611 6.36598 2.96514 6.21998 3.20018 6.11398C3.43722 6.00798 3.69225 5.95498 3.96429 5.95498H5.83858C6.21463 5.95498 6.55168 6.04898 6.85973 6.23598C7.16177 6.42398 7.39781 6.67698 7.56983 6.99698H3.96329C3.83027 6.99698 3.70726 7.02498 3.60124 7.07798C3.48322 7.13198 3.38221 7.20298 3.29419 7.29398C3.20618 7.38298 3.13717 7.48898 3.08816 7.60998C3.03716 7.73198 3.01115 7.85998 3.01115 7.99798C3.01115 8.13898 3.03215 8.26898 3.08016 8.39098C3.13617 8.51198 3.20518 8.61998 3.29319 8.70998C3.38121 8.79998 3.48122 8.87498 3.60024 8.92598C3.70826 8.97698 3.83027 9.00398 3.96229 9.00398H7.56483ZM4.73641 7.99798C4.73641 7.91398 4.75241 7.83298 4.78442 7.75798C4.81742 7.68198 4.85943 7.61698 4.91744 7.55998C4.97945 7.50498 5.03646 7.45998 5.10647 7.42798C5.17748 7.39698 5.25649 7.37998 5.3405 7.37998H10.6543C10.8273 7.37998 10.9673 7.43998 11.0844 7.55998C11.2014 7.67998 11.2584 7.82498 11.2584 7.99698C11.2584 8.17698 11.1994 8.32298 11.0844 8.43798C10.9673 8.55098 10.8243 8.60898 10.6543 8.60898H5.3415C5.17448 8.60898 5.03045 8.54598 4.91344 8.43798C4.79642 8.32398 4.73641 8.17598 4.73641 7.99798ZM12.0265 5.95398C12.2975 5.95398 12.5476 6.00698 12.7946 6.11198C13.0327 6.21798 13.2437 6.36298 13.4217 6.54998C13.6067 6.73498 13.7448 6.95098 13.8528 7.19898C13.9498 7.44798 14.0018 7.71298 14.0018 7.99798C14.0018 8.28498 13.9498 8.55298 13.8548 8.79798C13.7508 9.04498 13.6087 9.26398 13.4227 9.44898C13.2417 9.63298 13.0307 9.77898 12.7946 9.88498C12.5616 9.99198 12.2985 10.046 12.0255 10.046H10.1572C9.9752 10.046 9.79617 10.02 9.62614 9.96898C9.45312 9.92198 9.29209 9.84998 9.14307 9.75698C8.99305 9.66598 8.85703 9.55698 8.73501 9.42798C8.61399 9.30098 8.51098 9.15898 8.42796 9.00398H12.0285C12.1585 9.00398 12.2845 8.97698 12.3976 8.92598C12.5026 8.87098 12.6106 8.80098 12.6986 8.70998C12.7856 8.61898 12.8556 8.51198 12.9056 8.38798C12.9556 8.26698 12.9816 8.13798 12.9816 7.99698C12.9816 7.86098 12.9556 7.73098 12.9056 7.60998C12.8556 7.48898 12.7856 7.38298 12.6986 7.29398C12.6106 7.20398 12.5106 7.13198 12.3976 7.07798C12.2845 7.02498 12.1615 6.99698 12.0285 6.99698H8.42696C8.60099 6.67598 8.83503 6.42298 9.14607 6.23598C9.45112 6.04898 9.78817 5.95498 10.1602 5.95498L12.0265 5.95398Z" fill="#1B1F22"/>
<path d="M23.5685 9.00398C23.4835 9.15898 23.3805 9.30098 23.2555 9.42798C23.1335 9.55698 22.9984 9.66598 22.8584 9.75698C22.7114 9.84998 22.5454 9.92198 22.3793 9.97098C22.2073 10.018 22.0303 10.047 21.8473 10.047H19.972C19.7009 10.047 19.4509 9.99298 19.2069 9.88498C18.9718 9.78098 18.7628 9.63298 18.5858 9.44998C18.4077 9.26698 18.2687 9.04798 18.1617 8.79998C18.0547 8.55298 18.0027 8.28398 18.0027 7.99798C18.0027 7.71298 18.0607 7.44798 18.1587 7.19898C18.2617 6.95198 18.4027 6.73498 18.5828 6.55198C18.7588 6.36698 18.9678 6.22098 19.2029 6.11398C19.4389 6.00798 19.6949 5.95498 19.968 5.95498H21.8413C22.2183 5.95498 22.5614 6.04898 22.8624 6.23598C23.1645 6.42398 23.4005 6.67698 23.5735 6.99698H19.969C19.838 6.99698 19.7139 7.02398 19.6069 7.07698C19.4949 7.13098 19.3869 7.20298 19.2999 7.29298C19.2119 7.38298 19.1499 7.48898 19.0938 7.60898C19.0418 7.73198 19.0258 7.85998 19.0258 7.99798C19.0258 8.13898 19.0468 8.26898 19.0938 8.39098C19.1499 8.51198 19.2119 8.61998 19.2999 8.70998C19.3869 8.80098 19.4879 8.87498 19.6079 8.92598C19.7159 8.97698 19.837 9.00398 19.974 9.00398H23.5685ZM20.7381 7.99798C20.7381 7.91398 20.7551 7.83198 20.7871 7.75798C20.8201 7.68198 20.8621 7.61698 20.9191 7.55998C20.9821 7.50398 21.0381 7.45998 21.1082 7.42798C21.1732 7.39698 21.2542 7.37998 21.3372 7.37998H26.651C26.824 7.37998 26.964 7.43998 27.081 7.55998C27.1961 7.67998 27.2551 7.82498 27.2551 7.99698C27.2551 8.17698 27.1961 8.32398 27.081 8.43798C26.964 8.55098 26.821 8.60898 26.651 8.60898H21.3432C21.1752 8.60898 21.0321 8.54598 20.9161 8.43798C20.7991 8.32398 20.7381 8.17598 20.7381 7.99798ZM28.0292 5.95398C28.3002 5.95398 28.5503 6.00698 28.7973 6.11198C29.0353 6.21798 29.2464 6.36298 29.4244 6.54998C29.6094 6.73498 29.7474 6.95098 29.8555 7.19798C29.9545 7.44798 30.0045 7.71298 30.0045 7.99798C30.0045 8.28398 29.9525 8.55298 29.8575 8.79798C29.7534 9.04498 29.6114 9.26398 29.4254 9.44898C29.2444 9.63298 29.0333 9.77898 28.7973 9.88498C28.5643 9.99198 28.3012 10.046 28.0282 10.046H26.1589C25.9769 10.046 25.7979 10.02 25.6278 9.96898C25.4548 9.92198 25.2948 9.84998 25.1488 9.75698C24.9987 9.66598 24.8627 9.55698 24.7407 9.42798C24.6177 9.30298 24.5117 9.15898 24.4327 9.00398H28.0322C28.1622 9.00398 28.2872 8.97698 28.4012 8.92598C28.5063 8.87098 28.6143 8.80098 28.7023 8.70998C28.7893 8.61898 28.8593 8.51198 28.9083 8.38798C28.9593 8.26598 28.9843 8.13698 28.9843 7.99598C28.9843 7.85998 28.9593 7.73098 28.9083 7.60898C28.8593 7.48898 28.7893 7.38298 28.7023 7.29298C28.6143 7.20298 28.5143 7.13098 28.4012 7.07698C28.2872 7.02398 28.1642 6.99698 28.0322 6.99698H24.4276C24.6077 6.67598 24.8377 6.42298 25.1528 6.23598C25.4578 6.04898 25.7949 5.95498 26.1669 5.95498L28.0292 5.95398Z" fill="#1B1F22"/>
<path d="M39.571 9.00398C39.4859 9.15898 39.3829 9.30098 39.2579 9.42798C39.1359 9.55698 39.0009 9.66598 38.8609 9.75698C38.7138 9.84998 38.5478 9.92198 38.3818 9.97098C38.2098 10.018 38.0327 10.047 37.8497 10.047H35.9744C35.7034 10.047 35.4533 9.99298 35.2093 9.88498C34.9743 9.78098 34.7652 9.63298 34.5882 9.44998C34.4102 9.26698 34.2702 9.04798 34.1642 8.79998C34.0571 8.55298 34.0051 8.28398 34.0051 7.99798C34.0051 7.71298 34.0631 7.44798 34.1611 7.19898C34.2642 6.95198 34.4052 6.73498 34.5852 6.55198C34.7612 6.36698 34.9703 6.22098 35.2053 6.11398C35.4413 6.00798 35.6974 5.95498 35.9704 5.95498H37.8437C38.2208 5.95498 38.5638 6.04898 38.8649 6.23598C39.1669 6.42398 39.4029 6.67698 39.576 6.99698H35.9714C35.8404 6.99698 35.7164 7.02398 35.6094 7.07698C35.4974 7.13098 35.3893 7.20298 35.3023 7.29298C35.2143 7.38298 35.1523 7.48898 35.0963 7.60898C35.0443 7.73198 35.0283 7.85998 35.0283 7.99798C35.0283 8.13898 35.0493 8.26898 35.0963 8.39098C35.1523 8.51198 35.2143 8.61998 35.3023 8.70998C35.3893 8.80098 35.4903 8.87498 35.6104 8.92598C35.7184 8.97698 35.8394 9.00398 35.9764 9.00398H39.571ZM36.7405 7.99798C36.7405 7.91398 36.7575 7.83198 36.7895 7.75798C36.8226 7.68198 36.8646 7.61698 36.9216 7.55998C36.9846 7.50398 37.0406 7.45998 37.1106 7.42798C37.1756 7.39698 37.2566 7.37998 37.3396 7.37998H42.6534C42.8274 7.37998 42.9665 7.43998 43.0845 7.55998C43.1975 7.67998 43.2565 7.82498 43.2565 7.99698C43.2565 8.17698 43.1975 8.32398 43.0845 8.43798C42.9675 8.55098 42.8224 8.60898 42.6534 8.60898H37.3456C37.1776 8.60898 37.0346 8.54598 36.9186 8.43798C36.8015 8.32398 36.7405 8.17598 36.7405 7.99798ZM44.0306 5.95398C44.3017 5.95398 44.5517 6.00698 44.7997 6.11198C45.0368 6.21798 45.2478 6.36298 45.4278 6.54998C45.6129 6.73498 45.7499 6.95098 45.8589 7.19798C45.9569 7.44798 46.0069 7.71298 46.0069 7.99798C46.0069 8.28398 45.9559 8.55298 45.8599 8.79798C45.7559 9.04498 45.6139 9.26398 45.4288 9.44898C45.2468 9.63298 45.0358 9.77898 44.7997 9.88498C44.5677 9.99198 44.3047 10.046 44.0296 10.046H42.1613C41.9783 10.046 41.8003 10.02 41.6313 9.96898C41.4572 9.92198 41.2972 9.84998 41.1522 9.75698C41.0042 9.66598 40.8672 9.55698 40.7461 9.42798C40.6221 9.30298 40.5171 9.15898 40.4371 9.00398H44.0356C44.1677 9.00398 44.2917 8.97698 44.4057 8.92598C44.5117 8.87098 44.6187 8.80098 44.7077 8.70998C44.7937 8.61898 44.8638 8.51198 44.9128 8.38798C44.9648 8.26598 44.9898 8.13698 44.9898 7.99598C44.9898 7.85998 44.9648 7.73098 44.9128 7.60898C44.8638 7.48898 44.7937 7.38298 44.7077 7.29298C44.6187 7.20298 44.5197 7.13098 44.4057 7.07698C44.2917 7.02398 44.1697 6.99698 44.0356 6.99698H40.4311C40.6111 6.67598 40.8412 6.42298 41.1552 6.23598C41.4602 6.04898 41.7983 5.95498 42.1704 5.95498L44.0306 5.95398Z" fill="#878586"/>
<path d="M55.5734 9.00398C55.4894 9.15898 55.3854 9.30098 55.2604 9.42798C55.1393 9.55698 55.0053 9.66598 54.8643 9.75698C54.7163 9.84998 54.5512 9.92198 54.3852 9.97098C54.2122 10.018 54.0352 10.047 53.8561 10.047H51.9809C51.7098 10.047 51.4598 9.99298 51.2117 9.88498C50.9767 9.78098 50.7717 9.63298 50.5907 9.44998C50.4126 9.26698 50.2736 9.04798 50.1666 8.79998C50.0566 8.55298 50.0076 8.28398 50.0076 7.99798C50.0076 7.71298 50.0586 7.44798 50.1626 7.19898C50.2666 6.95198 50.4076 6.73498 50.5867 6.55198C50.7647 6.36698 50.9717 6.22098 51.2067 6.11398C51.4448 6.00798 51.6988 5.95498 51.9739 5.95498H53.8451C54.2242 5.95498 54.5593 6.04898 54.8663 6.23598C55.1683 6.42398 55.4044 6.67698 55.5774 6.99698H51.9729C51.8398 6.99698 51.7168 7.02398 51.6098 7.07698C51.4988 7.13098 51.3898 7.20298 51.3038 7.29298C51.2148 7.38298 51.1527 7.48898 51.0967 7.60898C51.0457 7.73198 51.0277 7.85998 51.0277 7.99798C51.0277 8.13898 51.0487 8.26898 51.0947 8.39098C51.1507 8.51198 51.2127 8.61998 51.3018 8.70998C51.3878 8.80098 51.4898 8.87498 51.6088 8.92598C51.7158 8.97698 51.8378 9.00398 51.9729 9.00398H55.5734ZM52.742 7.99798C52.742 7.91398 52.76 7.83198 52.793 7.75798C52.824 7.68198 52.867 7.61698 52.924 7.55998C52.987 7.50398 53.043 7.45998 53.113 7.42798C53.178 7.39698 53.2591 7.37998 53.3421 7.37998H58.6559C58.8299 7.37998 58.9689 7.43998 59.0869 7.55998C59.1999 7.67998 59.259 7.82498 59.259 7.99698C59.259 8.17698 59.1999 8.32398 59.0869 8.43798C58.9699 8.55098 58.8249 8.60898 58.6559 8.60898H53.3481C53.181 8.60898 53.038 8.54598 52.922 8.43798C52.805 8.32398 52.742 8.17598 52.742 7.99798ZM60.0331 5.95398C60.3041 5.95398 60.5542 6.00698 60.8022 6.11198C61.0392 6.21798 61.2503 6.36298 61.4303 6.54998C61.6153 6.73498 61.7523 6.95098 61.8613 7.19798C61.9594 7.44798 62.0094 7.71298 62.0094 7.99798C62.0094 8.28398 61.9584 8.55298 61.8623 8.79798C61.7583 9.04498 61.6163 9.26398 61.4313 9.44898C61.2493 9.63298 61.0382 9.77898 60.8022 9.88498C60.5702 9.99198 60.3071 10.046 60.0321 10.046H58.1638C57.9808 10.046 57.8027 10.02 57.6337 9.96898C57.4597 9.92198 57.2997 9.84998 57.1546 9.75698C57.0066 9.66598 56.8696 9.55698 56.7486 9.42798C56.6246 9.30298 56.5195 9.15898 56.4355 9.00398H60.0391C60.1711 9.00398 60.2951 8.97698 60.4091 8.92598C60.5151 8.87098 60.6222 8.80098 60.7112 8.70998C60.7972 8.61898 60.8672 8.51198 60.9162 8.38798C60.9682 8.26598 60.9932 8.13698 60.9932 7.99598C60.9932 7.85998 60.9682 7.73098 60.9162 7.60898C60.8672 7.48898 60.7972 7.38298 60.7112 7.29298C60.6222 7.20298 60.5231 7.13098 60.4091 7.07698C60.2951 7.02398 60.1731 6.99698 60.0391 6.99698H56.4345C56.6146 6.67598 56.8446 6.42298 57.1586 6.23598C57.4637 6.04898 57.8017 5.95498 58.1738 5.95498L60.0331 5.95398Z" fill="#1B1F22"/>
<path d="M71.5627 9.00398C71.4807 9.15898 71.3747 9.30098 71.2497 9.42798C71.1286 9.55698 70.9946 9.66598 70.8466 9.75698C70.7006 9.84998 70.5396 9.92198 70.3675 9.97098C70.1955 10.018 70.0135 10.047 69.8374 10.047H67.9612C67.6901 10.047 67.4401 9.99298 67.195 9.88498C66.959 9.78098 66.753 9.63298 66.576 9.44998C66.3959 9.26698 66.2539 9.04798 66.1499 8.79998C66.0459 8.55298 65.9949 8.28598 65.9949 7.99898C65.9949 7.71398 66.0459 7.44898 66.1499 7.20098C66.2539 6.95298 66.3949 6.73598 66.576 6.55198C66.75 6.36698 66.958 6.22198 67.195 6.11398C67.4261 6.00798 67.6871 5.95498 67.9612 5.95498H69.8354C70.2115 5.95498 70.5475 6.04898 70.8506 6.23598C71.1596 6.42298 71.3887 6.67798 71.5677 6.99698H67.9602C67.8281 6.99698 67.7051 7.02498 67.5911 7.07798C67.4871 7.13198 67.3781 7.20298 67.2921 7.29398C67.2031 7.38298 67.134 7.48898 67.085 7.60998C67.036 7.73398 67.01 7.86098 67.01 7.99898C67.01 8.13998 67.037 8.26998 67.087 8.39198C67.136 8.51198 67.205 8.61998 67.2941 8.71098C67.3801 8.80298 67.4821 8.87698 67.5941 8.92798C67.7081 8.98098 67.8291 9.00498 67.9642 9.00498L71.5627 9.00398ZM68.7353 7.99798C68.7353 7.91398 68.7513 7.83298 68.7843 7.75798C68.8143 7.68198 68.8583 7.61698 68.9143 7.55998C68.9713 7.50398 69.0343 7.45998 69.1043 7.42798C69.1703 7.39698 69.2504 7.37998 69.3334 7.37998H74.6412C74.8212 7.37998 74.9562 7.43998 75.0792 7.55998C75.1922 7.67998 75.2513 7.82498 75.2513 7.99698C75.2513 8.17698 75.1922 8.32398 75.0792 8.43798C74.9622 8.55098 74.8162 8.60898 74.6412 8.60898H69.3334C69.1653 8.60898 69.0233 8.54598 68.9063 8.43798C68.7953 8.32398 68.7353 8.17598 68.7353 7.99798ZM76.0224 5.95398C76.2934 5.95398 76.5434 6.00698 76.7925 6.11198C77.0295 6.21798 77.2406 6.36298 77.4176 6.54998C77.5986 6.73498 77.7426 6.95098 77.8446 7.19798C77.9487 7.44698 77.9997 7.71198 77.9997 7.99698C77.9997 8.28298 77.9487 8.55098 77.8456 8.79698C77.7416 9.04398 77.5996 9.26198 77.4206 9.44698C77.2395 9.63198 77.0285 9.77698 76.7925 9.88398C76.5534 9.99098 76.2974 10.043 76.0214 10.043H74.1601C73.9721 10.043 73.799 10.02 73.629 9.96898C73.451 9.92098 73.291 9.84798 73.1409 9.75598C72.9949 9.66498 72.8619 9.55498 72.7419 9.42798C72.6179 9.30098 72.5128 9.15798 72.4288 9.00298H76.0334C76.1664 9.00298 76.2904 8.97698 76.3974 8.92498C76.5074 8.86998 76.6115 8.79998 76.7005 8.70698C76.7865 8.61798 76.8495 8.50998 76.9055 8.38698C76.9575 8.26498 76.9755 8.13598 76.9755 7.99498C76.9755 7.85898 76.9545 7.72998 76.9055 7.60798C76.8495 7.48798 76.7865 7.38198 76.7005 7.29198C76.6115 7.20198 76.5124 7.12998 76.3914 7.07698C76.2844 7.02398 76.1624 6.99598 76.0274 6.99598H72.4228C72.5969 6.67498 72.8339 6.42198 73.1409 6.23498C73.453 6.04798 73.787 5.95398 74.1621 5.95398H76.0224Z" fill="#1B1F22"/>
</g>
<defs>
<clipPath id="clip0_19_274">
<rect width="80" height="16" fill="white"/>
</clipPath>
</defs>
</svg>
