<svg width="165" height="32" viewBox="0 0 165 32" fill="none" xmlns="http://www.w3.org/2000/svg">
<g clip-path="url(#clip0_19_326)">
<path d="M65.2959 2.32998L62.3309 0.307982C61.5129 -0.246018 60.3909 -0.0300183 59.8359 0.785982L45.3299 22.279L38.6609 15.58C37.9649 14.884 36.8269 14.884 36.1259 15.58L33.5989 18.129C32.9009 18.828 32.9009 19.975 33.5989 20.676L43.8489 30.981C44.4229 31.557 45.3239 32.002 46.1389 32.002C46.9519 32.002 47.7699 31.482 48.2939 30.719L65.7699 4.82898C66.3199 4.00798 66.1069 2.88698 65.2959 2.32998Z" fill="black"/>
<path opacity="0.25" d="M98.2959 2.32901L95.3309 0.307005C94.5119 -0.246995 93.3909 -0.0309949 92.8349 0.785005L78.3299 22.279L71.6619 15.58C70.9669 14.884 69.8279 14.884 69.1269 15.58L66.5999 18.127C65.9019 18.826 65.9019 19.975 66.5999 20.676L76.8499 30.979C77.4239 31.553 78.3229 32 79.1399 32C79.9509 32 80.7699 31.482 81.2949 30.719L98.7679 4.82901C99.3199 4.00801 99.1069 2.886 98.2959 2.32901Z" fill="black"/>
<path d="M32.296 2.32901L29.331 0.307005C28.513 -0.246995 27.391 -0.0309949 26.836 0.785005L12.33 22.279L5.66202 15.58C4.96702 14.884 3.82802 14.884 3.12702 15.58L0.600021 18.127C-0.0969795 18.826 -0.0969795 19.975 0.600021 20.676L10.852 30.979C11.425 31.553 12.325 32 13.142 32C13.953 32 14.772 31.482 15.297 30.719L32.77 4.82801C33.32 4.00801 33.107 2.886 32.296 2.32901Z" fill="black"/>
<path d="M164.293 2.32998L161.328 0.307982C160.51 -0.246018 159.389 -0.0300183 158.834 0.785982L144.327 22.279L137.659 15.582C136.963 14.886 135.826 14.886 135.125 15.582L132.6 18.131C131.901 18.83 131.901 19.979 132.6 20.68L142.85 30.981C143.423 31.557 144.329 32.002 145.139 32.002C145.952 32.002 146.772 31.484 147.294 30.723L164.77 4.82998C165.32 4.00798 165.107 2.88698 164.293 2.32998Z" fill="black"/>
<path d="M131.296 2.32998L128.33 0.307982C127.512 -0.246018 126.391 -0.0300183 125.835 0.785982L111.328 22.279L104.662 15.582C103.966 14.886 102.826 14.886 102.125 15.582L99.598 18.129C98.903 18.828 98.903 19.977 99.598 20.678L109.852 30.979C110.422 31.555 111.325 32 112.141 32C112.954 32 113.772 31.484 114.295 30.719L131.771 4.82998C132.32 4.00798 132.107 2.88698 131.296 2.32998Z" fill="black"/>
</g>
<defs>
<clipPath id="clip0_19_326">
<rect width="165" height="32" fill="white"/>
</clipPath>
</defs>
</svg>
