<svg width="400" height="24" viewBox="0 0 400 24" fill="none" xmlns="http://www.w3.org/2000/svg">
<path d="M66.399 9.06702L70.542 12.646L74.687 9.06702L75.543 10.059L70.542 14.374L65.543 10.059L66.399 9.06702Z" fill="black" fill-opacity="0.6"/>
<path opacity="0.25" d="M226.399 9L230.542 12.576L234.687 9L235.542 9.988L230.542 14.309L225.542 9.988L226.399 9Z" fill="black" fill-opacity="0.6"/>
<path d="M154.688 14.309L150.545 10.73L146.399 14.309L145.544 13.316L150.545 9L155.544 13.316L154.688 14.309Z" fill="black" fill-opacity="0.6"/>
<path d="M314.687 14.309L310.543 10.732L306.399 14.309L305.543 13.316L310.543 9L315.543 13.316L314.687 14.309Z" fill="black" fill-opacity="0.6"/>
<path opacity="0.75" d="M386.857 9L391 12.577L395.145 9L396 9.99L391 14.306L386 9.99L386.857 9Z" fill="black" fill-opacity="0.6"/>
</svg>
