<svg width="80" height="16" viewBox="0 0 80 16" fill="none" xmlns="http://www.w3.org/2000/svg">
<g clip-path="url(#clip0_19_278)">
<path d="M6.2045 11.871C6.07248 12.005 5.85444 12.005 5.72542 11.871L4.12818 10.281C4.00016 10.148 4.00017 9.93403 4.13218 9.80003L9.21595 4.71903C9.35597 4.58703 9.57 4.58703 9.69802 4.71903L11.2853 6.30803C11.4193 6.44203 11.4193 6.65903 11.2853 6.79003L6.2045 11.871ZM12.5344 3.47203C11.6283 2.56503 10.7312 3.26403 10.7312 3.26403C10.5832 3.37903 10.3541 3.58003 10.2231 3.70903C10.0861 3.84003 10.0961 4.05603 10.2271 4.18803L11.8173 5.77703C11.9514 5.91103 12.1674 5.91303 12.2964 5.78203C12.4254 5.65203 12.6265 5.42303 12.7415 5.27503C12.7445 5.27503 13.4426 4.38003 12.5344 3.47203ZM4.32421 12.716C4.50724 12.672 4.54725 12.526 4.41423 12.395L3.5981 11.58C3.45908 11.447 3.32006 11.488 3.27506 11.67L3.01002 12.734C2.95901 12.917 3.07303 13.027 3.25405 12.982L4.32421 12.716Z" fill="white"/>
<path d="M22.2073 11.871C22.0753 12.005 21.8563 12.005 21.7282 11.871L20.131 10.281C20.003 10.148 20.003 9.93402 20.135 9.80002L25.2188 4.71902C25.3588 4.58702 25.5728 4.58702 25.7008 4.71902L27.2881 6.30802C27.4221 6.44202 27.4221 6.65902 27.2881 6.79002L22.2073 11.871ZM28.5373 3.47203C27.6311 2.56503 26.734 3.26403 26.734 3.26403C26.586 3.37903 26.3569 3.58003 26.2259 3.70903C26.0889 3.84003 26.0989 4.05603 26.2299 4.18803L27.8201 5.77702C27.9542 5.91102 28.1702 5.91302 28.2992 5.78203C28.4282 5.65202 28.6293 5.42303 28.7443 5.27503C28.7473 5.27503 29.4454 4.38002 28.5373 3.47203ZM20.327 12.716C20.51 12.672 20.5501 12.526 20.417 12.395L19.6029 11.582C19.4639 11.45 19.3259 11.489 19.2809 11.672L19.0128 12.735C18.9618 12.923 19.0758 13.028 19.2569 12.983L20.327 12.716Z" fill="white"/>
<path d="M38.2097 11.871C38.0777 12.005 37.8586 12.005 37.7306 11.871L36.1334 10.281C36.0054 10.148 36.0054 9.93402 36.1374 9.80002L41.2212 4.71902C41.3612 4.58702 41.5752 4.58702 41.7032 4.71902L43.2905 6.30802C43.4245 6.44202 43.4245 6.65902 43.2905 6.79002L38.2097 11.871ZM44.5397 3.47203C43.6335 2.56503 42.7364 3.26403 42.7364 3.26403C42.5884 3.37903 42.3593 3.58003 42.2283 3.70903C42.0913 3.84003 42.1013 4.05603 42.2323 4.18803L43.8225 5.77702C43.9566 5.91102 44.1726 5.91302 44.3016 5.78203C44.4306 5.65202 44.6317 5.42303 44.7467 5.27503C44.7497 5.27503 45.4478 4.38002 44.5397 3.47203ZM36.3294 12.716C36.5124 12.672 36.5525 12.526 36.4194 12.395L35.6053 11.582C35.4663 11.45 35.3283 11.489 35.2833 11.672L35.0162 12.735C34.9642 12.923 35.0792 13.028 35.2593 12.983L36.3294 12.716Z" fill="#878586"/>
<path d="M54.2121 11.871C54.0801 12.005 53.8611 12.005 53.7331 11.871L52.1358 10.281C52.0078 10.148 52.0078 9.93402 52.1398 9.80002L57.2236 4.71902C57.3636 4.58702 57.5776 4.58702 57.7057 4.71902L59.2929 6.30802C59.4269 6.44202 59.4269 6.65902 59.2929 6.79002L54.2121 11.871ZM60.5421 3.47203C59.636 2.56503 58.7388 3.26403 58.7388 3.26403C58.5908 3.37903 58.3618 3.58003 58.2307 3.70903C58.0937 3.84003 58.1037 4.05603 58.2347 4.18803L59.825 5.77702C59.959 5.91102 60.175 5.91302 60.3041 5.78203C60.4331 5.65202 60.6341 5.42303 60.7491 5.27503C60.7521 5.27503 61.4502 4.38002 60.5421 3.47203ZM52.3319 12.716C52.5149 12.672 52.5549 12.526 52.4219 12.395L51.6077 11.582C51.4687 11.45 51.3307 11.489 51.2857 11.672L51.0187 12.735C50.9667 12.923 51.0817 13.028 51.2617 12.983L52.3319 12.716Z" fill="white"/>
<path d="M70.2036 11.871C70.0715 12.005 69.8495 12.005 69.7225 11.871L68.1323 10.281C67.9992 10.148 67.9992 9.93302 68.1313 9.80002L73.215 4.71902C73.348 4.58702 73.5691 4.58702 73.6971 4.71902L75.2843 6.30802C75.4184 6.44202 75.4184 6.65902 75.2843 6.79002L70.2036 11.871ZM76.5335 3.47203C75.6274 2.56503 74.7303 3.26403 74.7303 3.26403C74.5822 3.37903 74.3462 3.58003 74.2152 3.70903C74.0852 3.84003 74.0882 4.05603 74.2192 4.18803L75.8164 5.77702C75.9504 5.91102 76.1665 5.91302 76.2955 5.78203C76.4245 5.65202 76.6255 5.42303 76.7405 5.27503C76.7435 5.27503 77.4427 4.38002 76.5335 3.47203ZM68.3233 12.716C68.5063 12.672 68.5463 12.526 68.4133 12.395L67.5972 11.582C67.4652 11.45 67.3261 11.489 67.2821 11.672L67.0101 12.734C66.9641 12.922 67.0761 13.027 67.2591 12.982L68.3233 12.716Z" fill="white"/>
</g>
<defs>
<clipPath id="clip0_19_278">
<rect width="80" height="16" fill="white"/>
</clipPath>
</defs>
</svg>
