<svg width="120" height="32" viewBox="0 0 120 32" fill="none" xmlns="http://www.w3.org/2000/svg">
<g clip-path="url(#clip0_19_317)">
<path d="M22.573 6.806L1.88097 6.794C0.968966 6.794 0.227966 6.039 0.230966 5.108C0.230966 4.177 0.970966 3.423 1.88497 3.423L22.574 3.444C23.487 3.444 24.231 4.195 24.231 5.13C24.225 6.058 23.486 6.806 22.573 6.806Z" fill="black"/>
<path d="M14.509 2.266H14.504L9.94602 2.25C9.34002 2.25 8.84302 1.741 8.84302 1.12C8.85102 0.5 9.28302 0.006 9.95602 0L14.51 0.016C15.117 0.016 15.617 0.525 15.617 1.146C15.608 1.763 15.115 2.266 14.509 2.266Z" fill="black"/>
<path d="M22.573 8.409H2.05103L2.17903 10.758C2.17903 10.825 2.16803 10.886 2.17103 10.956L3.07003 29.453C3.14003 30.855 4.32003 32 5.69703 32H18.927C20.303 32 21.482 30.855 21.555 29.453L22.45 10.956C22.457 10.889 22.441 10.828 22.438 10.761L22.573 8.409ZM6.84103 29.475C6.82803 29.475 6.81303 29.479 6.80003 29.479C6.19903 29.479 5.69703 29 5.68003 28.375L5.09403 12.349C5.07403 11.719 5.55503 11.188 6.17603 11.166C6.77403 11.155 7.31703 11.632 7.34203 12.266L7.92503 28.291C7.94703 28.919 7.46403 29.453 6.84103 29.475ZM13.322 28.338C13.322 28.953 12.828 29.463 12.218 29.463C11.609 29.456 11.116 28.956 11.116 28.331L11.133 12.308C11.133 11.686 11.624 11.185 12.236 11.185C12.844 11.185 13.338 11.686 13.338 12.311L13.322 28.338ZM18.76 28.378C18.736 28.994 18.239 29.479 17.645 29.479C17.623 29.479 17.614 29.475 17.593 29.475C16.974 29.454 16.489 28.919 16.514 28.287L17.133 12.263C17.158 11.632 17.667 11.136 18.305 11.166C18.918 11.191 19.406 11.722 19.378 12.352L18.76 28.378Z" fill="black"/>
<path d="M46.574 6.806L25.883 6.794C24.969 6.794 24.228 6.039 24.231 5.108C24.231 4.177 24.972 3.423 25.885 3.423L46.574 3.444C47.487 3.444 48.231 4.195 48.231 5.13C48.226 6.058 47.487 6.806 46.574 6.806Z" fill="black"/>
<path d="M38.51 2.266H38.504L33.947 2.25C33.341 2.25 32.844 1.741 32.844 1.12C32.853 0.5 33.285 0.006 33.958 0L38.513 0.016C39.12 0.016 39.619 0.525 39.619 1.146C39.61 1.763 39.116 2.266 38.51 2.266Z" fill="black"/>
<path d="M46.574 8.409H26.053L26.184 10.758C26.184 10.825 26.17 10.886 26.173 10.956L27.071 29.453C27.14 30.855 28.321 32 29.701 32H42.928C44.305 32 45.483 30.855 45.556 29.453L46.451 10.956C46.46 10.889 46.442 10.828 46.439 10.761L46.574 8.409ZM30.844 29.475C30.828 29.475 30.814 29.479 30.803 29.479C30.2 29.479 29.701 29 29.68 28.375L29.095 12.349C29.074 11.719 29.556 11.188 30.177 11.166C30.775 11.155 31.318 11.632 31.343 12.266L31.926 28.291C31.949 28.919 31.466 29.453 30.844 29.475ZM37.323 28.338C37.323 28.953 36.829 29.463 36.218 29.463C35.61 29.456 35.116 28.956 35.116 28.331L35.137 12.308C35.137 11.686 35.628 11.185 36.237 11.185C36.845 11.185 37.339 11.686 37.339 12.311L37.323 28.338ZM42.76 28.378C42.736 28.994 42.239 29.479 41.645 29.479C41.623 29.479 41.614 29.475 41.595 29.475C40.974 29.454 40.491 28.919 40.514 28.287L41.134 12.263C41.159 11.632 41.668 11.136 42.306 11.166C42.919 11.191 43.407 11.722 43.379 12.352L42.76 28.378Z" fill="black"/>
<g opacity="0.25">
<path d="M70.574 6.806L49.883 6.794C48.969 6.794 48.228 6.039 48.231 5.108C48.231 4.177 48.972 3.423 49.885 3.423L70.576 3.444C71.486 3.444 72.23 4.195 72.23 5.13C72.225 6.058 71.486 6.806 70.574 6.806Z" fill="black"/>
<path d="M62.5089 2.266H62.5029L57.9489 2.25C57.3409 2.25 56.8459 1.741 56.8459 1.12C56.8529 0.5 57.2849 0.006 57.9579 0L62.5119 0.016C63.1179 0.016 63.6179 0.525 63.6179 1.146C63.6069 1.763 63.1149 2.266 62.5089 2.266Z" fill="black"/>
<path d="M70.574 8.409H50.053L50.184 10.758C50.184 10.825 50.17 10.886 50.173 10.956L51.071 29.453C51.14 30.855 52.322 32 53.701 32H66.928C68.305 32 69.485 30.855 69.559 29.453L70.455 10.956C70.463 10.889 70.443 10.828 70.439 10.761L70.574 8.409ZM54.844 29.475C54.828 29.475 54.814 29.479 54.803 29.479C54.2 29.479 53.701 29 53.68 28.375L53.094 12.349C53.073 11.719 53.555 11.188 54.176 11.166C54.774 11.155 55.317 11.632 55.342 12.266L55.925 28.291C55.949 28.919 55.465 29.453 54.844 29.475ZM61.322 28.338C61.322 28.953 60.83 29.463 60.217 29.463C59.609 29.456 59.115 28.956 59.115 28.331L59.136 12.308C59.136 11.686 59.627 11.185 60.238 11.185C60.844 11.185 61.338 11.686 61.338 12.311L61.322 28.338ZM66.76 28.378C66.739 28.994 66.239 29.479 65.645 29.479C65.624 29.479 65.614 29.475 65.594 29.475C64.975 29.454 64.49 28.919 64.514 28.287L65.132 12.263C65.156 11.632 65.665 11.136 66.305 11.166C66.917 11.191 67.409 11.722 67.376 12.352L66.76 28.378Z" fill="black"/>
</g>
<path d="M94.572 6.806L73.883 6.794C72.969 6.794 72.229 6.039 72.231 5.108C72.231 4.177 72.973 3.423 73.885 3.423L94.573 3.444C95.486 3.444 96.228 4.195 96.228 5.13C96.225 6.058 95.486 6.806 94.572 6.806Z" fill="black"/>
<path d="M86.51 2.266H86.503L81.947 2.25C81.34 2.25 80.845 1.741 80.845 1.12C80.852 0.5 81.283 0.006 81.955 0L86.512 0.016C87.117 0.016 87.617 0.525 87.617 1.146C87.607 1.763 87.115 2.266 86.51 2.266Z" fill="black"/>
<path d="M94.572 8.409H74.052L74.184 10.758C74.184 10.825 74.164 10.886 74.168 10.956L75.064 29.453C75.141 30.855 76.32 32 77.701 32H90.93C92.307 32 93.485 30.855 93.559 29.453L94.455 10.956C94.463 10.889 94.443 10.828 94.439 10.761L94.572 8.409ZM78.844 29.475C78.827 29.475 78.815 29.479 78.803 29.479C78.2 29.479 77.7 29 77.68 28.375L77.094 12.349C77.073 11.719 77.555 11.188 78.175 11.166C78.774 11.155 79.317 11.632 79.341 12.266L79.925 28.291C79.947 28.919 79.464 29.453 78.844 29.475ZM85.322 28.338C85.322 28.953 84.83 29.463 84.217 29.463C83.612 29.456 83.115 28.956 83.115 28.331L83.136 12.308C83.136 11.686 83.621 11.185 84.238 11.185C84.842 11.185 85.34 11.686 85.34 12.311L85.322 28.338ZM90.759 28.378C90.738 28.994 90.238 29.479 89.645 29.479C89.624 29.479 89.614 29.475 89.594 29.475C88.975 29.454 88.49 28.919 88.514 28.287L89.132 12.263C89.156 11.632 89.665 11.136 90.305 11.166C90.917 11.191 91.409 11.722 91.376 12.352L90.759 28.378Z" fill="black"/>
<path d="M118.574 6.806L97.88 6.794C96.966 6.794 96.227 6.039 96.231 5.108C96.231 4.177 96.971 3.423 97.882 3.423L118.572 3.444C119.484 3.444 120.228 4.195 120.228 5.13C120.223 6.058 119.484 6.806 118.574 6.806Z" fill="black"/>
<path d="M110.509 2.266H110.503L105.943 2.25C105.337 2.25 104.839 1.741 104.839 1.12C104.848 0.5 105.277 0.006 105.95 0L110.505 0.016C111.111 0.016 111.609 0.525 111.609 1.146C111.607 1.763 111.113 2.266 110.509 2.266Z" fill="black"/>
<path d="M118.574 8.409H98.054L98.183 10.758C98.183 10.825 98.164 10.886 98.17 10.956L99.066 29.453C99.136 30.855 100.316 32 101.699 32H114.927C116.305 32 117.483 30.855 117.559 29.453L118.455 10.956C118.461 10.889 118.438 10.828 118.434 10.761L118.574 8.409ZM102.844 29.475C102.827 29.475 102.815 29.479 102.803 29.479C102.199 29.479 101.7 29 101.68 28.375L101.094 12.349C101.073 11.719 101.555 11.188 102.175 11.166C102.774 11.155 103.317 11.632 103.341 12.266L103.925 28.291C103.947 28.919 103.462 29.453 102.844 29.475ZM109.32 28.338C109.32 28.953 108.828 29.463 108.216 29.463C107.61 29.456 107.112 28.956 107.112 28.331L107.133 12.308C107.133 11.686 107.622 11.185 108.235 11.185C108.844 11.185 109.339 11.686 109.339 12.311L109.32 28.338ZM114.757 28.378C114.736 28.994 114.236 29.479 113.643 29.479C113.622 29.479 113.614 29.475 113.594 29.475C112.975 29.454 112.489 28.919 112.512 28.287L113.13 12.263C113.154 11.632 113.665 11.136 114.303 11.166C114.915 11.191 115.405 11.722 115.376 12.352L114.757 28.378Z" fill="black"/>
</g>
<defs>
<clipPath id="clip0_19_317">
<rect width="120" height="32" fill="white"/>
</clipPath>
</defs>
</svg>
