<svg width="120" height="24" viewBox="0 0 120 24" fill="none" xmlns="http://www.w3.org/2000/svg">
<g clip-path="url(#clip0_19_315)">
<path opacity="0.15" d="M36.0061 23.998C42.6324 23.998 48.0041 18.6263 48.0041 12C48.0041 5.37369 42.6324 0.0019989 36.0061 0.0019989C29.3797 0.0019989 24.0081 5.37369 24.0081 12C24.0081 18.6263 29.3797 23.998 36.0061 23.998Z" fill="black" fill-opacity="0.6"/>
<path d="M15.17 5.699L10.163 11.499L15.17 17.302L13.783 18.5L7.73901 11.499L13.783 4.5L15.17 5.699Z" fill="black" fill-opacity="0.6"/>
<path d="M39.17 5.699L34.163 11.499L39.17 17.302L37.783 18.5L31.739 11.499L37.783 4.5L39.17 5.699Z" fill="black" fill-opacity="0.6"/>
<path opacity="0.25" d="M63.171 5.699L58.163 11.499L63.171 17.302L61.783 18.5L55.739 11.499L61.783 4.5L63.171 5.699Z" fill="black" fill-opacity="0.6"/>
<path d="M86.963 5.699L81.955 11.499L86.963 17.302L85.575 18.5L79.531 11.499L85.575 4.5L86.963 5.699Z" fill="black" fill-opacity="0.6"/>
<path d="M110.963 5.699L105.955 11.499L110.963 17.302L109.575 18.5L103.531 11.499L109.575 4.5L110.963 5.699Z" fill="black" fill-opacity="0.6"/>
</g>
<defs>
<clipPath id="clip0_19_315">
<rect width="120" height="24" fill="white"/>
</clipPath>
</defs>
</svg>
