<svg width="80" height="16" viewBox="0 0 80 16" fill="none" xmlns="http://www.w3.org/2000/svg">
<g clip-path="url(#clip0_19_275)">
<path d="M4.436 3.71399H3V5.14299H4.436V3.71399Z" fill="#1B1F22"/>
<path d="M13.0011 3.71399H5.85706V5.14299H13.0011V3.71399Z" fill="#1B1F22"/>
<path d="M13.0011 7.28497H5.85706V8.71397H13.0011V7.28497Z" fill="#1B1F22"/>
<path d="M13.0011 10.855H5.85706V12.284H13.0011V10.855Z" fill="#1B1F22"/>
<path d="M4.436 7.28497H3V8.71397H4.436V7.28497Z" fill="#1B1F22"/>
<path d="M4.436 10.855H3V12.284H4.436V10.855Z" fill="#1B1F22"/>
<path d="M20.4398 3.71399H19.0028V5.14299H20.4398V3.71399Z" fill="#1B1F22"/>
<path d="M29.0039 3.71399H21.8599V5.14299H29.0039V3.71399Z" fill="#1B1F22"/>
<path d="M29.0039 7.28497H21.8599V8.71397H29.0039V7.28497Z" fill="#1B1F22"/>
<path d="M29.0039 10.855H21.8599V12.284H29.0039V10.855Z" fill="#1B1F22"/>
<path d="M20.4398 7.28497H19.0028V8.71397H20.4398V7.28497Z" fill="#1B1F22"/>
<path d="M20.4398 10.855H19.0028V12.284H20.4398V10.855Z" fill="#1B1F22"/>
<path d="M36.4422 3.71399H35.0052V5.14299H36.4422V3.71399Z" fill="#878586"/>
<path d="M45.0064 3.71399H37.8623V5.14299H45.0064V3.71399Z" fill="#878586"/>
<path d="M45.0064 7.28497H37.8623V8.71397H45.0064V7.28497Z" fill="#878586"/>
<path d="M45.0064 10.855H37.8623V12.284H45.0064V10.855Z" fill="#878586"/>
<path d="M36.4422 7.28497H35.0052V8.71397H36.4422V7.28497Z" fill="#878586"/>
<path d="M36.4422 10.855H35.0052V12.284H36.4422V10.855Z" fill="#878586"/>
<path d="M52.4446 3.71399H51.0076V5.14299H52.4446V3.71399Z" fill="#1B1F22"/>
<path d="M61.0087 3.71399H53.8646V5.14299H61.0087V3.71399Z" fill="#1B1F22"/>
<path d="M61.0087 7.28497H53.8646V8.71397H61.0087V7.28497Z" fill="#1B1F22"/>
<path d="M61.0087 10.855H53.8646V12.284H61.0087V10.855Z" fill="#1B1F22"/>
<path d="M52.4446 7.28497H51.0076V8.71397H52.4446V7.28497Z" fill="#1B1F22"/>
<path d="M52.4446 10.855H51.0076V12.284H52.4446V10.855Z" fill="#1B1F22"/>
<path d="M68.428 3.71399H66.998V5.14299H68.428V3.71399Z" fill="#1B1F22"/>
<path d="M77.0002 3.71399H69.8561V5.14299H77.0002V3.71399Z" fill="#1B1F22"/>
<path d="M77.0002 7.28497H69.8561V8.71397H77.0002V7.28497Z" fill="#1B1F22"/>
<path d="M77.0002 10.855H69.8561V12.284H77.0002V10.855Z" fill="#1B1F22"/>
<path d="M68.428 7.28497H66.998V8.71397H68.428V7.28497Z" fill="#1B1F22"/>
<path d="M68.428 10.855H66.998V12.284H68.428V10.855Z" fill="#1B1F22"/>
</g>
<defs>
<clipPath id="clip0_19_275">
<rect width="80" height="16" fill="white"/>
</clipPath>
</defs>
</svg>
