<svg width="33" height="53" viewBox="0 0 33 53" fill="none" xmlns="http://www.w3.org/2000/svg">
<path d="M3.84496 39.191L3.12796 38.495L6.78796 34.738L2.90796 30.753L3.62496 30.057L8.18396 34.738L3.84496 39.191Z" fill="black" fill-opacity="0.6"/>
<g opacity="0.75">
<path d="M14.969 39.191L14.252 38.495L17.911 34.738L14.032 30.753L14.749 30.057L19.309 34.738L14.969 39.191Z" fill="black" fill-opacity="0.6"/>
</g>
<path d="M25.971 39.191L25.253 38.495L28.911 34.738L25.032 30.753L25.749 30.057L30.309 34.738L25.971 39.191Z" fill="black" fill-opacity="0.6"/>
<path d="M0 43H10L5.88235 47.6667V51L4.11765 53V47.6667L0 43Z" fill="black"/>
<g opacity="0.75">
<path d="M11 43H21L16.8824 47.6667V51L15.1176 53V47.6667L11 43Z" fill="black"/>
</g>
<path d="M22 43H32L27.8824 47.6667V51L26.1176 53V47.6667L22 43Z" fill="black"/>
<path d="M0.771697 26.5194L1.479 27.2277L4.52734 24.1836L3.82004 23.4753L0.771697 26.5194Z" fill="black" fill-opacity="0.6"/>
<path d="M6.5 19.001C7.878 19.001 9 20.122 9 21.501C9 22.88 7.879 24 6.5 24C5.121 24 4 22.879 4 21.5C4 20.121 5.122 19.001 6.5 19.001ZM6.5 18.001C4.567 18.001 3 19.568 3 21.501C3 23.434 4.568 25 6.5 25C8.432 25 10 23.433 10 21.5C10 19.567 8.433 18.001 6.5 18.001Z" fill="black" fill-opacity="0.6"/>
<g opacity="0.75">
<path d="M11.773 26.5222L12.4801 27.2293L15.527 24.1824L14.8199 23.4753L11.773 26.5222Z" fill="black" fill-opacity="0.6"/>
<path d="M17.5 19.001C18.879 19.001 20 20.122 20 21.501C20 22.88 18.879 24 17.5 24C16.122 24 15.001 22.879 15.001 21.5C15.001 20.121 16.122 19.001 17.5 19.001ZM17.5 18.001C15.568 18.001 14.001 19.568 14.001 21.501C14.001 23.434 15.568 25 17.5 25C19.434 25 21 23.433 21 21.5C21 19.567 19.434 18.001 17.5 18.001Z" fill="black" fill-opacity="0.6"/>
</g>
<path d="M22.7706 26.5225L23.4777 27.2296L26.5238 24.1834L25.8167 23.4763L22.7706 26.5225Z" fill="black" fill-opacity="0.6"/>
<path d="M28.498 19.001C29.877 19.001 30.998 20.122 30.998 21.501C30.998 22.88 29.877 24.001 28.498 24.001C27.12 24.001 25.999 22.88 25.999 21.501C25.999 20.122 27.12 19.001 28.498 19.001ZM28.498 18.001C26.566 18.001 24.999 19.568 24.999 21.501C24.999 23.434 26.566 25.001 28.498 25.001C30.432 25.001 31.998 23.434 31.998 21.501C31.998 19.568 30.432 18.001 28.498 18.001Z" fill="black" fill-opacity="0.6"/>
<path d="M1.05395 9.98602L0.00195312 11.122L4.50195 15.986L9.00195 11.122L7.95295 9.98602L4.50195 13.717L1.05395 9.98602Z" fill="black" fill-opacity="0.6"/>
<g opacity="0.75">
<path d="M19.945 15.986L21 14.851L16.498 9.98602L12 14.851L13.047 15.986L16.498 12.255L19.945 15.986Z" fill="black" fill-opacity="0.6"/>
</g>
<path d="M24.051 9.98602L22.998 11.122L27.498 15.986L31.998 11.122L30.947 9.98602L27.498 13.717L24.051 9.98602Z" fill="black" fill-opacity="0.6"/>
<path d="M26.0001 8L24.2694 5.10495L27.7308 5.10495L26.0001 8Z" fill="black"/>
<path d="M26 1L27.7308 3.89505L24.2693 3.89505L26 1Z" fill="black"/>
<g opacity="0.75">
<path d="M15.0001 8L13.2694 5.10495L16.7308 5.10495L15.0001 8Z" fill="black"/>
<path d="M15 1L16.7308 3.89505L13.2693 3.89505L15 1Z" fill="black"/>
</g>
<path d="M4.00008 8L2.26936 5.10495L5.73079 5.10495L4.00008 8Z" fill="black"/>
<path d="M4.00004 1L5.73076 3.89505L2.26933 3.89505L4.00004 1Z" fill="black"/>
</svg>
