<svg width="80" height="16" viewBox="0 0 80 16" fill="none" xmlns="http://www.w3.org/2000/svg">
<g clip-path="url(#clip0_19_217)">
<path d="M7.07205 9.62L4.30164 6.684V9.07L8.00819 13L11.6967 9.089V6.702L8.94433 9.62V3H7.07205V9.62Z" fill="#1B1F22"/>
<path d="M23.0735 9.62L20.3041 6.684V9.07L24.0106 13L27.6992 9.089V6.702L24.9468 9.62V3H23.0735V9.62Z" fill="#1B1F22"/>
<path d="M39.0758 9.62L36.3064 6.684V9.07L40.013 13L43.7015 9.089V6.702L40.9491 9.62V3H39.0758V9.62Z" fill="#878586"/>
<path d="M55.0783 9.62L52.3088 6.684V9.07L56.0154 13L59.7039 9.089V6.702L56.9515 9.62V3H55.0783V9.62Z" fill="#1B1F22"/>
<path d="M71.3737 9.62L68.6042 6.684V9.07L72.3108 13L75.9994 9.089V6.702L73.2469 9.62V3H71.3737V9.62Z" fill="#1B1F22"/>
</g>
<defs>
<clipPath id="clip0_19_217">
<rect width="80" height="16" fill="white"/>
</clipPath>
</defs>
</svg>
