<svg width="80" height="16" viewBox="0 0 80 16" fill="none" xmlns="http://www.w3.org/2000/svg">
<g clip-path="url(#clip0_19_277)">
<path d="M2.17603 13.729C2.19703 13.733 2.21703 13.735 2.23903 13.749C2.25904 13.752 2.28304 13.754 2.31105 13.754C2.33305 13.754 2.37305 13.754 2.40606 13.754C2.46507 13.754 2.52608 13.749 2.59409 13.733C2.6571 13.723 2.72611 13.712 2.78212 13.677C2.84613 13.65 2.90013 13.611 2.95014 13.564C3.00115 13.517 3.03715 13.456 3.06016 13.376C3.08116 13.292 3.11017 13.175 3.12317 13.025C3.14417 12.879 3.16617 12.72 3.19518 12.546C3.22618 12.376 3.26719 12.203 3.3202 12.026C3.3722 11.85 3.44422 11.69 3.53923 11.547C3.64325 11.402 3.75526 11.285 3.89828 11.193C4.04331 11.101 4.22233 11.058 4.43136 11.058C4.6684 11.058 4.86943 11.095 5.03545 11.174C5.19848 11.246 5.3325 11.351 5.43351 11.456C5.53653 11.567 5.60854 11.685 5.64955 11.81C5.69255 11.935 5.71256 12.039 5.71256 12.124C5.71256 12.17 5.71156 12.194 5.70555 12.211C5.68555 12.315 5.65455 12.429 5.61054 12.54C5.56553 12.656 5.47552 12.779 5.3395 12.91C5.20248 13.048 5.00345 13.181 4.73841 13.329C4.47437 13.475 4.11732 13.636 3.66425 13.802C3.47422 13.867 3.29919 13.92 3.15017 13.948C3.01515 13.986 2.88613 14 2.77512 14C2.6471 14 2.54608 13.986 2.46207 13.96C2.39106 13.932 2.32305 13.902 2.28004 13.867C2.23503 13.824 2.19903 13.777 2.17603 13.729ZM9.66115 4.941C9.66115 5.082 9.70215 5.212 9.78617 5.329C9.87118 5.447 9.97519 5.532 10.1002 5.586C9.82917 5.817 9.55713 6.05 9.28209 6.284C9.01005 6.519 8.74101 6.748 8.48497 6.974C8.22693 7.198 7.9839 7.413 7.75186 7.617C7.52183 7.819 7.3158 8.005 7.13077 8.169C7.01575 8.277 6.90473 8.38 6.79772 8.481C6.6917 8.579 6.58969 8.678 6.48967 8.775C6.33265 8.705 6.15162 8.67 5.95259 8.67C5.70355 8.67 5.44752 8.731 5.18548 8.852C5.07146 8.902 4.95444 8.943 4.83742 8.969C4.72041 8.994 4.60339 9.006 4.48837 9.006C4.36535 9.006 4.24734 8.994 4.13432 8.969C4.0213 8.943 3.90728 8.91 3.79627 8.867C3.78427 8.855 3.77126 8.852 3.75526 8.852C3.73626 8.84 3.71826 8.828 3.69525 8.816C3.67425 8.806 3.65425 8.795 3.63224 8.785C3.39221 8.663 3.19018 8.498 3.02715 8.291C2.86313 8.083 2.75611 7.848 2.7051 7.582C2.7011 7.54 2.6951 7.497 2.6861 7.452C2.6741 7.407 2.6701 7.362 2.6701 7.316C2.6701 6.828 2.73311 6.358 2.86213 5.903C2.99215 5.45 3.17417 5.027 3.40821 4.631C3.64425 4.238 3.92929 3.88 4.25834 3.557C4.58839 3.232 4.95544 2.956 5.3625 2.726C5.75856 2.496 6.19663 2.317 6.6567 2.189C7.11277 2.064 7.59384 2 8.09291 2C8.50497 2 8.90603 2.042 9.29009 2.125C9.67715 2.21 10.0422 2.332 10.3943 2.492C10.7413 2.651 11.0704 2.844 11.3734 3.072C11.6834 3.297 11.9545 3.551 12.2045 3.833C12.0585 3.959 11.8965 4.097 11.7255 4.244C11.5424 4.39 11.3604 4.544 11.1624 4.704C11.1094 4.569 11.0194 4.457 10.8913 4.368C10.7653 4.276 10.6183 4.232 10.4483 4.232C10.3402 4.232 10.2392 4.251 10.1442 4.29C10.0442 4.329 9.96019 4.379 9.89418 4.443C9.82017 4.504 9.76416 4.58 9.72416 4.667C9.68015 4.753 9.66115 4.844 9.66115 4.941ZM4.84043 7.984C4.99445 7.984 5.14647 7.957 5.27849 7.901C5.41551 7.844 5.53353 7.772 5.63254 7.677C5.73656 7.582 5.82057 7.473 5.87458 7.345C5.93759 7.22 5.96459 7.083 5.96459 6.942C5.96459 6.799 5.94159 6.665 5.87558 6.536C5.81657 6.406 5.73456 6.295 5.63454 6.2C5.53453 6.105 5.41351 6.031 5.28049 5.976C5.13847 5.92 4.99445 5.892 4.84043 5.892C4.6944 5.892 4.54138 5.921 4.40436 5.976C4.26834 6.031 4.14832 6.106 4.04731 6.2C3.94529 6.296 3.86528 6.406 3.80427 6.535C3.74626 6.663 3.71526 6.8 3.71526 6.94C3.71526 7.081 3.74426 7.218 3.81227 7.343C3.87228 7.471 3.95229 7.581 4.04731 7.676C4.14832 7.771 4.27034 7.845 4.40436 7.901C4.54138 7.957 4.6864 7.984 4.84043 7.984ZM13.7748 4.034C13.0787 4.761 12.3996 5.462 11.7465 6.141C11.4674 6.429 11.1734 6.724 10.8753 7.031C10.5753 7.337 10.2802 7.634 9.9892 7.925C9.69615 8.216 9.42011 8.491 9.15107 8.75C8.88403 9.009 8.64299 9.238 8.43396 9.439C8.0209 9.818 7.66285 10.138 7.3728 10.398C7.08176 10.658 6.84873 10.869 6.6477 11.031C6.45767 11.189 6.31065 11.304 6.20963 11.375C6.10962 11.445 6.04361 11.48 6.0216 11.48H6.0116L5.25049 10.775C5.24749 10.769 5.24449 10.767 5.24449 10.755C5.24449 10.734 5.28349 10.668 5.3605 10.574C5.43651 10.473 5.56153 10.345 5.73556 10.171C5.91259 10 6.13862 9.773 6.42066 9.504C6.7007 9.232 7.04576 8.91 7.45182 8.531C7.66485 8.332 7.90988 8.11 8.19093 7.865C8.47197 7.619 8.77001 7.36 9.08106 7.092C9.39511 6.823 9.71816 6.549 10.0462 6.27C10.3723 5.991 10.6933 5.72 11.0053 5.459C11.7345 4.853 12.4896 4.223 13.2777 3.575C13.3177 3.543 13.3547 3.529 13.3997 3.529C13.4397 3.529 13.4757 3.545 13.5037 3.575L13.7748 3.817C13.8088 3.852 13.8288 3.891 13.8288 3.932C13.8268 3.974 13.8078 4.009 13.7748 4.034ZM7.15777 4.999C7.28579 4.999 7.40381 4.976 7.51383 4.933C7.62084 4.889 7.71586 4.829 7.79587 4.752C7.87888 4.675 7.94289 4.583 7.9909 4.48C8.0389 4.376 8.06291 4.263 8.06291 4.14C8.06291 4.02 8.0389 3.911 7.9909 3.809C7.94289 3.706 7.87888 3.619 7.79787 3.543C7.71786 3.468 7.62284 3.407 7.52083 3.365C7.40581 3.319 7.28879 3.297 7.16077 3.297C7.03475 3.297 6.91374 3.319 6.80072 3.363C6.6847 3.406 6.58669 3.468 6.50367 3.542C6.42166 3.617 6.35465 3.705 6.30364 3.807C6.25464 3.909 6.23063 4.02 6.23063 4.14C6.23063 4.263 6.25164 4.376 6.30464 4.48C6.35565 4.584 6.42066 4.675 6.50267 4.752C6.58669 4.828 6.6907 4.889 6.79772 4.933C6.91074 4.976 7.03075 4.999 7.15777 4.999Z" fill="#1B1F22"/>
<path d="M34.1812 13.729C34.2022 13.733 34.2202 13.735 34.2442 13.749C34.2642 13.752 34.2872 13.754 34.3162 13.754C34.3392 13.754 34.3792 13.754 34.4112 13.754C34.4712 13.754 34.5312 13.749 34.5992 13.733C34.6622 13.723 34.7302 13.712 34.7872 13.677C34.8503 13.653 34.9053 13.614 34.9553 13.567C35.0063 13.52 35.0423 13.46 35.0663 13.379C35.0873 13.295 35.1163 13.178 35.1293 13.026C35.1503 12.88 35.1713 12.721 35.2003 12.549C35.2313 12.379 35.2723 12.206 35.3253 12.031C35.3773 11.855 35.4493 11.695 35.5454 11.552C35.6474 11.408 35.7584 11.29 35.9024 11.199C36.0464 11.107 36.2265 11.064 36.4335 11.064C36.6725 11.064 36.8716 11.101 37.0376 11.181C37.2006 11.251 37.3346 11.357 37.4356 11.461C37.5387 11.573 37.6107 11.69 37.6517 11.815C37.6957 11.94 37.7147 12.044 37.7147 12.129C37.7147 12.175 37.7147 12.199 37.7077 12.216C37.6867 12.32 37.6567 12.434 37.6117 12.545C37.5667 12.661 37.4776 12.784 37.3406 12.915C37.2046 13.053 37.0036 13.186 36.7385 13.334C36.4715 13.48 36.1174 13.641 35.6644 13.807C35.4703 13.872 35.2983 13.925 35.1503 13.953C35.0203 13.986 34.8903 14 34.7802 14C34.6522 14 34.5512 13.986 34.4672 13.96C34.3972 13.932 34.3292 13.902 34.2862 13.867C34.2392 13.824 34.2042 13.777 34.1812 13.729ZM41.6653 4.941C41.6653 5.082 41.7073 5.212 41.7913 5.329C41.8753 5.446 41.9793 5.532 42.1053 5.586C41.8343 5.816 41.5633 6.049 41.2872 6.283C41.0142 6.518 40.7461 6.747 40.4901 6.973C40.2321 7.197 39.989 7.412 39.757 7.616C39.528 7.818 39.3219 8.004 39.1359 8.169C39.0289 8.276 38.9099 8.38 38.8028 8.481C38.6988 8.579 38.5948 8.678 38.4948 8.775C38.3368 8.705 38.1568 8.67 37.9577 8.67C37.7087 8.67 37.4526 8.731 37.1896 8.852C37.0756 8.911 36.9596 8.946 36.8356 8.969C36.7275 8.994 36.6065 9.006 36.4875 9.006C36.3635 9.006 36.2465 8.994 36.1334 8.969C36.0234 8.945 35.9054 8.91 35.7944 8.867C35.7814 8.855 35.7734 8.851 35.7534 8.851C35.7344 8.832 35.7174 8.828 35.6934 8.816C35.6714 8.804 35.6524 8.795 35.6304 8.785C35.3963 8.663 35.1923 8.499 35.0263 8.292C34.8623 8.084 34.7552 7.849 34.7052 7.583C34.7012 7.541 34.6952 7.498 34.6862 7.454C34.6672 7.409 34.6652 7.365 34.6652 7.318C34.6652 6.83 34.7282 6.36 34.8573 5.905C34.9853 5.452 35.1673 5.029 35.4013 4.633C35.6324 4.24 35.9194 3.882 36.2505 3.558C36.5805 3.234 36.9476 2.957 37.3546 2.727C37.7507 2.497 38.1878 2.318 38.6488 2.191C39.1169 2.064 39.599 2 40.098 2C40.5101 2 40.9112 2.042 41.2952 2.125C41.6823 2.21 42.0473 2.332 42.3994 2.492C42.7454 2.651 43.0745 2.844 43.3785 3.072C43.6886 3.297 43.9606 3.551 44.2097 3.833C44.0646 3.959 43.9026 4.097 43.7306 4.244C43.5476 4.39 43.3655 4.544 43.1675 4.704C43.1155 4.569 43.0245 4.457 42.8965 4.368C42.7704 4.276 42.6214 4.232 42.4524 4.232C42.3454 4.232 42.2434 4.251 42.1494 4.29C42.0483 4.329 41.9663 4.379 41.9013 4.443C41.8333 4.505 41.7753 4.58 41.7373 4.668C41.6853 4.753 41.6653 4.844 41.6653 4.941ZM36.8456 7.984C36.9996 7.984 37.1516 7.957 37.2836 7.901C37.4186 7.844 37.5387 7.772 37.6377 7.677C37.7417 7.582 37.8257 7.473 37.8807 7.345C37.9437 7.22 37.9697 7.083 37.9697 6.942C37.9697 6.799 37.9467 6.665 37.8807 6.536C37.8197 6.407 37.7377 6.295 37.6377 6.201C37.5357 6.106 37.4156 6.032 37.2836 5.977C37.1456 5.921 37.0016 5.893 36.8456 5.893C36.6975 5.893 36.5465 5.922 36.4095 5.977C36.2745 6.032 36.1535 6.107 36.0524 6.201C35.9504 6.297 35.8714 6.407 35.8174 6.535C35.7514 6.663 35.7224 6.8 35.7224 6.94C35.7224 7.081 35.7494 7.218 35.8174 7.343C35.8794 7.471 35.9584 7.581 36.0524 7.676C36.1565 7.771 36.2815 7.845 36.4095 7.901C36.5465 7.957 36.6905 7.984 36.8456 7.984ZM45.7809 4.034C45.0838 4.761 44.4047 5.462 43.7506 6.141C43.4735 6.429 43.1795 6.724 42.8805 7.031C42.5794 7.337 42.2844 7.634 41.9933 7.925C41.7033 8.217 41.4252 8.492 41.1572 8.751C40.8862 9.01 40.6501 9.238 40.4401 9.439C40.027 9.818 39.669 10.14 39.3779 10.4C39.0879 10.659 38.8549 10.87 38.6528 11.031C38.4638 11.191 38.3158 11.304 38.2148 11.376C38.1137 11.445 38.0477 11.48 38.0267 11.48H38.0157L37.2456 10.775C37.2426 10.769 37.2396 10.767 37.2396 10.763C37.2396 10.738 37.2786 10.669 37.3566 10.575C37.4316 10.475 37.5587 10.346 37.7317 10.171C37.9047 9.993 38.1277 9.773 38.4118 9.496C38.6908 9.225 39.0369 8.895 39.4419 8.52C39.657 8.324 39.9 8.102 40.1801 7.853C40.4541 7.607 40.7541 7.349 41.0712 7.081C41.3842 6.812 41.7063 6.538 42.0353 6.259C42.3624 5.98 42.6844 5.709 42.9955 5.448C43.7246 4.842 44.4797 4.212 45.2678 3.564C45.3058 3.532 45.3438 3.518 45.3898 3.518C45.4278 3.518 45.4608 3.533 45.4939 3.564L45.7669 3.806C45.7939 3.841 45.8199 3.879 45.8199 3.92C45.8319 3.974 45.8119 4.009 45.7809 4.034ZM39.1629 4.999C39.2909 4.999 39.4089 4.976 39.519 4.933C39.623 4.889 39.715 4.829 39.795 4.752C39.876 4.675 39.941 4.584 39.988 4.48C40.036 4.376 40.062 4.263 40.062 4.14C40.062 4.02 40.036 3.911 39.988 3.809C39.94 3.706 39.876 3.619 39.795 3.543C39.715 3.468 39.62 3.407 39.519 3.365C39.4079 3.319 39.2899 3.297 39.1629 3.297C39.0389 3.297 38.9159 3.319 38.8028 3.363C38.6978 3.406 38.5918 3.468 38.5088 3.542C38.4268 3.617 38.3628 3.705 38.3168 3.807C38.2598 3.909 38.2368 4.02 38.2368 4.14C38.2368 4.263 38.2578 4.376 38.3108 4.48C38.3618 4.584 38.4228 4.675 38.5028 4.752C38.5848 4.828 38.6908 4.889 38.7978 4.933C38.9159 4.976 39.0349 4.999 39.1629 4.999Z" fill="#878586"/>
<path d="M50.1836 13.729C50.2046 13.733 50.2226 13.735 50.2466 13.749C50.2666 13.752 50.2896 13.754 50.3176 13.754C50.3416 13.754 50.3806 13.754 50.4126 13.754C50.4726 13.754 50.5346 13.749 50.6007 13.733C50.6677 13.723 50.7407 13.712 50.7937 13.677C50.8567 13.653 50.9117 13.614 50.9617 13.567C51.0117 13.52 51.0497 13.46 51.0737 13.379C51.0947 13.295 51.1227 13.178 51.1367 13.026C51.1577 12.88 51.1797 12.721 51.2077 12.549C51.2398 12.379 51.2818 12.206 51.3338 12.031C51.3848 11.855 51.4588 11.695 51.5538 11.552C51.6558 11.408 51.7668 11.29 51.9099 11.199C52.0559 11.107 52.2349 11.064 52.4429 11.064C52.687 11.064 52.881 11.101 53.047 11.181C53.2101 11.251 53.3431 11.357 53.4451 11.461C53.5461 11.573 53.6201 11.69 53.6601 11.815C53.7041 11.94 53.7231 12.044 53.7231 12.129C53.7231 12.175 53.7231 12.199 53.7131 12.216C53.6921 12.32 53.6621 12.434 53.6171 12.545C53.5721 12.661 53.4841 12.784 53.3461 12.915C53.208 13.053 53.009 13.186 52.744 13.334C52.4779 13.48 52.1229 13.641 51.6688 13.807C51.4788 13.872 51.3058 13.925 51.1547 13.953C51.0237 13.986 50.8927 14 50.7827 14C50.6547 14 50.5527 13.986 50.4696 13.96C50.3986 13.932 50.3306 13.902 50.2876 13.867C50.2416 13.824 50.2066 13.777 50.1836 13.729ZM57.6677 4.941C57.6677 5.082 57.7097 5.212 57.7937 5.329C57.8777 5.446 57.9818 5.532 58.1078 5.586C57.8367 5.816 57.5657 6.049 57.2897 6.283C57.0166 6.518 56.7486 6.747 56.4925 6.973C56.2345 7.197 55.9905 7.412 55.7604 7.616C55.5314 7.818 55.3234 8.004 55.1393 8.169C55.0313 8.276 54.9113 8.38 54.8053 8.481C54.7013 8.579 54.5963 8.678 54.4972 8.775C54.3382 8.705 54.1592 8.67 53.9602 8.67C53.7111 8.67 53.4551 8.731 53.193 8.852C53.078 8.911 52.962 8.946 52.839 8.969C52.731 8.994 52.61 9.006 52.4909 9.006C52.3679 9.006 52.2509 8.994 52.1369 8.969C52.0279 8.945 51.9099 8.91 51.7978 8.867C51.7848 8.855 51.7768 8.851 51.7578 8.851C51.7378 8.832 51.7218 8.828 51.6978 8.816C51.6758 8.804 51.6558 8.795 51.6348 8.785C51.4018 8.663 51.1967 8.499 51.0307 8.292C50.8657 8.084 50.7597 7.849 50.7097 7.583C50.7067 7.541 50.6997 7.498 50.6897 7.454C50.6707 7.409 50.6687 7.365 50.6687 7.318C50.6687 6.83 50.7327 6.36 50.8597 5.905C50.9877 5.452 51.1707 5.029 51.4048 4.633C51.6378 4.24 51.9229 3.882 52.2529 3.558C52.585 3.234 52.951 2.957 53.3571 2.727C53.7531 2.497 54.1902 2.318 54.6503 2.191C55.1193 2.064 55.6014 2 56.1015 2C56.5125 2 56.9146 2.042 57.2977 2.125C57.6847 2.21 58.0498 2.332 58.4018 2.492C58.7479 2.651 59.0769 2.844 59.381 3.072C59.691 3.297 59.9631 3.551 60.2121 3.833C60.0671 3.959 59.9051 4.097 59.733 4.244C59.55 4.39 59.368 4.544 59.1699 4.704C59.1179 4.569 59.0269 4.457 58.8989 4.368C58.7729 4.276 58.6239 4.232 58.4548 4.232C58.3478 4.232 58.2458 4.251 58.1518 4.29C58.0508 4.329 57.9688 4.379 57.9038 4.443C57.8357 4.505 57.7777 4.58 57.7397 4.668C57.6877 4.753 57.6677 4.844 57.6677 4.941ZM52.848 7.984C53.001 7.984 53.155 7.957 53.2861 7.901C53.4221 7.845 53.5421 7.772 53.6401 7.677C53.7441 7.582 53.8281 7.473 53.8841 7.345C53.9472 7.22 53.9722 7.083 53.9722 6.942C53.9722 6.799 53.9502 6.665 53.8841 6.536C53.8211 6.407 53.7391 6.295 53.6401 6.201C53.5381 6.106 53.4181 6.032 53.2861 5.977C53.15 5.921 53.004 5.893 52.848 5.893C52.701 5.893 52.5499 5.922 52.4119 5.977C52.2759 6.032 52.1559 6.107 52.0559 6.201C51.9529 6.297 51.8738 6.407 51.8198 6.535C51.7538 6.663 51.7238 6.8 51.7238 6.94C51.7238 7.081 51.7528 7.218 51.8198 7.343C51.8819 7.471 51.9609 7.581 52.0559 7.676C52.1599 7.771 52.2839 7.845 52.4119 7.901C52.5499 7.957 52.693 7.984 52.848 7.984ZM61.7833 4.034C61.0862 4.761 60.4071 5.462 59.753 6.141C59.476 6.429 59.1819 6.724 58.8829 7.031C58.5819 7.337 58.2868 7.634 57.9958 7.925C57.7057 8.217 57.4277 8.492 57.1596 8.751C56.8886 9.01 56.6526 9.238 56.4425 9.439C56.0305 9.818 55.6714 10.14 55.3804 10.4C55.0903 10.659 54.8583 10.87 54.6553 11.031C54.4662 11.191 54.3172 11.304 54.2172 11.376C54.1152 11.445 54.0512 11.48 54.0292 11.48H54.0182L53.2481 10.775C53.2431 10.769 53.2411 10.767 53.2411 10.763C53.2411 10.738 53.2791 10.669 53.3581 10.575C53.4311 10.475 53.5591 10.346 53.7331 10.171C53.9062 9.993 54.1292 9.773 54.4132 9.496C54.6923 9.225 55.0373 8.895 55.4434 8.52C55.6574 8.324 55.9015 8.102 56.1815 7.853C56.4555 7.607 56.7556 7.349 57.0726 7.081C57.3857 6.812 57.7077 6.538 58.0368 6.259C58.3638 5.98 58.6859 5.709 58.9969 5.448C59.726 4.842 60.4811 4.212 61.2693 3.564C61.3093 3.534 61.3463 3.52 61.3933 3.52C61.4313 3.52 61.4643 3.535 61.4973 3.566L61.7693 3.808C61.7973 3.843 61.8233 3.881 61.8233 3.922C61.8343 3.974 61.8143 4.009 61.7833 4.034ZM55.1653 4.999C55.2934 4.999 55.4114 4.976 55.5204 4.933C55.6244 4.889 55.7184 4.829 55.7984 4.752C55.8774 4.675 55.9445 4.584 55.9905 4.48C56.0385 4.376 56.0635 4.263 56.0635 4.14C56.0635 4.02 56.0385 3.911 55.9905 3.809C55.9425 3.706 55.8774 3.619 55.7984 3.543C55.7184 3.468 55.6234 3.407 55.5204 3.365C55.4104 3.319 55.2914 3.297 55.1653 3.297C55.0403 3.297 54.9183 3.319 54.8053 3.363C54.7013 3.406 54.5943 3.468 54.5112 3.542C54.4292 3.617 54.3652 3.705 54.3192 3.807C54.2622 3.909 54.2392 4.02 54.2392 4.14C54.2392 4.263 54.2602 4.376 54.3132 4.48C54.3632 4.584 54.4242 4.675 54.5052 4.752C54.5873 4.828 54.6933 4.889 54.7993 4.933C54.9183 4.976 55.0373 4.999 55.1653 4.999Z" fill="#1B1F22"/>
<path d="M66.1859 13.729C66.2069 13.733 66.2249 13.735 66.2489 13.749C66.2689 13.752 66.2919 13.754 66.3199 13.754C66.3439 13.754 66.3829 13.754 66.4149 13.754C66.475 13.754 66.537 13.749 66.603 13.733C66.666 13.723 66.737 13.712 66.791 13.677C66.854 13.653 66.909 13.614 66.959 13.567C67.009 13.52 67.047 13.46 67.071 13.379C67.092 13.295 67.1201 13.178 67.1341 13.026C67.1551 12.88 67.1771 12.721 67.2051 12.549C67.2371 12.379 67.2791 12.206 67.3311 12.031C67.3821 11.855 67.4561 11.695 67.5511 11.552C67.6531 11.408 67.7641 11.29 67.9072 11.199C68.0532 11.107 68.2322 11.064 68.4402 11.064C68.6823 11.064 68.8783 11.101 69.0443 11.181C69.2074 11.251 69.3404 11.357 69.4424 11.461C69.5434 11.573 69.6174 11.69 69.6574 11.815C69.7014 11.94 69.7204 12.044 69.7204 12.129C69.7204 12.175 69.7204 12.199 69.7114 12.216C69.6904 12.32 69.6604 12.434 69.6154 12.545C69.5704 12.661 69.4824 12.784 69.3444 12.915C69.2064 13.053 69.0073 13.186 68.7423 13.334C68.4743 13.48 68.1212 13.641 67.6671 13.807C67.4751 13.872 67.3031 13.925 67.1531 13.953C67.026 13.986 66.895 14 66.785 14C66.657 14 66.555 13.986 66.472 13.96C66.4009 13.932 66.3329 13.902 66.2899 13.867C66.2439 13.824 66.2089 13.777 66.1859 13.729ZM73.67 4.941C73.67 5.082 73.712 5.212 73.796 5.329C73.8801 5.446 73.9841 5.532 74.1101 5.586C73.8391 5.816 73.568 6.049 73.292 6.283C73.0189 6.518 72.7509 6.747 72.4949 6.973C72.2368 7.197 71.9928 7.412 71.7627 7.616C71.5337 7.818 71.3257 8.004 71.1416 8.169C71.0336 8.276 70.9136 8.38 70.8076 8.481C70.7036 8.579 70.5986 8.678 70.4996 8.775C70.3405 8.705 70.1615 8.67 69.9625 8.67C69.7134 8.67 69.4574 8.731 69.1954 8.852C69.0803 8.911 68.9643 8.946 68.8413 8.969C68.7333 8.994 68.6123 9.006 68.4933 9.006C68.3702 9.006 68.2532 8.994 68.1392 8.969C68.0302 8.945 67.9122 8.91 67.8002 8.867C67.7872 8.855 67.7791 8.851 67.7601 8.851C67.7401 8.832 67.7241 8.828 67.7001 8.816C67.6781 8.804 67.6581 8.795 67.6371 8.785C67.4041 8.663 67.1991 8.499 67.033 8.292C66.868 8.084 66.762 7.849 66.712 7.583C66.709 7.541 66.702 7.498 66.692 7.454C66.673 7.409 66.671 7.365 66.671 7.318C66.671 6.83 66.735 6.36 66.862 5.905C66.99 5.452 67.1731 5.029 67.4071 4.633C67.6401 4.24 67.9252 3.882 68.2552 3.558C68.5873 3.234 68.9533 2.957 69.3594 2.727C69.7554 2.497 70.1925 2.318 70.6526 2.191C71.1226 2.064 71.6047 2 72.1048 2C72.5099 2 72.9159 2.042 73.295 2.125C73.682 2.21 74.0471 2.332 74.3991 2.492C74.7452 2.651 75.0742 2.844 75.3783 3.072C75.6883 3.297 75.9604 3.551 76.2094 3.833C76.0644 3.959 75.9024 4.097 75.7303 4.244C75.5473 4.39 75.3653 4.544 75.1672 4.704C75.1152 4.569 75.0242 4.457 74.8962 4.368C74.7672 4.276 74.6212 4.232 74.4521 4.232C74.3451 4.232 74.2431 4.251 74.1481 4.29C74.0481 4.329 73.9661 4.379 73.9011 4.443C73.8331 4.505 73.776 4.58 73.737 4.668C73.69 4.753 73.67 4.844 73.67 4.941ZM68.8503 7.984C69.0033 7.984 69.1574 7.957 69.2884 7.901C69.4244 7.845 69.5444 7.772 69.6424 7.677C69.7464 7.582 69.8305 7.473 69.8865 7.345C69.9495 7.22 69.9745 7.083 69.9745 6.942C69.9745 6.799 69.9525 6.665 69.8865 6.536C69.8235 6.407 69.7414 6.295 69.6424 6.201C69.5404 6.106 69.4204 6.032 69.2884 5.977C69.1524 5.921 69.0063 5.893 68.8503 5.893C68.7033 5.893 68.5523 5.922 68.4142 5.977C68.2782 6.032 68.1582 6.107 68.0582 6.201C67.9552 6.297 67.8762 6.407 67.8222 6.535C67.7561 6.663 67.7261 6.8 67.7261 6.94C67.7261 7.081 67.7551 7.218 67.8222 7.343C67.8842 7.471 67.9632 7.581 68.0582 7.676C68.1622 7.771 68.2862 7.845 68.4142 7.901C68.5523 7.957 68.6953 7.984 68.8503 7.984ZM77.7856 4.034C77.0885 4.761 76.4094 5.462 75.7553 6.141C75.4783 6.429 75.1843 6.724 74.8852 7.031C74.5842 7.337 74.2891 7.634 73.9981 7.925C73.708 8.217 73.43 8.492 73.162 8.751C72.8909 9.01 72.6549 9.238 72.4448 9.439C72.0328 9.818 71.6737 10.14 71.3827 10.4C71.0926 10.659 70.8606 10.87 70.6576 11.031C70.4686 11.191 70.3195 11.304 70.2195 11.376C70.1175 11.445 70.0535 11.48 70.0315 11.48H70.0205L69.2514 10.775C69.2464 10.769 69.2444 10.767 69.2444 10.763C69.2444 10.738 69.2824 10.669 69.3614 10.575C69.4334 10.475 69.5614 10.346 69.7364 10.171C69.9095 9.993 70.1325 9.773 70.4165 9.496C70.6956 9.225 71.0406 8.895 71.4467 8.52C71.6607 8.324 71.9048 8.102 72.1838 7.853C72.4588 7.607 72.7579 7.349 73.0759 7.081C73.389 6.812 73.711 6.538 74.0401 6.259C74.3671 5.98 74.6892 5.709 75.0002 5.448C75.7293 4.842 76.4844 4.212 77.2726 3.564C77.3096 3.532 77.3476 3.518 77.3946 3.518C77.4316 3.518 77.4656 3.533 77.4986 3.564L77.7706 3.806C77.7986 3.841 77.8246 3.879 77.8246 3.92C77.8367 3.974 77.8166 4.009 77.7856 4.034ZM71.1677 4.999C71.2957 4.999 71.4137 4.976 71.5227 4.933C71.6267 4.889 71.7207 4.829 71.8007 4.752C71.8798 4.675 71.9468 4.584 71.9928 4.48C72.0408 4.376 72.0658 4.263 72.0658 4.14C72.0658 4.02 72.0408 3.911 71.9928 3.809C71.9448 3.706 71.8798 3.619 71.8007 3.543C71.7207 3.468 71.6257 3.407 71.5227 3.365C71.4127 3.319 71.2937 3.297 71.1677 3.297C71.0426 3.297 70.9206 3.319 70.8076 3.363C70.7036 3.406 70.5966 3.468 70.5136 3.542C70.4315 3.617 70.3675 3.705 70.3215 3.807C70.2645 3.909 70.2415 4.02 70.2415 4.14C70.2415 4.263 70.2625 4.376 70.3155 4.48C70.3655 4.584 70.4265 4.675 70.5076 4.752C70.5896 4.828 70.6956 4.889 70.8016 4.933C70.9206 4.976 71.0396 4.999 71.1677 4.999Z" fill="#1B1F22"/>
<path d="M18.1787 13.729C18.1997 13.733 18.2177 13.735 18.2417 13.749C18.2617 13.752 18.2847 13.754 18.3137 13.754C18.3367 13.754 18.3767 13.754 18.4087 13.754C18.4688 13.754 18.5288 13.749 18.5968 13.733C18.6598 13.723 18.7278 13.712 18.7848 13.677C18.8478 13.653 18.9028 13.614 18.9528 13.567C19.0038 13.52 19.0398 13.46 19.0638 13.379C19.0848 13.295 19.1139 13.178 19.1269 13.026C19.1479 12.88 19.1689 12.721 19.1979 12.549C19.2289 12.379 19.2699 12.206 19.3229 12.031C19.3749 11.855 19.4469 11.695 19.5429 11.552C19.6449 11.408 19.7559 11.29 19.9 11.199C20.044 11.107 20.224 11.064 20.431 11.064C20.6701 11.064 20.8691 11.101 21.0351 11.181C21.1982 11.251 21.3322 11.357 21.4332 11.461C21.5362 11.573 21.6082 11.69 21.6492 11.815C21.6932 11.94 21.7122 12.044 21.7122 12.129C21.7122 12.175 21.7122 12.199 21.7052 12.216C21.6842 12.32 21.6542 12.434 21.6092 12.545C21.5642 12.661 21.4752 12.784 21.3382 12.915C21.2022 13.053 21.0011 13.186 20.7361 13.334C20.4691 13.48 20.115 13.641 19.6619 13.807C19.4679 13.872 19.2959 13.925 19.1479 13.953C19.0178 13.983 18.8878 13.998 18.7778 13.998C18.6498 13.998 18.5488 13.983 18.4648 13.958C18.3947 13.931 18.3267 13.899 18.2837 13.865C18.2367 13.824 18.2017 13.777 18.1787 13.729ZM25.6638 4.941C25.6638 5.082 25.7048 5.212 25.7889 5.329C25.8739 5.447 25.9769 5.532 26.1029 5.586C25.8319 5.816 25.5598 6.049 25.2848 6.283C25.0117 6.518 24.7437 6.747 24.4877 6.973C24.2296 7.197 23.9866 7.412 23.7545 7.616C23.5255 7.818 23.3195 8.004 23.1335 8.169C23.0264 8.276 22.9074 8.38 22.8004 8.481C22.6964 8.579 22.5924 8.678 22.4924 8.775C22.3343 8.705 22.1543 8.67 21.9553 8.67C21.7062 8.67 21.4502 8.731 21.1872 8.852C21.0731 8.911 20.9571 8.946 20.8331 8.969C20.7251 8.994 20.6041 9.006 20.4851 9.006C20.361 9.006 20.244 8.994 20.131 8.969C20.021 8.945 19.903 8.91 19.792 8.867C19.7789 8.855 19.7709 8.851 19.7509 8.851C19.7319 8.832 19.7149 8.828 19.6909 8.816C19.6689 8.804 19.6499 8.795 19.6279 8.785C19.3939 8.663 19.1899 8.499 19.0238 8.292C18.8598 8.084 18.7528 7.849 18.7028 7.583C18.6988 7.541 18.6928 7.498 18.6838 7.454C18.6648 7.409 18.6628 7.365 18.6628 7.318C18.6628 6.83 18.7258 6.36 18.8548 5.905C18.9828 5.452 19.1649 5.029 19.3989 4.633C19.6309 4.24 19.917 3.882 20.248 3.558C20.5781 3.234 20.9451 2.957 21.3522 2.727C21.7482 2.497 22.1853 2.318 22.6464 2.191C23.1144 2.064 23.5965 2 24.0956 2C24.5077 2 24.9087 2.042 25.2928 2.125C25.6798 2.21 26.0449 2.332 26.3969 2.492C26.744 2.651 27.073 2.844 27.3761 3.072C27.6861 3.297 27.9572 3.551 28.2072 3.833C28.0612 3.959 27.8992 4.097 27.7281 4.244C27.5451 4.39 27.3631 4.544 27.1651 4.704C27.112 4.569 27.022 4.457 26.894 4.368C26.768 4.276 26.621 4.232 26.451 4.232C26.3429 4.232 26.2419 4.251 26.1469 4.29C26.0469 4.329 25.9649 4.379 25.8999 4.443C25.8319 4.505 25.7738 4.58 25.7358 4.668C25.6828 4.753 25.6638 4.844 25.6638 4.941ZM20.8431 7.984C20.9971 7.984 21.1492 7.957 21.2812 7.901C21.4162 7.844 21.5362 7.772 21.6352 7.677C21.7392 7.582 21.8233 7.473 21.8783 7.345C21.9413 7.22 21.9673 7.083 21.9673 6.942C21.9673 6.799 21.9443 6.665 21.8783 6.536C21.8173 6.407 21.7352 6.295 21.6352 6.201C21.5332 6.106 21.4132 6.032 21.2812 5.977C21.1432 5.921 20.9991 5.893 20.8431 5.893C20.6951 5.893 20.5441 5.922 20.407 5.977C20.272 6.032 20.151 6.107 20.05 6.201C19.948 6.297 19.869 6.407 19.815 6.535C19.7489 6.663 19.7199 6.8 19.7199 6.94C19.7199 7.081 19.7469 7.218 19.815 7.343C19.877 7.471 19.956 7.581 20.05 7.676C20.154 7.771 20.279 7.845 20.407 7.901C20.5441 7.957 20.6881 7.984 20.8431 7.984ZM29.7774 4.034C29.0813 4.761 28.4022 5.462 27.7491 6.141C27.4701 6.429 27.1761 6.724 26.878 7.031C26.578 7.337 26.2829 7.634 25.9919 7.925C25.6998 8.217 25.4228 8.492 25.1548 8.751C24.8837 9.01 24.6477 9.238 24.4376 9.439C24.0246 9.818 23.6665 10.14 23.3755 10.4C23.0854 10.659 22.8524 10.87 22.6504 11.031C22.4614 11.191 22.3133 11.304 22.2123 11.376C22.1113 11.445 22.0453 11.48 22.0243 11.48H22.0133L21.2432 10.775C21.2402 10.769 21.2372 10.767 21.2372 10.763C21.2372 10.738 21.2762 10.669 21.3542 10.575C21.4292 10.475 21.5562 10.346 21.7292 10.171C21.9023 9.993 22.1253 9.773 22.4093 9.496C22.6884 9.225 23.0344 8.895 23.4395 8.52C23.6545 8.324 23.8976 8.102 24.1776 7.853C24.4517 7.607 24.7537 7.349 25.0687 7.081C25.3818 6.812 25.7038 6.538 26.0339 6.259C26.3599 5.98 26.681 5.709 26.993 5.448C27.7221 4.842 28.4773 4.212 29.2654 3.564C29.3054 3.532 29.3394 3.518 29.3864 3.518C29.4254 3.518 29.4594 3.533 29.4904 3.564L29.7614 3.806C29.7915 3.841 29.8165 3.879 29.8165 3.92C29.8295 3.974 29.8105 4.009 29.7774 4.034ZM23.1605 4.999C23.2885 4.999 23.4065 4.976 23.5165 4.933C23.6205 4.889 23.7125 4.829 23.7926 4.752C23.8736 4.675 23.9386 4.584 23.9856 4.48C24.0336 4.376 24.0596 4.263 24.0596 4.14C24.0596 4.02 24.0336 3.911 23.9856 3.809C23.9376 3.706 23.8736 3.619 23.7926 3.543C23.7125 3.468 23.6175 3.407 23.5165 3.365C23.4055 3.319 23.2875 3.297 23.1605 3.297C23.0364 3.297 22.9134 3.319 22.8004 3.363C22.6954 3.406 22.5894 3.468 22.5064 3.542C22.4243 3.617 22.3603 3.705 22.3143 3.807C22.2573 3.909 22.2343 4.02 22.2343 4.14C22.2343 4.263 22.2553 4.376 22.3083 4.48C22.3593 4.584 22.4203 4.675 22.5004 4.752C22.5824 4.828 22.6884 4.889 22.7954 4.933C22.9134 4.976 23.0324 4.999 23.1605 4.999Z" fill="#1B1F22"/>
</g>
<defs>
<clipPath id="clip0_19_277">
<rect width="80" height="16" fill="white"/>
</clipPath>
</defs>
</svg>
