<svg width="120" height="24" viewBox="0 0 120 24" fill="none" xmlns="http://www.w3.org/2000/svg">
<g clip-path="url(#clip0_19_314)">
<path opacity="0.15" d="M36.0061 23.998C42.6324 23.998 48.0041 18.6263 48.0041 12C48.0041 5.37369 42.6324 0.0019989 36.0061 0.0019989C29.3797 0.0019989 24.0081 5.37369 24.0081 12C24.0081 18.6263 29.3797 23.998 36.0061 23.998Z" fill="black" fill-opacity="0.6"/>
<path d="M8.73901 17.301L13.747 11.501L8.73901 5.698L10.127 4.5L16.17 11.501L10.127 18.5L8.73901 17.301Z" fill="black" fill-opacity="0.6"/>
<path d="M32.739 17.301L37.747 11.501L32.739 5.698L34.127 4.5L40.17 11.501L34.127 18.5L32.739 17.301Z" fill="black" fill-opacity="0.6"/>
<path opacity="0.25" d="M56.739 17.301L61.747 11.501L56.739 5.698L58.127 4.5L64.171 11.501L58.127 18.5L56.739 17.301Z" fill="black" fill-opacity="0.6"/>
<path d="M80.531 17.301L85.539 11.501L80.531 5.698L81.919 4.5L87.963 11.501L81.919 18.5L80.531 17.301Z" fill="black" fill-opacity="0.6"/>
<path d="M104.531 17.301L109.539 11.501L104.531 5.698L105.919 4.5L111.963 11.501L105.919 18.5L104.531 17.301Z" fill="black" fill-opacity="0.6"/>
</g>
<defs>
<clipPath id="clip0_19_314">
<rect width="120" height="24" fill="white"/>
</clipPath>
</defs>
</svg>
