<svg width="80" height="16" viewBox="0 0 80 16" fill="none" xmlns="http://www.w3.org/2000/svg">
<g clip-path="url(#clip0_16_130)">
<path d="M8.05388 8.84799L5.37048 11.379H7.55181L11.1433 7.992L7.56881 4.62H5.38848L8.05388 7.139H2.00098V8.84799H8.05388Z" fill="#1B1F22"/>
<path d="M12.3289 11.15C12.3289 11.273 12.4329 11.374 12.5529 11.374H13.7819C13.9059 11.374 14.0059 11.273 14.0059 11.15V4.84899C14.0059 4.72799 13.9059 4.62599 13.7819 4.62599H12.5529C12.4369 4.62599 12.3289 4.72699 12.3289 4.84899V11.15Z" fill="#1B1F22"/>
<path d="M24.0539 8.84799L21.3705 11.379H23.5518L27.1433 7.992L23.5688 4.62H21.3885L24.0539 7.139H18.001V8.84799H24.0539Z" fill="#1B1F22"/>
<path d="M28.3289 11.15C28.3289 11.273 28.4329 11.374 28.5529 11.374H29.7819C29.9059 11.374 30.0059 11.273 30.0059 11.15V4.84899C30.0059 4.72799 29.9059 4.62599 29.7819 4.62599H28.5529C28.4369 4.62599 28.3289 4.72699 28.3289 4.84899V11.15Z" fill="#1B1F22"/>
<path d="M40.059 8.84799L37.3766 11.379H39.5569L43.1485 7.992L39.5759 4.62H37.3926L40.059 7.139H34.0061V8.84799H40.059Z" fill="#878586"/>
<path d="M44.3347 11.15C44.3347 11.273 44.4387 11.374 44.5637 11.374H45.7907C45.9157 11.374 46.0147 11.273 46.0147 11.15V4.84899C46.0147 4.72799 45.9157 4.62599 45.7907 4.62599H44.5637C44.4417 4.62599 44.3347 4.72699 44.3347 4.84899V11.15Z" fill="#878586"/>
<path d="M56.0605 8.84799L53.3801 11.379H55.5604L59.1509 7.992L55.5774 4.62H53.3941L56.0605 7.139H50.0085V8.84799H56.0605Z" fill="#1B1F22"/>
<path d="M60.3372 11.15C60.3372 11.273 60.4412 11.374 60.5662 11.374H61.7932C61.9182 11.374 62.0172 11.273 62.0172 11.15V4.84899C62.0172 4.72799 61.9182 4.62599 61.7932 4.62599H60.5662C60.4442 4.62599 60.3372 4.72699 60.3372 4.84899V11.15Z" fill="#1B1F22"/>
<path d="M72.0508 8.848L69.3684 11.378H71.5498L75.1403 7.992L71.5658 4.621H69.3864L72.0508 7.139H65.9979V8.848H72.0508Z" fill="#1B1F22"/>
<path d="M76.3264 11.15C76.3264 11.273 76.4284 11.374 76.5504 11.374H77.7794C77.9044 11.374 78.0034 11.273 78.0034 11.15V4.85C78.0034 4.729 77.9044 4.627 77.7794 4.627H76.5504C76.4284 4.627 76.3264 4.728 76.3264 4.85V11.15Z" fill="#1B1F22"/>
</g>
<defs>
<clipPath id="clip0_16_130">
<rect width="80" height="16" fill="white"/>
</clipPath>
</defs>
</svg>
