<svg width="80" height="16" viewBox="0 0 80 16" fill="none" xmlns="http://www.w3.org/2000/svg">
<g clip-path="url(#clip0_19_287)">
<path d="M13.002 4.17993H3.00049V5.83193H13.002V4.17993Z" fill="#1B1F22"/>
<path d="M13.002 10.1659H3.00049V11.8179H13.002V10.1659Z" fill="#1B1F22"/>
<path d="M13.002 7.17297H3.00049V8.82497H13.002V7.17297Z" fill="#1B1F22"/>
<path d="M29.0043 4.17993H19.0028V5.83193H29.0043V4.17993Z" fill="#1B1F22"/>
<path d="M29.0043 10.1659H19.0028V11.8179H29.0043V10.1659Z" fill="#1B1F22"/>
<path d="M29.0043 7.17297H19.0028V8.82497H29.0043V7.17297Z" fill="#1B1F22"/>
<path d="M45.0067 4.17993H35.0052V5.83193H45.0067V4.17993Z" fill="#878586"/>
<path d="M45.0067 10.1659H35.0052V11.8179H45.0067V10.1659Z" fill="#878586"/>
<path d="M45.0067 7.17297H35.0052V8.82497H45.0067V7.17297Z" fill="#878586"/>
<path d="M61.0091 4.17993H51.0076V5.83193H61.0091V4.17993Z" fill="#1B1F22"/>
<path d="M61.0091 10.1659H51.0076V11.8179H61.0091V10.1659Z" fill="#1B1F22"/>
<path d="M61.0091 7.17297H51.0076V8.82497H61.0091V7.17297Z" fill="#1B1F22"/>
<path d="M76.9995 4.17993H66.998V5.83193H76.9995V4.17993Z" fill="#1B1F22"/>
<path d="M76.9995 10.1659H66.998V11.8179H76.9995V10.1659Z" fill="#1B1F22"/>
<path d="M76.9995 7.17297H66.998V8.82497H76.9995V7.17297Z" fill="#1B1F22"/>
</g>
<defs>
<clipPath id="clip0_19_287">
<rect width="80" height="16" fill="white"/>
</clipPath>
</defs>
</svg>
