<svg width="80" height="16" viewBox="0 0 80 16" fill="none" xmlns="http://www.w3.org/2000/svg">
<path d="M13.002 8.918H8.91838V13H7.0841V8.918H3.00049V7.084H7.0841V3H8.91838V7.084H13.002V8.918Z" fill="white"/>
<path d="M29.0043 8.918H24.9207V13H23.0864V8.918H19.0028V7.084H23.0864V3H24.9207V7.084H29.0043V8.918Z" fill="white"/>
<path d="M45.0067 8.918H40.9231V13H39.0889V8.918H35.0052V7.084H39.0889V3H40.9231V7.084H45.0067V8.918Z" fill="#878586"/>
<path d="M61.0091 8.918H56.9255V13H55.0912V8.918H51.0076V7.084H55.0912V3H56.9255V7.084H61.0091V8.918Z" fill="white"/>
<path d="M76.9995 8.918H72.9159V13H71.0817V8.918H66.998V7.084H71.0817V3H72.9159V7.084H76.9995V8.918Z" fill="white"/>
</svg>
