<svg width="80" height="16" viewBox="0 0 80 16" fill="none" xmlns="http://www.w3.org/2000/svg">
<path d="M10.7223 2.652C9.93819 2.248 9.06306 2.034 8.18293 2H7.81987C6.93974 2.033 6.06361 2.248 5.27849 2.652C3.90029 3.35 2.81312 4.601 2.32005 6.064C2.11402 6.665 2.01 7.3 2 7.935V8.063C2.012 9.186 2.34305 10.303 2.95414 11.246C3.68225 12.381 4.80342 13.26 6.08361 13.687C6.6427 13.877 7.22978 13.975 7.81987 14H8.18493C8.38096 13.984 8.57699 13.977 8.77102 13.949C9.76717 13.824 10.7283 13.437 11.5374 12.845C12.2255 12.338 12.8076 11.693 13.2257 10.949C13.7248 10.073 13.9898 9.068 14.0018 8.062V7.937C13.9908 7.2 13.8518 6.464 13.5757 5.78C13.0457 4.438 12.0095 3.304 10.7223 2.652ZM5.76256 2.954C6.0226 2.835 6.29564 2.747 6.56869 2.664C6.50568 2.715 6.44867 2.772 6.39966 2.835C5.91159 3.397 5.59054 4.084 5.3595 4.786C4.87243 4.66 4.39536 4.487 3.94929 4.252C4.45737 3.702 5.07846 3.257 5.76256 2.954ZM2.85613 5.997C3.04516 5.506 3.3112 5.045 3.63024 4.627C4.13132 4.901 4.6714 5.103 5.22248 5.247C5.01045 6.067 4.90044 6.913 4.88543 7.76C4.08531 7.758 3.28419 7.763 2.48407 7.757C2.51608 7.156 2.6351 6.558 2.85613 5.997ZM3.62924 11.372C3.25819 10.889 2.96214 10.344 2.76912 9.764C2.60209 9.274 2.51108 8.759 2.48407 8.243C3.28419 8.237 4.08531 8.242 4.88543 8.241C4.90044 9.087 5.01045 9.934 5.22248 10.753C4.6704 10.896 4.13032 11.1 3.62924 11.372ZM5.52553 12.936C4.93444 12.639 4.39736 12.235 3.94829 11.748C4.39536 11.518 4.87143 11.34 5.3595 11.215C5.56053 11.834 5.83758 12.436 6.22763 12.959C6.33965 13.086 6.43266 13.23 6.56769 13.336C6.21063 13.229 5.85758 13.104 5.52553 12.936ZM7.76086 13.497C7.46782 13.434 7.19778 13.277 6.98175 13.07C6.6687 12.788 6.42866 12.433 6.23264 12.062C6.06761 11.75 5.94059 11.43 5.82557 11.102C6.46067 10.96 7.11077 10.898 7.75986 10.88C7.76086 11.757 7.76086 12.626 7.76086 13.497ZM7.76086 10.406C7.06576 10.419 6.36966 10.491 5.69055 10.638C5.48452 9.857 5.38351 9.05 5.3655 8.242C6.16362 8.236 6.96174 8.241 7.76086 8.239C7.76086 8.962 7.76086 9.686 7.76086 10.406ZM7.76086 7.76C6.96275 7.76 6.16463 7.759 5.36651 7.76C5.37951 6.951 5.48752 6.145 5.68755 5.362C6.36966 5.505 7.06376 5.582 7.76086 5.593C7.76086 6.315 7.76086 7.037 7.76086 7.76ZM7.76086 5.113C7.11177 5.102 6.46367 5.03 5.82857 4.9C6.03561 4.276 6.31965 3.666 6.75071 3.163C7.01675 2.856 7.3538 2.587 7.75986 2.503C7.76086 3.373 7.76086 4.243 7.76086 5.113ZM12.3726 4.627C13.0637 5.522 13.4707 6.63 13.5167 7.76C12.7166 7.76 11.9165 7.759 11.1174 7.76C11.1004 6.913 10.9923 6.068 10.7803 5.247C11.3304 5.101 11.8715 4.901 12.3726 4.627ZM9.71416 2.752C10.6053 3.042 11.4184 3.565 12.0535 4.253C11.6064 4.485 11.1294 4.661 10.6413 4.786C10.4403 4.166 10.1632 3.564 9.77117 3.041C9.66115 2.913 9.56514 2.769 9.43212 2.662C9.52313 2.699 9.62114 2.718 9.71416 2.752ZM8.24094 2.504C8.643 2.585 8.97605 2.85 9.24009 3.15C9.67615 3.655 9.9652 4.27 10.1732 4.9C9.53713 5.03 8.89003 5.102 8.24094 5.113C8.24094 4.243 8.24094 3.373 8.24094 2.504ZM8.24094 5.593C8.61099 5.591 8.97905 5.558 9.3461 5.522C9.66915 5.475 9.9932 5.436 10.3102 5.359C10.5173 6.142 10.6183 6.95 10.6353 7.758C9.83718 7.762 9.04006 7.759 8.24094 7.76C8.24094 7.037 8.24094 6.315 8.24094 5.593ZM8.24094 8.24C9.03806 8.239 9.83618 8.24 10.6343 8.239C10.6243 9.048 10.5133 9.853 10.3152 10.635C9.63315 10.494 8.93804 10.414 8.24094 10.406C8.24094 9.686 8.24094 8.962 8.24094 8.24ZM8.24094 13.497C8.24094 12.626 8.24094 11.757 8.24094 10.887C8.89003 10.901 9.54013 10.966 10.1752 11.104C9.9782 11.671 9.73016 12.235 9.3551 12.708C9.07306 13.07 8.70401 13.4 8.24094 13.497ZM9.57314 13.292C9.52613 13.305 9.48412 13.327 9.43712 13.337C9.68515 13.1 9.88618 12.816 10.0642 12.524C10.3042 12.11 10.4953 11.67 10.6413 11.214C11.1284 11.339 11.6064 11.514 12.0525 11.747C11.3844 12.473 10.5193 13.014 9.57314 13.292ZM12.6556 10.966C12.5686 11.108 12.4706 11.238 12.3726 11.372C11.8705 11.1 11.3314 10.896 10.7793 10.753C10.9913 9.934 11.1014 9.087 11.1164 8.239C11.9165 8.241 12.7176 8.235 13.5177 8.242C13.4717 9.206 13.1777 10.154 12.6556 10.966Z" fill="#1B1F22"/>
<path d="M26.725 2.652C25.9409 2.248 25.0657 2.034 24.1856 2H23.8236C22.9434 2.033 22.0673 2.248 21.2822 2.652C19.903 3.35 18.8158 4.601 18.3227 6.064C18.1167 6.665 18.0127 7.3 18.0027 7.935V8.063C18.0147 9.186 18.3457 10.303 18.9568 11.246C19.6849 12.381 20.8061 13.26 22.0863 13.687C22.6454 13.875 23.2325 13.974 23.8226 14H24.1876C24.3836 13.984 24.5797 13.977 24.7737 13.949C25.7699 13.824 26.731 13.437 27.5401 12.845C28.2282 12.338 28.8103 11.693 29.2284 10.949C29.7274 10.073 29.9925 9.068 30.0045 8.062V7.937C29.9935 7.2 29.8545 6.464 29.5784 5.78C29.0483 4.438 28.0122 3.304 26.725 2.652ZM21.7652 2.954C22.0253 2.835 22.2983 2.747 22.5714 2.664C22.5084 2.715 22.4514 2.772 22.4023 2.835C21.9143 3.398 21.5932 4.084 21.3632 4.786C20.8761 4.66 20.398 4.487 19.952 4.252C20.4601 3.702 21.0811 3.257 21.7652 2.954ZM18.8588 5.997C19.0478 5.506 19.3139 5.045 19.6329 4.627C20.134 4.901 20.6741 5.103 21.2252 5.247C21.0131 6.067 20.9031 6.913 20.8881 7.76C20.088 7.758 19.2869 7.763 18.4868 7.757C18.5188 7.156 18.6378 6.558 18.8588 5.997ZM19.6319 11.372C19.2609 10.889 18.9648 10.344 18.7718 9.764C18.6048 9.274 18.5138 8.759 18.4868 8.243C19.2869 8.237 20.088 8.242 20.8881 8.241C20.9031 9.088 21.0131 9.933 21.2242 10.754C20.6731 10.896 20.133 11.1 19.6319 11.372ZM21.5282 12.936C20.9371 12.639 20.4 12.235 19.951 11.748C20.398 11.518 20.8741 11.34 21.3622 11.215C21.5632 11.834 21.8403 12.436 22.2303 12.959C22.3423 13.086 22.4353 13.23 22.5704 13.336C22.2133 13.229 21.8603 13.104 21.5282 12.936ZM23.7636 13.497C23.4705 13.434 23.2005 13.277 22.9844 13.07C22.6714 12.788 22.4314 12.433 22.2353 12.062C22.0703 11.749 21.9433 11.429 21.8283 11.101C22.4634 10.958 23.1135 10.898 23.7626 10.878C23.7636 11.757 23.7636 12.626 23.7636 13.497ZM23.7636 10.406C23.0684 10.419 22.3723 10.491 21.6932 10.638C21.4882 9.857 21.3862 9.042 21.3682 8.242C22.1663 8.236 22.9654 8.241 23.7645 8.239C23.7635 8.962 23.7636 9.686 23.7636 10.406ZM23.7636 7.76C22.9654 7.76 22.1673 7.759 21.3692 7.76C21.3822 6.951 21.4902 6.145 21.6902 5.362C22.3723 5.506 23.0664 5.583 23.7636 5.593C23.7636 6.315 23.7636 7.037 23.7636 7.76ZM23.7636 5.113C23.1145 5.102 22.4664 5.03 21.8313 4.9C22.0393 4.276 22.3233 3.666 22.7534 3.163C23.0194 2.856 23.3565 2.587 23.7626 2.503C23.7636 3.373 23.7636 4.243 23.7636 5.113ZM28.3752 4.627C29.0663 5.522 29.4734 6.63 29.5194 7.76C28.7193 7.76 27.9192 7.759 27.1201 7.76C27.1031 6.913 26.995 6.068 26.783 5.247C27.3331 5.101 27.8742 4.901 28.3752 4.627ZM25.7168 2.752C26.608 3.042 27.4211 3.565 28.0562 4.253C27.6091 4.485 27.1321 4.661 26.644 4.786C26.443 4.166 26.1659 3.564 25.7739 3.041C25.6628 2.913 25.5668 2.769 25.4338 2.662C25.5258 2.699 25.6238 2.718 25.7168 2.752ZM24.2436 2.504C24.6447 2.585 24.9777 2.85 25.2428 3.15C25.6788 3.655 25.9679 4.27 26.1759 4.9C25.5398 5.03 24.8927 5.101 24.2436 5.113C24.2436 4.243 24.2436 3.373 24.2436 2.504ZM24.2436 5.593C24.6137 5.591 24.9817 5.558 25.3488 5.522C25.6718 5.475 25.9959 5.436 26.3129 5.359C26.52 6.142 26.621 6.95 26.638 7.758C25.8399 7.762 25.0417 7.759 24.2426 7.76C24.2436 7.037 24.2436 6.315 24.2436 5.593ZM24.2436 8.24C25.0407 8.239 25.8389 8.24 26.637 8.239C26.627 9.048 26.516 9.853 26.3179 10.635C25.6358 10.494 24.9407 10.414 24.2436 10.406C24.2436 9.686 24.2436 8.962 24.2436 8.24ZM24.2436 13.497C24.2436 12.626 24.2436 11.757 24.2436 10.887C24.8927 10.901 25.5428 10.966 26.1779 11.104C25.9809 11.671 25.7328 12.235 25.3578 12.708C25.0757 13.07 24.7067 13.4 24.2436 13.497ZM25.5758 13.292C25.5288 13.305 25.4868 13.327 25.4398 13.337C25.6878 13.1 25.8889 12.816 26.0669 12.524C26.3069 12.11 26.498 11.67 26.644 11.214C27.1311 11.339 27.6091 11.514 28.0552 11.747C27.3871 12.473 26.522 13.014 25.5758 13.292ZM28.6583 10.966C28.5713 11.108 28.4733 11.238 28.3752 11.372C27.8732 11.1 27.3341 10.896 26.782 10.753C26.994 9.934 27.1041 9.087 27.1191 8.239C27.9192 8.241 28.7203 8.235 29.5204 8.242C29.4744 9.206 29.1804 10.154 28.6583 10.966Z" fill="#1B1F22"/>
<path d="M42.7274 2.652C41.9443 2.248 41.0692 2.034 40.1881 2H39.826C38.9459 2.033 38.0687 2.248 37.2856 2.652C35.9054 3.35 34.8182 4.601 34.3252 6.064C34.1191 6.665 34.0151 7.3 34.0051 7.935V8.063C34.0171 9.186 34.3482 10.303 34.9593 11.246C35.6874 12.381 36.8085 13.26 38.0877 13.687C38.6468 13.875 39.2339 13.974 39.824 14H40.1891C40.3841 13.984 40.5801 13.977 40.7751 13.949C41.7693 13.824 42.7304 13.437 43.5416 12.845C44.2297 12.338 44.8117 11.693 45.2298 10.949C45.7299 10.072 45.9959 9.066 46.0059 8.061V7.937C45.9949 7.2 45.8569 6.464 45.5789 5.78C45.0518 4.438 44.0146 3.304 42.7274 2.652ZM37.7677 2.954C38.0277 2.835 38.3008 2.747 38.5748 2.664C38.5108 2.715 38.4548 2.772 38.4048 2.835C37.9167 3.398 37.5957 4.084 37.3656 4.786C36.8786 4.66 36.4005 4.487 35.9544 4.252C36.4625 3.702 37.0836 3.257 37.7677 2.954ZM34.8613 5.997C35.0503 5.506 35.3163 5.045 35.6354 4.627C36.1364 4.901 36.6755 5.103 37.2286 5.247C37.0156 6.067 36.9056 6.913 36.8906 7.76C36.0904 7.758 35.2903 7.763 34.4902 7.757C34.5212 7.156 34.6402 6.558 34.8613 5.997ZM35.6344 11.372C35.2633 10.889 34.9673 10.344 34.7742 9.764C34.6072 9.274 34.5162 8.759 34.4892 8.243C35.2893 8.237 36.0904 8.242 36.8896 8.241C36.9056 9.088 37.0146 9.933 37.2266 10.754C36.6755 10.896 36.1354 11.1 35.6344 11.372ZM37.5307 12.936C36.9386 12.639 36.4015 12.235 35.9534 11.748C36.4005 11.518 36.8766 11.34 37.3646 11.215C37.5657 11.834 37.8427 12.436 38.2328 12.959C38.3448 13.086 38.4378 13.23 38.5738 13.336C38.2158 13.229 37.8627 13.104 37.5307 12.936ZM39.766 13.497C39.4729 13.434 39.2029 13.277 38.9869 13.07C38.6738 12.788 38.4338 12.433 38.2388 12.062C38.0737 11.749 37.9467 11.429 37.8327 11.101C38.4678 10.958 39.1169 10.898 39.767 10.878C39.766 11.757 39.766 12.626 39.766 13.497ZM39.766 10.406C39.0709 10.419 38.3748 10.491 37.6957 10.638C37.4906 9.857 37.3886 9.042 37.3716 8.242C38.1698 8.236 38.9679 8.241 39.767 8.239C39.766 8.962 39.766 9.686 39.766 10.406ZM39.766 7.76C38.9679 7.76 38.1698 7.759 37.3716 7.76C37.3846 6.951 37.4927 6.145 37.6927 5.362C38.3748 5.506 39.0689 5.583 39.765 5.593C39.766 6.315 39.766 7.037 39.766 7.76ZM39.766 5.113C39.1169 5.102 38.4688 5.03 37.8337 4.9C38.0407 4.276 38.3248 3.666 38.7558 3.163C39.0219 2.856 39.3599 2.587 39.766 2.503C39.766 3.373 39.766 4.243 39.766 5.113ZM44.3777 4.627C45.0668 5.522 45.4758 6.63 45.5209 7.76C44.7217 7.76 43.9206 7.759 43.1245 7.76C43.1055 6.913 42.9995 6.068 42.7834 5.247C43.3355 5.101 43.8756 4.901 44.3777 4.627ZM41.7193 2.752C42.6104 3.042 43.4235 3.565 44.0596 4.253C43.6126 4.485 43.1355 4.661 42.6474 4.786C42.4464 4.166 42.1684 3.564 41.7783 3.041C41.6743 2.913 41.5713 2.769 41.4382 2.662C41.5273 2.699 41.6263 2.718 41.7193 2.752ZM40.2461 2.504C40.6461 2.585 40.9802 2.85 41.2442 3.15C41.6823 3.655 41.9703 4.27 42.1784 4.9C41.5423 5.03 40.8952 5.101 40.2461 5.113C40.2461 4.243 40.2461 3.373 40.2461 2.504ZM40.2461 5.593C40.6151 5.591 40.9842 5.558 41.3512 5.522C41.6663 5.475 41.9973 5.436 42.3144 5.359C42.5214 6.142 42.6234 6.95 42.6334 7.758C41.8343 7.762 41.0372 7.759 40.2381 7.76C40.2461 7.037 40.2461 6.315 40.2461 5.593ZM40.2461 8.24C41.0432 8.239 41.8423 8.24 42.6394 8.239C42.6294 9.048 42.5184 9.853 42.3214 10.635C41.6383 10.494 40.9442 10.414 40.2541 10.406C40.2461 9.686 40.2461 8.962 40.2461 8.24ZM40.2461 13.497C40.2461 12.626 40.2461 11.757 40.2461 10.887C40.8942 10.901 41.5453 10.966 42.1804 11.104C41.9853 11.671 41.7353 12.235 41.3622 12.708C41.0782 13.07 40.7091 13.4 40.2461 13.497ZM41.5783 13.292C41.5313 13.305 41.4883 13.327 41.4412 13.337C41.6893 13.1 41.8843 12.816 42.0683 12.524C42.3084 12.11 42.5004 11.67 42.6464 11.214C43.1265 11.339 43.6116 11.514 44.0496 11.747C43.3895 12.473 42.5244 13.014 41.5783 13.292ZM44.6607 10.966C44.5727 11.108 44.4727 11.238 44.3777 11.372C43.8756 11.1 43.3365 10.896 42.7834 10.753C42.9965 9.934 43.1055 9.087 43.1215 8.239C43.9216 8.241 44.7227 8.235 45.5219 8.242C45.4778 9.206 45.1828 10.154 44.6607 10.966Z" fill="#878586"/>
<path d="M58.7299 2.652C57.9468 2.248 57.0716 2.034 56.1905 2H55.8284C54.9473 2.033 54.0702 2.248 53.2871 2.652C51.9079 3.35 50.8207 4.601 50.3276 6.064C50.1206 6.665 50.0176 7.3 50.0076 7.935V8.063C50.0196 9.186 50.3506 10.303 50.9607 11.246C51.6898 12.381 52.811 13.26 54.0902 13.687C54.6493 13.875 55.2364 13.974 55.8264 14H56.1915C56.3795 13.984 56.5826 13.977 56.7776 13.949C57.7717 13.824 58.7329 13.437 59.544 12.845C60.2321 12.338 60.8142 11.693 61.2323 10.949C61.7323 10.072 61.9984 9.066 62.0084 8.061V7.937C61.9974 7.2 61.8593 6.464 61.5813 5.78C61.0542 4.438 60.0171 3.304 58.7299 2.652ZM53.7701 2.954C54.0302 2.835 54.3032 2.747 54.5773 2.664C54.5142 2.715 54.4642 2.772 54.4072 2.835C53.9262 3.398 53.5981 4.084 53.3681 4.786C52.888 4.66 52.4029 4.487 51.9649 4.252C52.4649 3.702 53.086 3.257 53.7701 2.954ZM50.8627 5.997C51.0507 5.506 51.3178 5.045 51.6338 4.627C52.1349 4.901 52.674 5.103 53.2311 5.247C53.018 6.067 52.908 6.913 52.893 7.76C52.0929 7.758 51.2928 7.763 50.4926 7.757C50.5236 7.156 50.6427 6.558 50.8627 5.997ZM51.6368 11.372C51.2668 10.889 50.9707 10.344 50.7777 9.764C50.6097 9.274 50.5196 8.759 50.4926 8.243C51.3008 8.237 52.0969 8.242 52.893 8.241C52.909 9.088 53.018 9.933 53.2311 10.754C52.678 10.896 52.1389 11.1 51.6368 11.372ZM53.5331 12.936C52.941 12.639 52.4039 12.235 51.9549 11.748C52.4019 11.518 52.879 11.34 53.3671 11.215C53.5681 11.834 53.8451 12.436 54.2342 12.959C54.3402 13.086 54.4392 13.23 54.5763 13.336C54.2182 13.229 53.8651 13.104 53.5331 12.936ZM55.7684 13.497C55.4754 13.434 55.2053 13.277 54.9893 13.07C54.6763 12.788 54.4362 12.433 54.2412 12.062C54.0772 11.749 53.9502 11.429 53.8421 11.101C54.4772 10.958 55.1203 10.898 55.7804 10.878C55.7684 11.757 55.7684 12.626 55.7684 13.497ZM55.7684 10.406C55.0733 10.419 54.3772 10.491 53.6981 10.638C53.4931 9.857 53.3911 9.042 53.3811 8.242C54.1792 8.236 54.9773 8.241 55.7774 8.239C55.7684 8.962 55.7684 9.686 55.7684 10.406ZM55.7684 7.76C54.9703 7.76 54.1722 7.759 53.3741 7.76C53.3871 6.951 53.4941 6.145 53.6951 5.362C54.3772 5.506 55.0703 5.583 55.7604 5.593C55.7684 6.315 55.7684 7.037 55.7684 7.76ZM55.7684 5.113C55.1193 5.102 54.4712 5.03 53.8361 4.9C54.0432 4.276 54.3262 3.666 54.7583 3.163C55.0243 2.856 55.3624 2.587 55.7684 2.503C55.7684 3.373 55.7684 4.243 55.7684 5.113ZM60.3801 4.627C61.0692 5.522 61.4783 6.63 61.5233 7.76C60.7242 7.76 59.9231 7.759 59.1269 7.76C59.1079 6.913 59.0019 6.068 58.7859 5.247C59.338 5.101 59.878 4.901 60.3801 4.627ZM57.7217 2.752C58.6129 3.042 59.426 3.565 60.0621 4.253C59.615 4.485 59.1379 4.661 58.6499 4.786C58.4488 4.166 58.1708 3.564 57.7807 3.041C57.6767 2.913 57.5737 2.769 57.4407 2.662C57.5297 2.699 57.6287 2.718 57.7217 2.752ZM56.2485 2.504C56.6486 2.585 56.9826 2.85 57.2467 3.15C57.6847 3.655 57.9728 4.27 58.1808 4.9C57.5447 5.03 56.8976 5.101 56.2485 5.113C56.2485 4.243 56.2485 3.373 56.2485 2.504ZM56.2485 5.593C56.6176 5.591 56.9866 5.558 57.3537 5.522C57.6687 5.475 57.9998 5.436 58.3168 5.359C58.5238 6.142 58.6259 6.95 58.6359 7.758C57.8367 7.762 57.0396 7.759 56.2395 7.76C56.2485 7.037 56.2485 6.315 56.2485 5.593ZM56.2485 8.24C57.0456 8.239 57.8447 8.24 58.6419 8.239C58.6319 9.048 58.5208 9.853 58.3238 10.635C57.6407 10.494 56.9466 10.414 56.2565 10.406C56.2485 9.686 56.2485 8.962 56.2485 8.24ZM56.2485 13.497C56.2485 12.626 56.2485 11.757 56.2485 10.887C56.8966 10.901 57.5477 10.966 58.1828 11.104C57.9878 11.671 57.7377 12.235 57.3647 12.708C57.0806 13.07 56.7116 13.4 56.2485 13.497ZM57.5807 13.292C57.5337 13.305 57.4907 13.327 57.4437 13.337C57.6917 13.1 57.8868 12.816 58.0708 12.524C58.3108 12.11 58.5028 11.67 58.6489 11.214C59.1289 11.339 59.614 11.514 60.0521 11.747C59.392 12.473 58.5268 13.014 57.5807 13.292ZM60.6632 10.966C60.5752 11.108 60.4751 11.238 60.3801 11.372C59.878 11.1 59.339 10.896 58.7859 10.753C58.9989 9.934 59.1079 9.087 59.1239 8.239C59.9241 8.241 60.7252 8.235 61.5243 8.242C61.4803 9.206 61.1852 10.154 60.6632 10.966Z" fill="#1B1F22"/>
<path d="M73.7321 2.652C72.949 2.248 72.0738 2.034 71.1927 2H70.8306C69.9495 2.033 69.0724 2.248 68.2893 2.652C66.9101 3.35 65.8229 4.601 65.3298 6.064C65.1228 6.665 65.0198 7.3 65.0098 7.935V8.063C65.0218 9.186 65.3538 10.303 65.9629 11.246C66.692 12.381 67.8132 13.26 69.0924 13.687C69.6515 13.875 70.2386 13.974 70.8286 14H71.1937C71.3817 13.984 71.5847 13.977 71.7798 13.949C72.7739 13.824 73.7351 13.437 74.5462 12.845C75.2343 12.338 75.8164 11.693 76.2344 10.949C76.7345 10.072 77.0006 9.066 77.0106 8.061V7.937C76.9996 7.2 76.8615 6.464 76.5835 5.78C76.0564 4.438 75.0193 3.304 73.7321 2.652ZM68.7723 2.954C69.0324 2.835 69.3054 2.747 69.5795 2.664C69.5164 2.715 69.4664 2.772 69.4094 2.835C68.9284 3.398 68.6003 4.084 68.3703 4.786C67.8902 4.66 67.4051 4.487 66.9671 4.252C67.4671 3.702 68.0882 3.257 68.7723 2.954ZM65.8649 5.997C66.0529 5.506 66.32 5.045 66.636 4.627C67.1371 4.901 67.6762 5.103 68.2332 5.247C68.0202 6.067 67.9102 6.913 67.8952 7.76C67.0951 7.758 66.295 7.763 65.4948 7.757C65.5258 7.156 65.6449 6.558 65.8649 5.997ZM66.639 11.372C66.269 10.889 65.9729 10.344 65.7799 9.764C65.6119 9.274 65.5218 8.759 65.4948 8.243C66.303 8.237 67.0991 8.242 67.8952 8.241C67.9112 9.088 68.0202 9.933 68.2332 10.754C67.6802 10.896 67.1411 11.1 66.639 11.372ZM68.5353 12.936C67.9432 12.639 67.4061 12.235 66.9571 11.748C67.4041 11.518 67.8812 11.34 68.3693 11.215C68.5703 11.834 68.8473 12.436 69.2364 12.959C69.3424 13.086 69.4414 13.23 69.5785 13.336C69.2204 13.229 68.8673 13.104 68.5353 12.936ZM70.7706 13.497C70.4776 13.434 70.2075 13.277 69.9915 13.07C69.6785 12.788 69.4384 12.433 69.2434 12.062C69.0794 11.749 68.9524 11.429 68.8443 11.101C69.4794 10.958 70.1225 10.898 70.7826 10.878C70.7706 11.757 70.7706 12.626 70.7706 13.497ZM70.7706 10.406C70.0755 10.419 69.3794 10.491 68.7003 10.638C68.4953 9.857 68.3933 9.042 68.3833 8.242C69.1814 8.236 69.9795 8.241 70.7796 8.239C70.7706 8.962 70.7706 9.686 70.7706 10.406ZM70.7706 7.76C69.9725 7.76 69.1744 7.759 68.3763 7.76C68.3893 6.951 68.4963 6.145 68.6973 5.362C69.3794 5.506 70.0725 5.583 70.7626 5.593C70.7706 6.315 70.7706 7.037 70.7706 7.76ZM70.7706 5.113C70.1215 5.102 69.4734 5.03 68.8383 4.9C69.0454 4.276 69.3284 3.666 69.7605 3.163C70.0265 2.856 70.3646 2.587 70.7706 2.503C70.7706 3.373 70.7706 4.243 70.7706 5.113ZM75.3823 4.627C76.0714 5.522 76.4805 6.63 76.5255 7.76C75.7264 7.76 74.9253 7.759 74.1291 7.76C74.1101 6.913 74.0041 6.068 73.7881 5.247C74.3402 5.101 74.8802 4.901 75.3823 4.627ZM72.7239 2.752C73.6151 3.042 74.4282 3.565 75.0643 4.253C74.6172 4.485 74.1401 4.661 73.6521 4.786C73.451 4.166 73.173 3.564 72.7829 3.041C72.6789 2.913 72.5759 2.769 72.4429 2.662C72.5319 2.699 72.6309 2.718 72.7239 2.752ZM71.2507 2.504C71.6508 2.585 71.9848 2.85 72.2489 3.15C72.6869 3.655 72.975 4.27 73.183 4.9C72.5469 5.03 71.8998 5.101 71.2507 5.113C71.2507 4.243 71.2507 3.373 71.2507 2.504ZM71.2507 5.593C71.6198 5.591 71.9888 5.558 72.3559 5.522C72.6709 5.475 73.002 5.436 73.319 5.359C73.526 6.142 73.6281 6.95 73.6381 7.758C72.8389 7.762 72.0418 7.759 71.2417 7.76C71.2507 7.037 71.2507 6.315 71.2507 5.593ZM71.2507 8.24C72.0478 8.239 72.8469 8.24 73.6441 8.239C73.6341 9.048 73.523 9.853 73.326 10.635C72.6429 10.494 71.9488 10.414 71.2587 10.406C71.2507 9.686 71.2507 8.962 71.2507 8.24ZM71.2507 13.497C71.2507 12.626 71.2507 11.757 71.2507 10.887C71.8988 10.901 72.5499 10.966 73.185 11.104C72.99 11.671 72.7399 12.235 72.3669 12.708C72.0828 13.07 71.7138 13.4 71.2507 13.497ZM72.5829 13.292C72.5359 13.305 72.4929 13.327 72.4459 13.337C72.6939 13.1 72.8889 12.816 73.073 12.524C73.313 12.11 73.505 11.67 73.6511 11.214C74.1311 11.339 74.6162 11.514 75.0543 11.747C74.3942 12.473 73.529 13.014 72.5829 13.292ZM75.6654 10.966C75.5774 11.108 75.4773 11.238 75.3823 11.372C74.8802 11.1 74.3412 10.896 73.7881 10.753C74.0011 9.934 74.1101 9.087 74.1261 8.239C74.9263 8.241 75.7274 8.235 76.5265 8.242C76.4825 9.206 76.1874 10.154 75.6654 10.966Z" fill="#1B1F22"/>
</svg>
