<svg width="80" height="16" viewBox="0 0 80 16" fill="none" xmlns="http://www.w3.org/2000/svg">
<g clip-path="url(#clip0_19_252)">
<path d="M12.736 3.768C12.682 3.656 12.613 3.557 12.5269 3.471C12.4419 3.386 12.3389 3.32 12.2269 3.271C12.1149 3.222 11.9949 3.197 11.8658 3.197H10.5616L10.2216 2.503C10.1586 2.364 10.0746 2.251 9.94555 2.165C9.82053 2.077 9.67851 2.023 9.52649 2H6.48203C6.32801 2.023 6.18599 2.078 6.05797 2.165C5.93095 2.251 5.83494 2.365 5.77093 2.504L5.43888 3.199H4.13468C4.00166 3.199 3.87864 3.224 3.76863 3.276C3.64361 3.325 3.54359 3.394 3.45558 3.48C3.37157 3.566 3.30156 3.669 3.25055 3.785C3.20054 3.902 3.17554 4.026 3.17554 4.157V13.053C3.17554 13.184 3.20054 13.309 3.25055 13.426C3.30156 13.544 3.37157 13.647 3.45558 13.727C3.54359 13.813 3.64361 13.879 3.76863 13.928C3.87764 13.975 4.00166 14 4.13468 14H11.8678C11.9989 13.992 12.1259 13.962 12.2409 13.906C12.3569 13.851 12.4609 13.781 12.5459 13.693C12.632 13.601 12.702 13.501 12.753 13.38C12.803 13.27 12.829 13.145 12.829 13.002V4.122C12.821 4 12.788 3.88 12.736 3.768ZM6.57805 2.797H9.42247L10.1356 4.339H5.85594L6.57805 2.797ZM11.2267 11.98C11.2267 12.45 10.8457 12.83 10.3726 12.83H5.6269C5.15583 12.83 4.77678 12.45 4.77678 11.98V6.177C4.77678 5.709 5.15583 5.327 5.6269 5.327H10.3766C10.8547 5.327 11.2307 5.707 11.2307 6.177L11.2267 11.98Z" fill="#1B1F22"/>
<path d="M10.4106 8.40399H5.63892V9.07799H10.4106V8.40399Z" fill="#1B1F22"/>
<path d="M9.74253 11.104H5.63892V11.778H9.74253V11.104Z" fill="#1B1F22"/>
<path d="M5.97597 7.39201H10.0196C10.2046 7.39201 10.3566 7.24101 10.3566 7.05501V6.71801C10.3566 6.53001 10.2046 6.38101 10.0196 6.38101H5.97597C5.78794 6.38101 5.63892 6.53101 5.63892 6.71801V7.05501C5.63892 7.24001 5.79094 7.39201 5.97597 7.39201Z" fill="#1B1F22"/>
<path d="M28.7384 3.768C28.6844 3.656 28.6153 3.557 28.5293 3.471C28.4443 3.386 28.3413 3.32 28.2293 3.271C28.1173 3.222 27.9982 3.197 27.8692 3.197H26.564L26.224 2.503C26.161 2.364 26.077 2.251 25.9489 2.165C25.8229 2.077 25.6809 2.023 25.5289 2H22.4844C22.3294 2.023 22.1884 2.078 22.0594 2.165C21.9333 2.251 21.8303 2.365 21.7743 2.504L21.4413 3.199H20.1331C20.002 3.199 19.877 3.224 19.759 3.276C19.651 3.325 19.542 3.394 19.454 3.48C19.371 3.566 19.2999 3.669 19.2489 3.785C19.1999 3.903 19.1749 4.026 19.1749 4.158V13.053C19.1749 13.186 19.1999 13.311 19.2499 13.428C19.3009 13.545 19.372 13.647 19.455 13.729C19.543 13.813 19.643 13.88 19.76 13.93C19.878 13.975 20.0031 14 20.1341 14H27.8672C27.9983 13.992 28.1253 13.962 28.2403 13.906C28.3563 13.851 28.4603 13.781 28.5453 13.693C28.6313 13.601 28.7014 13.501 28.7514 13.38C28.8024 13.27 28.8284 13.145 28.8284 13.002V4.122C28.8234 4 28.7904 3.88 28.7384 3.768ZM22.5804 2.797H25.4239L26.137 4.339H21.8633L22.5804 2.797ZM27.2291 11.98C27.2291 12.45 26.8491 12.83 26.375 12.83H21.6263C21.1542 12.83 20.7752 12.45 20.7752 11.98V6.177C20.7752 5.709 21.1542 5.327 21.6263 5.327H26.375C26.8541 5.327 27.2291 5.707 27.2291 6.177V11.98Z" fill="#1B1F22"/>
<path d="M26.4131 8.40399H21.6414V9.07799H26.4131V8.40399Z" fill="#1B1F22"/>
<path d="M25.745 11.104H21.6414V11.778H25.745V11.104Z" fill="#1B1F22"/>
<path d="M21.9784 7.39201H26.022C26.207 7.39201 26.359 7.24101 26.359 7.05501V6.71801C26.359 6.53001 26.207 6.38101 26.022 6.38101H21.9784C21.7904 6.38101 21.6423 6.53101 21.6423 6.71801V7.05501C21.6413 7.24001 21.7934 7.39201 21.9784 7.39201Z" fill="#1B1F22"/>
<path d="M44.7407 3.768C44.6857 3.656 44.6167 3.557 44.5317 3.471C44.4466 3.386 44.3436 3.32 44.2326 3.271C44.1196 3.222 44.0006 3.197 43.8716 3.197H42.5654L42.2253 2.503C42.1623 2.364 42.0793 2.251 41.9513 2.165C41.8252 2.077 41.6832 2.023 41.5312 2H38.4867C38.3317 2.023 38.1907 2.078 38.0617 2.165C37.9357 2.251 37.8326 2.365 37.7766 2.504L37.4436 3.199H36.1354C36.0044 3.199 35.8794 3.224 35.7613 3.276C35.6533 3.325 35.5443 3.394 35.4563 3.48C35.3733 3.566 35.3023 3.669 35.2513 3.785C35.2022 3.903 35.1772 4.026 35.1772 4.158V13.053C35.1772 13.186 35.2023 13.311 35.2523 13.428C35.3033 13.545 35.3743 13.647 35.4573 13.729C35.5453 13.813 35.6453 13.88 35.7623 13.93C35.8804 13.975 36.0054 14 36.1364 14H43.8695C44.0006 13.992 44.1276 13.962 44.2436 13.906C44.3596 13.851 44.4616 13.781 44.5487 13.693C44.6337 13.601 44.7037 13.501 44.7537 13.38C44.8057 13.27 44.8307 13.145 44.8307 13.002V4.122C44.8257 4 44.7917 3.88 44.7407 3.768ZM38.5828 2.797H41.4262L42.1393 4.339H37.8656L38.5828 2.797ZM43.2315 11.98C43.2315 12.45 42.8514 12.83 42.3773 12.83H37.6276C37.1555 12.83 36.7765 12.45 36.7765 11.98V6.177C36.7765 5.709 37.1555 5.327 37.6276 5.327H42.3773C42.8554 5.327 43.2315 5.707 43.2315 6.177V11.98Z" fill="#878586"/>
<path d="M42.4153 8.40399H37.6436V9.07799H42.4153V8.40399Z" fill="#878586"/>
<path d="M41.7482 11.104H37.6436V11.778H41.7482V11.104Z" fill="#878586"/>
<path d="M37.9807 7.39201H42.0243C42.2093 7.39201 42.3614 7.24101 42.3614 7.05501V6.71801C42.3614 6.53001 42.2093 6.38101 42.0243 6.38101H37.9807C37.7927 6.38101 37.6447 6.53101 37.6447 6.71801V7.05501C37.6437 7.24001 37.7957 7.39201 37.9807 7.39201Z" fill="#878586"/>
<path d="M60.7431 3.768C60.688 3.656 60.619 3.557 60.534 3.471C60.449 3.386 60.346 3.32 60.235 3.271C60.122 3.222 60.0029 3.197 59.8739 3.197H58.5677L58.2277 2.503C58.1647 2.364 58.0817 2.251 57.9536 2.165C57.8276 2.077 57.6856 2.023 57.5336 2H54.4881C54.3341 2.023 54.1931 2.078 54.064 2.165C53.937 2.251 53.835 2.365 53.779 2.504L53.445 3.199H52.1378C52.0067 3.199 51.8817 3.224 51.7637 3.276C51.6557 3.325 51.5477 3.394 51.4587 3.48C51.3786 3.566 51.3076 3.669 51.2576 3.785C51.2066 3.903 51.1826 4.026 51.1826 4.158V13.053C51.1826 13.186 51.2066 13.311 51.2586 13.428C51.3086 13.545 51.3796 13.647 51.4627 13.729C51.5517 13.813 51.6507 13.88 51.7737 13.93C51.8847 13.975 52.0097 14 52.1408 14H59.8739C60.0049 13.992 60.132 13.962 60.248 13.906C60.364 13.851 60.466 13.781 60.553 13.693C60.638 13.601 60.708 13.501 60.7581 13.38C60.8101 13.27 60.8351 13.145 60.8351 13.002V4.122C60.8281 4 60.7941 3.88 60.7431 3.768ZM54.5861 2.797H57.4286L58.1417 4.339H53.868L54.5861 2.797ZM59.2338 11.98C59.2338 12.45 58.8538 12.83 58.3797 12.83H53.629C53.1579 12.83 52.7789 12.45 52.7789 11.98V6.177C52.7789 5.709 53.1579 5.327 53.629 5.327H58.3797C58.8578 5.327 59.2338 5.707 59.2338 6.177V11.98Z" fill="#1B1F22"/>
<path d="M58.4167 8.40399H53.645V9.07799H58.4167V8.40399Z" fill="#1B1F22"/>
<path d="M57.7496 11.104H53.645V11.778H57.7496V11.104Z" fill="#1B1F22"/>
<path d="M53.983 7.39201H58.0267C58.2117 7.39201 58.3637 7.24101 58.3637 7.05501V6.71801C58.3637 6.53001 58.2117 6.38101 58.0267 6.38101H53.983C53.795 6.38101 53.648 6.53101 53.648 6.71801V7.05501C53.645 7.24001 53.797 7.39201 53.983 7.39201Z" fill="#1B1F22"/>
<path d="M76.7455 3.768C76.6905 3.656 76.6215 3.557 76.5365 3.471C76.4514 3.386 76.3484 3.32 76.2374 3.271C76.1244 3.222 76.0054 3.197 75.8764 3.197H74.5702L74.2301 2.503C74.1671 2.364 74.0841 2.251 73.9561 2.165C73.8301 2.077 73.688 2.023 73.536 2H70.4906C70.3365 2.023 70.1955 2.078 70.0665 2.165C69.9395 2.251 69.8375 2.365 69.7814 2.504L69.4474 3.199H68.1402C68.0092 3.199 67.8842 3.224 67.7661 3.276C67.6581 3.325 67.5501 3.394 67.4611 3.48C67.3811 3.566 67.3101 3.669 67.2601 3.785C67.2091 3.903 67.1851 4.026 67.1851 4.158V13.053C67.1851 13.186 67.2091 13.311 67.2611 13.428C67.3111 13.545 67.3821 13.647 67.4651 13.729C67.5541 13.813 67.6531 13.88 67.7781 13.93C67.8872 13.975 68.0122 14 68.1432 14H75.8764C76.0074 13.992 76.1344 13.962 76.2504 13.906C76.3664 13.851 76.4684 13.781 76.5555 13.693C76.6405 13.601 76.7105 13.501 76.7605 13.38C76.8185 13.27 76.8375 13.145 76.8375 13.002V4.122C76.8305 4 76.7965 3.88 76.7455 3.768ZM70.5886 2.797H73.431L74.1441 4.339H69.8705L70.5886 2.797ZM75.2363 11.98C75.2363 12.45 74.8562 12.83 74.3821 12.83H69.6314C69.1604 12.83 68.7813 12.45 68.7813 11.98V6.177C68.7813 5.709 69.1604 5.327 69.6314 5.327H74.3821C74.8602 5.327 75.2363 5.707 75.2363 6.177V11.98Z" fill="#1B1F22"/>
<path d="M74.4192 8.40399H69.6475V9.07799H74.4192V8.40399Z" fill="#1B1F22"/>
<path d="M73.7521 11.104H69.6475V11.778H73.7521V11.104Z" fill="#1B1F22"/>
<path d="M70.3351 7.011H74.3787C74.5637 7.011 74.7158 6.86 74.7158 6.674V6.337C74.7158 6.149 74.5637 6 74.3787 6H70.3351C70.1471 6 70 6.15 70 6.337V6.674C69.997 6.859 70.1491 7.011 70.3351 7.011Z" fill="#1B1F22"/>
</g>
<defs>
<clipPath id="clip0_19_252">
<rect width="80" height="16" fill="white"/>
</clipPath>
</defs>
</svg>
