<svg width="80" height="16" viewBox="0 0 80 16" fill="none" xmlns="http://www.w3.org/2000/svg">
<g clip-path="url(#clip0_19_273)">
<path d="M39.989 2.67297L34.0051 7.80697H35.6934V13.328H38.6848V8.20597H41.2652V13.328H44.1877V7.80697H46.0069L39.989 2.67297Z" fill="#878586"/>
<path d="M23.9866 2.67297L18.0027 7.80697H19.6909V13.328H22.6824V8.20597H25.2638V13.328H28.1852V7.80697H30.0045L23.9866 2.67297Z" fill="#1B1F22"/>
<path d="M7.98414 2.67297L2.00024 7.80697H3.6885V13.328H6.67995V8.20597H9.26133V13.328H12.1828V7.80697H14.002L7.98414 2.67297Z" fill="#1B1F22"/>
<path d="M55.9925 2.67297L50.0076 7.80697H51.6958V13.328H54.6863V8.20597H57.2677V13.328H60.1901V7.80697H62.0094L55.9925 2.67297Z" fill="#1B1F22"/>
<path d="M71.9838 2.67297L65.9989 7.80697H67.6872V13.328H70.6786V8.20597H73.261V13.328H76.1824V7.80697H78.0007L71.9838 2.67297Z" fill="#1B1F22"/>
</g>
<defs>
<clipPath id="clip0_19_273">
<rect width="80" height="16" fill="white"/>
</clipPath>
</defs>
</svg>
