<svg width="160" height="32" viewBox="0 0 160 32" fill="none" xmlns="http://www.w3.org/2000/svg">
<g clip-path="url(#clip0_19_316)">
<path d="M11.914 15.984L0 4.067L4.131 0L15.994 11.952L27.906 0L32 4.067L20.088 15.984L32 27.932L27.906 32L15.991 20.123L4.131 32L0 27.932L11.914 15.984Z" fill="black"/>
<path d="M43.914 15.984L32 4.067L36.131 0L47.994 11.952L59.906 0L64 4.067L52.088 15.984L64 27.932L59.906 32L47.99 20.123L36.131 32L32 27.932L43.914 15.984Z" fill="black"/>
<path opacity="0.5" d="M75.914 15.984L64 4.067L68.131 0L79.994 11.952L91.906 0L96 4.067L84.088 15.984L96 27.932L91.906 32L79.99 20.123L68.131 32L64 27.932L75.914 15.984Z" fill="black"/>
<path d="M107.914 15.984L96 4.067L100.131 0L111.994 11.952L123.906 0L128 4.067L116.088 15.984L128 27.932L123.906 32L111.99 20.123L100.131 32L96 27.932L107.914 15.984Z" fill="black"/>
<path d="M139.914 15.984L128 4.067L132.131 0L143.994 11.952L155.906 0L160 4.067L148.088 15.984L160 27.932L155.906 32L143.99 20.123L132.131 32L128 27.932L139.914 15.984Z" fill="black"/>
</g>
<defs>
<clipPath id="clip0_19_316">
<rect width="160" height="32" fill="white"/>
</clipPath>
</defs>
</svg>
