<svg width="80" height="16" viewBox="0 0 80 16" fill="none" xmlns="http://www.w3.org/2000/svg">
<g clip-path="url(#clip0_19_194)">
<path d="M8.92928 6.379L11.6987 9.314V6.928L7.99214 3L4.30359 6.911V9.297L7.058 6.379V13H8.92928V6.379Z" fill="#1B1F22"/>
<path d="M24.9317 6.379L27.7011 9.314V6.928L23.9946 3L20.306 6.911V9.297L23.0604 6.379V13H24.9317V6.379Z" fill="#1B1F22"/>
<path d="M40.9342 6.379L43.7036 9.314V6.928L39.997 3L36.3085 6.911V9.297L39.0629 6.379V13H40.9342V6.379Z" fill="#878586"/>
<path d="M56.9365 6.379L59.7059 9.314V6.928L55.9993 3L52.3108 6.911V9.297L55.0652 6.379V13H56.9365V6.379Z" fill="#1B1F22"/>
<path d="M73.2299 6.379L75.9994 9.314V6.928L72.2928 3L68.6042 6.911V9.297L71.3587 6.379V13H73.2299V6.379Z" fill="#1B1F22"/>
</g>
<defs>
<clipPath id="clip0_19_194">
<rect width="80" height="16" fill="white"/>
</clipPath>
</defs>
</svg>
