<svg width="168" height="14" viewBox="0 0 168 14" fill="none" xmlns="http://www.w3.org/2000/svg">
<rect x="0.625" y="0.625" width="12.75" height="12.75" rx="6.375" fill="#808080" stroke="#808080" stroke-width="1.25"/>
<rect x="4" y="4" width="6" height="6" rx="3" fill="black"/>
<rect x="14.625" y="0.625" width="12.75" height="12.75" rx="6.375" fill="#808080" stroke="#808080" stroke-width="1.25"/>
<rect x="18" y="4" width="6" height="6" rx="3" fill="black"/>
<rect opacity="0.25" x="28.625" y="0.625" width="12.75" height="12.75" rx="6.375" fill="#808080" stroke="#808080" stroke-width="1.25"/>
<rect opacity="0.25" x="32" y="4" width="6" height="6" rx="3" fill="black"/>
<rect x="42.625" y="0.625" width="12.75" height="12.75" rx="6.375" fill="#808080" stroke="#808080" stroke-width="1.25"/>
<rect x="46" y="4" width="6" height="6" rx="3" fill="black"/>
<rect x="56.625" y="0.625" width="12.75" height="12.75" rx="6.375" fill="#FFFF00" stroke="#808080" stroke-width="1.25"/>
<rect x="70.625" y="0.625" width="12.75" height="12.75" rx="6.375" fill="#FFFF00" stroke="#808080" stroke-width="1.25"/>
<rect opacity="0.25" x="84.625" y="0.625" width="12.75" height="12.75" rx="6.375" fill="#808080" stroke="#808080" stroke-width="1.25"/>
<rect x="98.625" y="0.625" width="12.75" height="12.75" rx="6.375" fill="#FFFF00" stroke="#808080" stroke-width="1.25"/>
<rect x="112.625" y="0.625" width="12.75" height="12.75" rx="6.375" fill="#808080" stroke="#808080" stroke-width="1.25"/>
<rect x="126.625" y="0.625" width="12.75" height="12.75" rx="6.375" fill="#808080" stroke="#808080" stroke-width="1.25"/>
<rect opacity="0.25" x="140.625" y="0.625" width="12.75" height="12.75" rx="6.375" fill="#808080" stroke="#808080" stroke-width="1.25"/>
<rect x="154.625" y="0.625" width="12.75" height="12.75" rx="6.375" fill="#808080" stroke="#808080" stroke-width="1.25"/>
</svg>
