<svg width="80" height="16" viewBox="0 0 80 16" fill="none" xmlns="http://www.w3.org/2000/svg">
<g clip-path="url(#clip0_19_272)">
<path d="M40.4056 12.716C40.1936 12.904 39.9466 13 39.6776 13C39.4066 13 39.1566 12.902 38.9486 12.716C38.7426 12.531 38.6356 12.296 38.6356 12.022C38.6356 11.748 38.7436 11.507 38.9496 11.329C39.1536 11.141 39.3996 11.042 39.6786 11.042C39.9536 11.042 40.1996 11.142 40.4076 11.329C40.6116 11.511 40.7136 11.745 40.7136 12.022C40.7166 12.296 40.6096 12.531 40.4056 12.716Z" fill="#878586"/>
<path d="M42.3606 6.217C42.2426 6.49 42.0896 6.745 41.9126 6.971C41.7356 7.198 41.5466 7.404 41.3376 7.58C41.1386 7.751 40.9506 7.923 40.7766 8.096C40.6056 8.26 40.4656 8.436 40.3526 8.613C40.2486 8.783 40.1966 8.974 40.1966 9.183C40.1966 9.365 40.2176 9.525 40.2596 9.664L40.2806 9.726C40.2906 9.738 40.3006 9.753 40.3006 9.775C40.3006 9.828 40.2566 9.872 40.2026 9.872C40.2026 9.872 40.1996 9.872 40.1976 9.872H38.8606C38.8246 9.872 38.7876 9.848 38.7726 9.816L38.7176 9.699C38.6886 9.495 38.6676 9.314 38.6676 9.136C38.6676 8.854 38.7296 8.593 38.8376 8.36C38.9486 8.132 39.0876 7.921 39.2566 7.725C39.4236 7.534 39.6056 7.345 39.7936 7.165C39.9816 6.992 40.1506 6.818 40.3146 6.651C40.4636 6.49 40.6026 6.315 40.7066 6.139C40.8066 5.968 40.8546 5.778 40.8546 5.573C40.8546 5.392 40.8186 5.232 40.7486 5.096C40.6776 4.962 40.5756 4.849 40.4446 4.757C40.3146 4.665 40.1656 4.595 39.9996 4.551C39.8306 4.503 39.6456 4.479 39.4496 4.479C38.8196 4.479 38.2076 4.767 37.6286 5.335C37.6076 5.362 37.5656 5.372 37.5256 5.355C37.4906 5.342 37.4656 5.306 37.4656 5.27V3.732C37.4656 3.698 37.4866 3.668 37.5076 3.652C38.2526 3.22 39.0326 3 39.8216 3C40.1906 3 40.5376 3.048 40.8666 3.143C41.1946 3.239 41.4876 3.385 41.7336 3.572C41.9786 3.762 42.1756 4 42.3216 4.283C42.4676 4.563 42.5436 4.895 42.5436 5.267C42.5436 5.621 42.4796 5.939 42.3606 6.217Z" fill="#878586"/>
<path d="M8.39908 12.716C8.18708 12.904 7.94008 13 7.66908 13C7.39808 13 7.14908 12.902 6.94008 12.716C6.73408 12.531 6.62708 12.296 6.62708 12.022C6.62708 11.748 6.73608 11.507 6.94208 11.329C7.14408 11.141 7.39208 11.042 7.67108 11.042C7.94808 11.042 8.19307 11.142 8.40007 11.329C8.60307 11.511 8.70808 11.745 8.70808 12.022C8.70808 12.296 8.60408 12.531 8.39908 12.716Z" fill="#1B1F22"/>
<path d="M10.354 6.217C10.237 6.49 10.083 6.745 9.90604 6.971C9.73004 7.198 9.53804 7.403 9.33204 7.58C9.13204 7.75 8.94304 7.922 8.77004 8.096C8.60004 8.26 8.45904 8.436 8.34604 8.613C8.24304 8.783 8.19004 8.977 8.19004 9.184C8.19004 9.372 8.21104 9.528 8.25304 9.672L8.27404 9.729C8.28404 9.747 8.29404 9.762 8.29404 9.778C8.29404 9.836 8.25004 9.88 8.19604 9.88C8.19604 9.88 8.19304 9.88 8.19104 9.88H6.85204C6.81404 9.88 6.77904 9.859 6.76404 9.817L6.71704 9.699C6.68804 9.495 6.66704 9.314 6.66704 9.136C6.66704 8.854 6.72904 8.593 6.83704 8.36C6.94704 8.132 7.08704 7.921 7.25604 7.725C7.42304 7.534 7.60504 7.345 7.79104 7.165C7.97604 6.993 8.15004 6.818 8.30904 6.651C8.45804 6.49 8.59604 6.315 8.69904 6.139C8.80004 5.968 8.84904 5.778 8.84904 5.573C8.84904 5.392 8.81404 5.232 8.74204 5.096C8.67204 4.962 8.57104 4.849 8.43904 4.757C8.30904 4.665 8.16004 4.595 7.99404 4.551C7.82504 4.503 7.64004 4.479 7.44404 4.479C6.81404 4.479 6.20204 4.767 5.62304 5.335C5.59404 5.362 5.55404 5.372 5.52004 5.354C5.48504 5.342 5.46204 5.306 5.46204 5.269V3.732C5.46204 3.698 5.48304 3.668 5.50504 3.652C6.24604 3.22 7.02504 3 7.81504 3C8.18404 3 8.53104 3.047 8.86004 3.143C9.18704 3.239 9.47904 3.385 9.72704 3.572C9.97304 3.762 10.173 4 10.316 4.283C10.462 4.563 10.538 4.895 10.538 5.267C10.537 5.621 10.475 5.939 10.354 6.217Z" fill="#1B1F22"/>
<path d="M24.4022 12.716C24.1902 12.904 23.9432 13 23.6722 13C23.4012 13 23.1522 12.902 22.9432 12.716C22.7372 12.531 22.6302 12.296 22.6302 12.022C22.6302 11.748 22.7392 11.507 22.9452 11.329C23.1472 11.141 23.3952 11.042 23.6742 11.042C23.9512 11.042 24.1962 11.142 24.4032 11.329C24.6062 11.511 24.7112 11.745 24.7112 12.022C24.7112 12.296 24.6072 12.531 24.4022 12.716Z" fill="#1B1F22"/>
<path d="M26.3573 6.217C26.2403 6.49 26.0863 6.745 25.9093 6.971C25.7333 7.198 25.5413 7.404 25.3353 7.58C25.1353 7.751 24.9463 7.923 24.7733 8.096C24.6033 8.26 24.4603 8.436 24.3493 8.613C24.2453 8.784 24.1933 8.976 24.1933 9.183C24.1933 9.366 24.2143 9.527 24.2563 9.665L24.2773 9.728C24.2873 9.74 24.2973 9.755 24.2973 9.777C24.2973 9.829 24.2533 9.873 24.1993 9.873C24.1993 9.873 24.1963 9.873 24.1943 9.873H22.8573C22.8193 9.873 22.7843 9.85 22.7693 9.816L22.7193 9.7C22.6903 9.496 22.6693 9.316 22.6693 9.137C22.6693 8.854 22.7313 8.594 22.8393 8.362C22.9493 8.134 23.0893 7.923 23.2583 7.727C23.4253 7.536 23.6073 7.347 23.7933 7.167C23.9813 6.994 24.1513 6.82 24.3143 6.653C24.4633 6.492 24.6023 6.317 24.7053 6.141C24.8093 5.97 24.8553 5.78 24.8553 5.575C24.8553 5.394 24.8203 5.234 24.7483 5.098C24.6783 4.964 24.5773 4.851 24.4453 4.759C24.3153 4.667 24.1663 4.597 24.0003 4.553C23.8313 4.505 23.6463 4.481 23.4503 4.481C22.8203 4.481 22.2083 4.769 21.6293 5.337C21.6073 5.364 21.5663 5.374 21.5263 5.357C21.4913 5.344 21.4633 5.308 21.4633 5.272V3.732C21.4633 3.698 21.4843 3.668 21.5063 3.652C22.2493 3.22 23.0283 3 23.8183 3C24.1873 3 24.5343 3.048 24.8633 3.143C25.1903 3.239 25.4823 3.385 25.7303 3.572C25.9763 3.762 26.1733 4 26.3193 4.283C26.4653 4.563 26.5413 4.895 26.5413 5.267C26.5403 5.621 26.4783 5.939 26.3573 6.217Z" fill="#1B1F22"/>
<path d="M56.407 12.716C56.194 12.904 55.948 13 55.677 13C55.406 13 55.157 12.902 54.948 12.716C54.742 12.531 54.635 12.296 54.635 12.022C54.635 11.748 54.742 11.507 54.948 11.329C55.152 11.141 55.401 11.042 55.677 11.042C55.953 11.042 56.201 11.142 56.407 11.329C56.61 11.511 56.713 11.745 56.713 12.022C56.718 12.296 56.611 12.531 56.407 12.716Z" fill="#1B1F22"/>
<path d="M58.362 6.217C58.244 6.49 58.091 6.745 57.914 6.971C57.737 7.198 57.548 7.404 57.339 7.58C57.14 7.751 56.952 7.923 56.778 8.096C56.606 8.26 56.465 8.436 56.352 8.613C56.248 8.784 56.2 8.976 56.2 9.183C56.2 9.366 56.221 9.527 56.263 9.665L56.284 9.728C56.294 9.74 56.303 9.755 56.303 9.777C56.303 9.829 56.258 9.873 56.205 9.873C56.205 9.873 56.204 9.873 56.198 9.873H54.858C54.824 9.873 54.787 9.85 54.774 9.816L54.726 9.7C54.695 9.496 54.672 9.316 54.672 9.137C54.672 8.854 54.735 8.594 54.844 8.362C54.954 8.134 55.096 7.923 55.263 7.727C55.43 7.536 55.613 7.347 55.8 7.167C55.988 6.994 56.155 6.82 56.321 6.653C56.469 6.492 56.607 6.317 56.712 6.141C56.816 5.97 56.859 5.78 56.859 5.575C56.859 5.394 56.823 5.234 56.753 5.098C56.682 4.964 56.583 4.851 56.449 4.759C56.32 4.667 56.169 4.597 56.002 4.553C55.835 4.505 55.649 4.481 55.454 4.481C54.825 4.481 54.212 4.769 53.634 5.337C53.613 5.364 53.571 5.374 53.53 5.357C53.493 5.344 53.467 5.308 53.467 5.272V3.732C53.467 3.698 53.488 3.668 53.511 3.652C54.253 3.22 55.032 3 55.823 3C56.192 3 56.538 3.048 56.868 3.143C57.196 3.239 57.489 3.385 57.735 3.572C57.98 3.762 58.178 4 58.323 4.283C58.469 4.563 58.545 4.895 58.545 5.267C58.545 5.621 58.481 5.939 58.362 6.217Z" fill="#1B1F22"/>
<path d="M72.3974 12.716C72.1854 12.904 71.9384 13 71.6674 13C71.3934 13 71.1474 12.902 70.9354 12.716C70.7354 12.531 70.6234 12.296 70.6234 12.022C70.6234 11.748 70.7304 11.507 70.9364 11.329C71.1404 11.141 71.3894 11.042 71.6664 11.042C71.9414 11.042 72.1904 11.142 72.3964 11.329C72.5924 11.511 72.7024 11.745 72.7024 12.022C72.7084 12.296 72.6024 12.531 72.3974 12.716Z" fill="#1B1F22"/>
<path d="M74.3544 6.217C74.2374 6.49 74.0834 6.745 73.9074 6.971C73.7294 7.198 73.5414 7.404 73.3324 7.58C73.1334 7.751 72.9454 7.923 72.7694 8.096C72.5974 8.26 72.4574 8.436 72.3434 8.613C72.2414 8.784 72.1974 8.976 72.1974 9.183C72.1974 9.366 72.2184 9.527 72.2604 9.665L72.2814 9.728C72.2914 9.74 72.3004 9.755 72.3004 9.777C72.3004 9.829 72.2554 9.873 72.2024 9.873C72.2024 9.873 72.2014 9.873 72.1934 9.873H70.8504C70.8234 9.873 70.7864 9.85 70.7664 9.816L70.7174 9.7C70.6794 9.496 70.6634 9.316 70.6634 9.137C70.6634 8.854 70.7204 8.594 70.8354 8.362C70.9454 8.134 71.0874 7.923 71.2544 7.727C71.4214 7.536 71.5974 7.347 71.7914 7.167C71.9764 6.994 72.1464 6.82 72.3094 6.653C72.4644 6.492 72.5954 6.317 72.7054 6.141C72.8054 5.97 72.8514 5.78 72.8514 5.575C72.8514 5.394 72.8214 5.234 72.7474 5.098C72.6764 4.964 72.5774 4.851 72.4434 4.759C72.3074 4.667 72.1634 4.597 71.9964 4.553C71.8294 4.505 71.6424 4.481 71.4484 4.481C70.8194 4.481 70.2064 4.769 69.6284 5.337C69.6004 5.364 69.5614 5.374 69.5244 5.357C69.4884 5.344 69.4614 5.308 69.4614 5.272V3.732C69.4614 3.698 69.4824 3.668 69.5054 3.652C70.2434 3.22 71.0224 3 71.8134 3C72.1754 3 72.5284 3.048 72.8584 3.143C73.1794 3.239 73.4794 3.385 73.7184 3.572C73.9664 3.762 74.1684 4 74.3134 4.283C74.4594 4.563 74.5354 4.895 74.5354 5.267C74.5354 5.621 74.4724 5.939 74.3544 6.217Z" fill="#1B1F22"/>
</g>
<defs>
<clipPath id="clip0_19_272">
<rect width="80" height="16" fill="white"/>
</clipPath>
</defs>
</svg>
