<svg width="80" height="16" viewBox="0 0 80 16" fill="none" xmlns="http://www.w3.org/2000/svg">
<g clip-path="url(#clip0_19_196)">
<path d="M9.62099 8.92801L6.68555 11.697H9.07291L13.0015 7.99101L9.09091 4.30301H6.70356L9.62099 7.05601H3V8.92801H9.62099Z" fill="#1B1F22"/>
<path d="M25.6238 8.92801L22.6894 11.697H25.0757L29.0043 7.99101L25.0937 4.30301H22.7064L25.6238 7.05601H19.0028V8.92801H25.6238Z" fill="#1B1F22"/>
<path d="M41.6262 8.92801L38.6918 11.697H41.0782L45.0067 7.99101L41.0962 4.30301H38.7088L41.6262 7.05601H35.0052V8.92801H41.6262Z" fill="#878586"/>
<path d="M57.6286 8.92801L54.6941 11.697H57.0805L61.0091 7.99101L57.0985 4.30301H54.7111L57.6286 7.05601H51.0076V8.92801H57.6286Z" fill="#1B1F22"/>
<path d="M73.619 8.92801L70.6846 11.697H73.072L76.9995 7.99101L73.089 4.30301H70.7016L73.619 7.05601H66.998V8.92801H73.619Z" fill="#1B1F22"/>
</g>
<defs>
<clipPath id="clip0_19_196">
<rect width="80" height="16" fill="white"/>
</clipPath>
</defs>
</svg>
