<svg width="80" height="16" viewBox="0 0 80 16" fill="none" xmlns="http://www.w3.org/2000/svg">
<g clip-path="url(#clip0_16_45)">
<path d="M4.21167 3H6.83706L11.7908 8L6.86907 13H4.21167L9.21942 8L4.21167 3Z" fill="#1B1F22"/>
<path d="M20.214 3H22.8394L27.7931 8L22.8714 13H20.214L25.2267 8L20.214 3Z" fill="#1B1F22"/>
<path d="M36.2164 3H38.8418L43.7956 8L38.8738 13H36.2164L41.2242 8L36.2164 3Z" fill="#878586"/>
<path d="M52.2188 3H54.8441L59.7979 8L54.8761 13H52.2188L57.2265 8L52.2188 3Z" fill="#1B1F22"/>
<path d="M68.4203 3H71.0457L75.9994 8L71.0777 13H68.4203L73.428 8L68.4203 3Z" fill="#1B1F22"/>
</g>
<defs>
<clipPath id="clip0_16_45">
<rect width="80" height="16" fill="white"/>
</clipPath>
</defs>
</svg>
