<svg width="160" height="32" viewBox="0 0 160 32" fill="none" xmlns="http://www.w3.org/2000/svg">
<g clip-path="url(#clip0_19_329)">
<path d="M118.15 20.925H105.838V23.381H118.15V20.925Z" fill="black"/>
<path d="M114.454 24.619H105.838V27.075H114.454V24.619Z" fill="black"/>
<path d="M124.298 9.847H123.041V3.693C123.041 1.658 121.391 0 119.353 0H104.58C102.544 0 100.892 1.658 100.892 3.692V9.846H99.686C97.648 9.846 95.995 11.499 95.995 13.538V20.924C95.995 22.962 97.649 24.618 99.686 24.618H100.892V28.306C100.892 30.337 102.541 31.994 104.58 31.994H119.351C121.379 31.994 123.039 30.338 123.039 28.306V24.605H124.296C126.333 24.605 127.986 22.959 127.986 20.917V13.532C127.991 11.5 126.335 9.847 124.298 9.847ZM103.35 3.692C103.35 3.014 103.903 2.463 104.579 2.463H119.35C120.029 2.463 120.579 3.013 120.579 3.692V9.846H103.35V3.692ZM120.585 28.313C120.585 28.995 120.028 29.542 119.356 29.542H104.58C103.902 29.542 103.351 28.992 103.351 28.313V18.463H120.58L120.585 28.313ZM122.454 16C121.433 16 120.602 15.172 120.602 14.153C120.602 13.132 121.433 12.307 122.447 12.307H122.454C123.475 12.307 124.298 13.135 124.298 14.153C124.298 15.172 123.472 16 122.454 16Z" fill="black"/>
<path d="M150.148 20.925H137.835V23.381H150.148V20.925Z" fill="black"/>
<path d="M146.451 24.619H137.835V27.075H146.451V24.619Z" fill="black"/>
<path d="M156.295 9.84698H155.038V3.69298C155.038 1.65798 153.382 0.000976562 151.35 0.000976562H136.579C134.544 0.000976562 132.891 1.65898 132.891 3.69298V9.84698H131.684C129.647 9.84698 127.993 11.5 127.993 13.539V20.925C127.993 22.963 129.647 24.619 131.684 24.619H132.89V28.307C132.89 30.344 134.539 32 136.578 32H151.349C153.377 32 155.037 30.344 155.037 28.312V24.611H156.294C158.331 24.611 159.984 22.963 159.984 20.923V13.538C159.989 11.5 158.332 9.84698 156.295 9.84698ZM135.347 3.69198C135.347 3.01398 135.9 2.46298 136.576 2.46298H151.347C152.026 2.46298 152.576 3.01298 152.576 3.69198V9.84598H135.347V3.69198ZM152.582 28.313C152.582 28.995 152.025 29.542 151.353 29.542H136.58C135.902 29.542 135.351 28.992 135.351 28.313V18.463H152.58L152.582 28.313ZM154.451 16C153.43 16 152.599 15.172 152.599 14.153C152.599 13.132 153.43 12.307 154.444 12.307H154.451C155.472 12.307 156.295 13.135 156.295 14.153C156.295 15.172 155.469 16 154.451 16Z" fill="black"/>
<path d="M54.151 20.925H41.844V23.381H54.151V20.925Z" fill="black"/>
<path d="M50.454 24.619H41.844V27.075H50.454V24.619Z" fill="black"/>
<path d="M60.303 9.847H59.04V3.693C59.047 1.658 57.39 0 55.357 0H40.586C38.55 0 36.898 1.658 36.898 3.692V9.846H35.69C33.652 9.846 31.998 11.499 31.998 13.538V20.924C31.998 22.962 33.653 24.618 35.69 24.618H36.895V28.306C36.895 30.336 38.544 31.994 40.583 31.994H55.354C57.387 31.994 59.042 30.338 59.042 28.306V24.607H60.305C62.336 24.607 63.993 22.96 63.993 20.919V13.535C63.997 11.5 62.341 9.847 60.303 9.847ZM39.357 3.692C39.357 3.014 39.909 2.463 40.586 2.463H55.357C56.035 2.463 56.586 3.013 56.586 3.692V9.846H39.357V3.692ZM56.591 28.313C56.591 28.995 56.034 29.542 55.362 29.542H40.587C39.909 29.542 39.358 28.992 39.358 28.313V18.463H56.587L56.591 28.313ZM58.46 16C57.44 16 56.609 15.172 56.609 14.153C56.609 13.132 57.44 12.307 58.453 12.307H58.46C59.481 12.307 60.31 13.135 60.31 14.153C60.303 15.172 59.478 16 58.46 16Z" fill="black"/>
<g opacity="0.25">
<path d="M86.1541 20.925H73.8411V23.381H86.1541V20.925Z" fill="black"/>
<path d="M82.4571 24.619H73.8411V27.075H82.4571V24.619Z" fill="black"/>
<path d="M92.301 9.84698H91.044V3.69298C91.044 1.65798 89.394 0.000976562 87.356 0.000976562H72.583C70.548 0.000976562 68.895 1.65898 68.895 3.69298V9.84698H67.689C65.653 9.84698 63.998 11.5 63.998 13.539V20.925C63.998 22.963 65.653 24.619 67.689 24.619H68.895V28.307C68.895 30.344 70.544 32 72.583 32H87.354C89.388 32 91.042 30.344 91.042 28.312V24.611H92.3C94.337 24.611 95.99 22.963 95.99 20.923V13.538C95.994 11.5 94.338 9.84698 92.301 9.84698ZM71.353 3.69198C71.353 3.01398 71.906 2.46298 72.582 2.46298H87.353C88.032 2.46298 88.582 3.01298 88.582 3.69198V9.84598H71.353V3.69198ZM88.588 28.313C88.588 28.995 88.031 29.542 87.359 29.542H72.583C71.905 29.542 71.354 28.992 71.354 28.313V18.463H88.583L88.588 28.313ZM90.457 16C89.436 16 88.606 15.172 88.606 14.153C88.606 13.132 89.436 12.307 90.45 12.307H90.457C91.478 12.307 92.306 13.135 92.306 14.153C92.301 15.172 91.475 16 90.457 16Z" fill="black"/>
</g>
<path d="M22.1539 20.925H9.84595V23.381H22.1539V20.925Z" fill="black"/>
<path d="M18.4559 24.619H9.84595V27.075H18.4559V24.619Z" fill="black"/>
<path d="M28.306 9.84698H27.043V3.69298C27.043 1.65798 25.393 0.000976562 23.355 0.000976562H8.588C6.554 0.000976563 4.9 1.65898 4.9 3.69298V9.84698H3.693C1.656 9.84698 0 11.5 0 13.539V20.925C0 22.963 1.655 24.619 3.692 24.619H4.898V28.307C4.899 30.344 6.553 32 8.588 32H23.36C25.393 32 27.048 30.344 27.048 28.312V24.611H28.311C30.342 24.611 31.999 22.963 31.999 20.923V13.538C32 11.5 30.344 9.84698 28.306 9.84698ZM7.36 3.69198C7.36 3.01398 7.912 2.46298 8.589 2.46298H23.36C24.038 2.46298 24.589 3.01298 24.589 3.69198V9.84598H7.36V3.69198ZM24.594 28.313C24.594 28.995 24.031 29.542 23.361 29.542H8.589C7.911 29.542 7.36 28.992 7.36 28.313V18.463H24.589L24.594 28.313ZM26.463 16C25.443 16 24.612 15.172 24.612 14.153C24.612 13.132 25.443 12.307 26.456 12.307H26.463C27.484 12.307 28.313 13.135 28.313 14.153C28.306 15.172 27.482 16 26.463 16Z" fill="black"/>
</g>
<defs>
<clipPath id="clip0_19_329">
<rect width="159.984" height="32" fill="white"/>
</clipPath>
</defs>
</svg>
