<svg width="80" height="16" viewBox="0 0 80 16" fill="none" xmlns="http://www.w3.org/2000/svg">
<g clip-path="url(#clip0_19_279)">
<path d="M45.0008 6.073H34.9993V12.07H45.0008V6.073Z" fill="#878586"/>
<path d="M44.9993 3.92999H43.4333H39.9133H39.2103V5.07299H44.9993V3.92999Z" fill="#878586"/>
<path d="M19.0588 6.073L18.9968 12.07H28.9983L29.0603 6.073H19.0588Z" fill="white"/>
<path d="M28.9969 3.92999H27.4309H23.9109H23.2079V5.07299H28.9969V3.92999Z" fill="white"/>
<path d="M13.0015 6.073H3V12.07H13.0015V6.073Z" fill="white"/>
<path d="M13.001 3.92999H11.435H7.91504H7.21204V5.07299H13.001V3.92999Z" fill="white"/>
<path d="M61.0091 6.073H51.0076V12.07H61.0091V6.073Z" fill="white"/>
<path d="M61.0075 3.92999H59.4415H55.9215H55.2185V5.07299H61.0075V3.92999Z" fill="white"/>
<path d="M76.9995 6.073H66.998V12.07H76.9995V6.073Z" fill="white"/>
<path d="M76.998 3.92999H75.433H71.912H71.209V5.07299H76.998V3.92999Z" fill="white"/>
</g>
<defs>
<clipPath id="clip0_19_279">
<rect width="80" height="16" fill="white"/>
</clipPath>
</defs>
</svg>
