<svg width="80" height="16" viewBox="0 0 80 16" fill="none" xmlns="http://www.w3.org/2000/svg">
<g clip-path="url(#clip0_19_235)">
<path d="M6.72356 7.995L3 4.271L4.29119 3L7.99875 6.735L11.7223 3L13.0015 4.271L9.27794 7.995L13.0015 11.729L11.7223 13L7.99775 9.288L4.29119 13L3 11.729L6.72356 7.995Z" fill="#1B1F22"/>
<path d="M22.7264 7.995L19.0028 4.271L20.294 3L24.0016 6.735L27.7251 3L29.0043 4.271L25.2807 7.995L29.0043 11.729L27.7251 13L23.9956 9.288L20.294 13L19.0028 11.729L22.7264 7.995Z" fill="#1B1F22"/>
<path d="M38.7288 7.995L35.0052 4.271L36.2964 3L40.004 6.735L43.7276 3L45.0067 4.271L41.2832 7.995L45.0067 11.729L43.7276 13L39.998 9.288L36.2964 13L35.0052 11.729L38.7288 7.995Z" fill="#878586"/>
<path d="M54.7311 7.995L51.0076 4.271L52.2988 3L56.0063 6.735L59.7299 3L61.0091 4.271L57.2855 7.995L61.0091 11.729L59.7299 13L56.0003 9.288L52.2988 13L51.0076 11.729L54.7311 7.995Z" fill="#1B1F22"/>
<path d="M70.7216 7.995L66.998 4.271L68.2892 3L71.9968 6.735L75.7204 3L76.9995 4.271L73.276 7.995L76.9995 11.728L75.7204 13L71.9958 9.288L68.2892 13L66.998 11.729L70.7216 7.995Z" fill="#1B1F22"/>
</g>
<defs>
<clipPath id="clip0_19_235">
<rect width="80" height="16" fill="white"/>
</clipPath>
</defs>
</svg>
