<svg width="160" height="32" viewBox="0 0 160 32" fill="none" xmlns="http://www.w3.org/2000/svg">
<g clip-path="url(#clip0_19_324)">
<path d="M10.278 28.406C9.85396 28.835 9.15696 28.835 8.73796 28.406L3.64896 23.31C3.22396 22.878 3.22396 22.197 3.64596 21.767L19.912 5.485C20.337 5.063 21.031 5.063 21.456 5.485L26.534 10.578C26.963 11.007 26.963 11.703 26.534 12.122L10.278 28.406ZM30.531 1.491C27.632 -1.417 24.763 0.824001 24.763 0.824001C24.287 1.192 23.556 1.836 23.138 2.249C22.721 2.668 22.731 3.361 23.15 3.784L28.238 8.876C28.667 9.306 29.357 9.313 29.775 8.893C30.188 8.475 30.832 7.741 31.202 7.267C31.203 7.268 33.436 4.399 30.531 1.491ZM4.26096 31.113C4.84496 30.972 4.97296 30.503 4.54896 30.084L1.93796 27.475C1.51496 27.051 1.04796 27.18 0.902956 27.762L0.0569561 31.173C-0.0910439 31.758 0.266956 32.111 0.851956 31.968L4.26096 31.113Z" fill="black"/>
<path d="M42.277 28.406C41.854 28.835 41.156 28.835 40.737 28.406L35.647 23.31C35.222 22.878 35.222 22.197 35.643 21.767L51.91 5.485C52.335 5.063 53.03 5.063 53.455 5.485L58.533 10.578C58.962 11.007 58.962 11.704 58.533 12.123L42.277 28.406ZM62.531 1.491C59.631 -1.417 56.761 0.824001 56.761 0.824001C56.285 1.192 55.555 1.836 55.136 2.249C54.719 2.668 54.729 3.361 55.148 3.784L60.236 8.876C60.665 9.306 61.355 9.313 61.773 8.893C62.186 8.475 62.83 7.741 63.2 7.267C63.203 7.268 65.436 4.399 62.531 1.491ZM36.261 31.113C36.845 30.972 36.973 30.503 36.548 30.084L33.937 27.475C33.513 27.051 33.047 27.18 32.902 27.762L32.055 31.173C31.908 31.758 32.266 32.111 32.851 31.968L36.261 31.113Z" fill="black"/>
<g opacity="0.25">
<path d="M74.279 28.406C73.855 28.835 73.157 28.835 72.738 28.406L67.649 23.31C67.223 22.878 67.223 22.197 67.645 21.767L83.91 5.485C84.337 5.063 85.029 5.063 85.456 5.485L90.534 10.578C90.962 11.007 90.962 11.703 90.534 12.122L74.279 28.406ZM94.531 1.491C91.631 -1.417 88.761 0.824001 88.761 0.824001C88.282 1.192 87.554 1.836 87.136 2.249C86.72 2.668 86.73 3.361 87.148 3.784L92.238 8.876C92.667 9.306 93.355 9.313 93.773 8.893C94.185 8.475 94.831 7.741 95.201 7.267C95.203 7.268 97.438 4.399 94.531 1.491ZM68.261 31.113C68.846 30.972 68.974 30.503 68.55 30.084L65.938 27.475C65.515 27.051 65.047 27.18 64.904 27.762L64.055 31.173C63.908 31.758 64.267 32.111 64.851 31.968L68.261 31.113Z" fill="black"/>
</g>
<path d="M106.277 28.406C105.855 28.835 105.156 28.835 104.738 28.406L99.65 23.31C99.224 22.878 99.224 22.197 99.646 21.767L115.91 5.485C116.337 5.063 117.029 5.063 117.456 5.485L122.534 10.578C122.962 11.007 122.962 11.703 122.534 12.122L106.277 28.406ZM126.531 1.491C123.631 -1.417 120.761 0.824001 120.761 0.824001C120.282 1.192 119.554 1.836 119.136 2.249C118.72 2.668 118.73 3.361 119.148 3.784L124.238 8.876C124.666 9.306 125.355 9.313 125.775 8.893C126.185 8.475 126.831 7.741 127.201 7.267C127.203 7.268 129.438 4.399 126.531 1.491ZM100.262 31.113C100.846 30.972 100.973 30.503 100.548 30.084L97.94 27.475C97.514 27.051 97.047 27.18 96.905 27.762L96.057 31.173C95.911 31.758 96.268 32.111 96.852 31.968L100.262 31.113Z" fill="black"/>
<path d="M138.279 28.406C137.855 28.835 137.157 28.835 136.738 28.406L131.65 23.31C131.222 22.878 131.222 22.197 131.646 21.767L147.912 5.48C148.338 5.058 149.031 5.058 149.457 5.48L154.534 10.573C154.963 11.002 154.963 11.698 154.534 12.117L138.279 28.406ZM158.531 1.491C155.632 -1.417 152.761 0.824001 152.761 0.824001C152.282 1.192 151.556 1.836 151.136 2.249C150.72 2.668 150.73 3.361 151.148 3.784L156.238 8.876C156.667 9.306 157.357 9.313 157.775 8.893C158.187 8.475 158.832 7.741 159.201 7.267C159.202 7.268 161.438 4.399 158.531 1.491ZM132.262 31.113C132.846 30.972 132.975 30.503 132.549 30.084L129.94 27.475C129.516 27.051 129.046 27.18 128.905 27.762L128.057 31.173C127.911 31.758 128.268 32.111 128.852 31.968L132.262 31.113Z" fill="black"/>
</g>
<defs>
<clipPath id="clip0_19_324">
<rect width="160" height="32" fill="white"/>
</clipPath>
</defs>
</svg>
