<svg width="80" height="16" viewBox="0 0 80 16" fill="none" xmlns="http://www.w3.org/2000/svg">
<g clip-path="url(#clip0_19_271)">
<path d="M43.5955 6.56703C43.5875 6.51903 43.5645 6.47103 43.5145 6.42603C43.1604 6.78903 41.7192 6.84903 39.9999 6.84903C38.2807 6.84903 36.8445 6.78903 36.4854 6.42603C36.4414 6.47103 36.4134 6.51903 36.4034 6.56703H36.4004L36.4014 6.59303C36.4014 6.59603 36.4004 6.59903 36.4004 6.60203C36.4004 6.60903 36.4024 6.61603 36.4034 6.62303L36.6834 12.355C36.7044 12.804 37.2155 13.484 39.9969 13.484C42.7783 13.484 43.2884 12.804 43.3124 12.355H43.3144L43.5875 6.62303C43.5875 6.61603 43.5895 6.61003 43.5895 6.60303C43.5895 6.60003 43.5875 6.59703 43.5875 6.59403L43.5955 6.56703Z" fill="#878586"/>
<path d="M38.1407 3.58303C36.8235 3.73303 35.9114 4.03703 35.9114 4.39003V5.05903C35.9114 5.19603 36.0504 5.32703 36.2994 5.44503C36.9525 5.75203 38.3647 5.96503 40.002 5.96503C41.6402 5.96503 43.0515 5.75203 43.7056 5.44503C43.9526 5.32703 44.0936 5.19603 44.0936 5.05903V4.38903C44.0936 4.02403 43.1165 3.71003 41.7123 3.56703L38.1407 3.58303ZM41.7102 3.56703C41.4002 3.55103 40.334 3.48303 40 3.48303C39.6539 3.48303 39.3169 3.49303 38.9968 3.51103L38.1427 3.58203" fill="#878586"/>
<path d="M11.5901 6.56703C11.5821 6.51903 11.5591 6.47103 11.5091 6.42603C11.151 6.78903 9.71382 6.84903 7.99456 6.84903C6.2753 6.84903 4.83909 6.78903 4.48003 6.42603C4.43603 6.47103 4.40802 6.51903 4.39802 6.56703H4.39502L4.39602 6.59303C4.39602 6.59603 4.39502 6.59903 4.39502 6.60203C4.39502 6.60903 4.39702 6.61603 4.39802 6.62303L4.67806 12.355C4.69907 12.804 5.21014 13.484 7.99156 13.484C10.773 13.484 11.2831 12.804 11.3071 12.355H11.3091L11.5821 6.62303C11.5821 6.61603 11.5841 6.61003 11.5841 6.60303C11.5841 6.60003 11.5821 6.59703 11.5821 6.59403L11.5901 6.56703Z" fill="#1B1F22"/>
<path d="M6.13536 3.58303C4.81117 3.73303 3.90503 4.03703 3.90503 4.39003V5.05903C3.90503 5.19603 4.04405 5.32703 4.29309 5.44503C4.94619 5.75203 6.3584 5.96503 7.99564 5.96503C9.63389 5.96503 11.0451 5.75203 11.6992 5.44503C11.9462 5.32703 12.0873 5.19603 12.0873 5.05903V4.38903C12.0873 4.02403 11.1101 3.71003 9.7059 3.56703L6.13536 3.58303ZM9.7049 3.56703C9.39485 3.55103 8.32869 3.48303 7.99464 3.48303C7.64859 3.48303 7.31154 3.49303 6.99149 3.51103L6.13536 3.58303" fill="#1B1F22"/>
<path d="M27.593 6.56703C27.585 6.51903 27.562 6.47103 27.512 6.42603C27.158 6.78903 25.7167 6.84903 23.9975 6.84903C22.2782 6.84903 20.842 6.78903 20.483 6.42603C20.439 6.47103 20.411 6.51903 20.4009 6.56703H20.3979L20.3989 6.59303C20.3989 6.59603 20.3979 6.59903 20.3979 6.60203C20.3979 6.60903 20.3999 6.61603 20.4009 6.62303L20.681 12.355C20.702 12.804 21.2131 13.484 23.9945 13.484C26.7759 13.484 27.286 12.804 27.31 12.355H27.312L27.585 6.62303C27.585 6.61603 27.587 6.61003 27.587 6.60303C27.587 6.60003 27.585 6.59703 27.585 6.59403L27.593 6.56703Z" fill="#1B1F22"/>
<path d="M22.1383 3.58303C20.8161 3.73303 19.9089 4.03703 19.9089 4.39003V5.05903C19.9089 5.19603 20.048 5.32703 20.297 5.44503C20.9501 5.75203 22.3623 5.96503 23.9995 5.96503C25.6378 5.96503 27.049 5.75203 27.7031 5.44503C27.9501 5.32703 28.0912 5.19603 28.0912 5.05903V4.38903C28.0912 4.02403 27.114 3.71003 25.7098 3.56703L22.1383 3.58303ZM25.7078 3.56703C25.3978 3.55103 24.3316 3.48303 23.9975 3.48303C23.6515 3.48303 23.3144 3.49303 22.9944 3.51103L22.1403 3.58203" fill="#1B1F22"/>
<path d="M59.5979 6.56703C59.5899 6.51903 59.5669 6.47103 59.5169 6.42603C59.1629 6.78903 57.7217 6.84903 56.0024 6.84903C54.2831 6.84903 52.8469 6.78903 52.4879 6.42603C52.4429 6.47103 52.4159 6.51903 52.4059 6.56703H52.4019L52.4039 6.59303C52.4039 6.59603 52.4019 6.59903 52.4019 6.60203C52.4019 6.60903 52.4049 6.61603 52.4059 6.62303L52.6779 12.355H52.6859C52.7069 12.804 53.218 13.484 55.9994 13.484C58.7808 13.484 59.2909 12.804 59.3149 12.355H59.3169L59.5899 6.62303C59.5899 6.61603 59.5919 6.61003 59.5919 6.60303C59.5919 6.60003 59.5899 6.59703 59.5899 6.59403L59.5979 6.56703Z" fill="#1B1F22"/>
<path d="M54.1432 3.58303C52.825 3.73303 51.9138 4.03703 51.9138 4.39003V5.05903C51.9138 5.19603 52.0528 5.32703 52.3029 5.44503C52.955 5.75203 54.3672 5.96503 56.0044 5.96503C57.6427 5.96503 59.0539 5.75203 59.708 5.44503C59.955 5.32703 60.096 5.19603 60.096 5.05903V4.38903C60.096 4.02403 59.1189 3.71003 57.7147 3.56703L54.1432 3.58303ZM57.7127 3.56703C57.4026 3.55103 56.3365 3.48303 56.0024 3.48303C55.6564 3.48303 55.3193 3.49303 54.9993 3.51103L54.1452 3.58203" fill="#1B1F22"/>
<path d="M75.6004 6.56703C75.5924 6.51903 75.5694 6.47103 75.5194 6.42603C75.1653 6.78903 73.7241 6.84903 72.0048 6.84903C70.2856 6.84903 68.8494 6.78903 68.4903 6.42603C68.4453 6.47103 68.4183 6.51903 68.4083 6.56703H68.4043L68.4063 6.59303C68.4063 6.59603 68.4043 6.59903 68.4043 6.60203C68.4043 6.60903 68.4073 6.61603 68.4083 6.62303L68.6803 12.355H68.6883C68.7093 12.804 69.2204 13.484 72.0018 13.484C74.7833 13.484 75.2933 12.804 75.3173 12.355H75.3193L75.5924 6.62303C75.5924 6.61603 75.5944 6.61003 75.5944 6.60303C75.5944 6.60003 75.5924 6.59703 75.5924 6.59403L75.6004 6.56703Z" fill="#1B1F22"/>
<path d="M70.1456 3.58303C68.8224 3.73303 67.9163 4.03703 67.9163 4.39003V5.05903C67.9163 5.19603 68.0553 5.32703 68.3053 5.44503C68.9574 5.75203 70.3696 5.96503 72.0069 5.96503C73.6451 5.96503 75.0563 5.75203 75.7104 5.44503C75.9575 5.32703 76.0985 5.19603 76.0985 5.05903V4.38903C76.0985 4.02403 75.1213 3.71003 73.7171 3.56703L70.1456 3.58303ZM73.7151 3.56703C73.4051 3.55103 72.3389 3.48303 72.0049 3.48303C71.6588 3.48303 71.3218 3.49303 71.0017 3.51103L70.1476 3.58203" fill="#1B1F22"/>
</g>
<defs>
<clipPath id="clip0_19_271">
<rect width="80" height="16" fill="white"/>
</clipPath>
</defs>
</svg>
