<svg width="156" height="13" viewBox="0 0 156 13" fill="none" xmlns="http://www.w3.org/2000/svg">
<rect x="0.537059" y="0.537059" width="11.9259" height="11.9259" rx="3.75942" fill="#808080" stroke="#808080" stroke-width="1.07412"/>
<path d="M4.87047 8.54945L2.71687 6.35073L2 7.08263L4.87047 10.0183L11.0235 3.73191L10.3066 3L4.87047 8.54945Z" fill="black"/>
<rect x="13.5371" y="0.537059" width="11.9259" height="11.9259" rx="3.75942" fill="#808080" stroke="#808080" stroke-width="1.07412"/>
<path d="M17.8705 8.54945L15.7169 6.35073L15 7.08263L17.8705 10.0183L24.0235 3.73191L23.3066 3L17.8705 8.54945Z" fill="black"/>
<rect opacity="0.25" x="26.5371" y="0.537059" width="11.9259" height="11.9259" rx="3.75942" fill="#808080" stroke="#808080" stroke-width="1.07412"/>
<path opacity="0.25" d="M30.8705 8.54945L28.7169 6.35073L28 7.08263L30.8705 10.0183L37.0235 3.73191L36.3066 3L30.8705 8.54945Z" fill="black"/>
<rect x="39.5371" y="0.537059" width="11.9259" height="11.9259" rx="3.75942" fill="#808080" stroke="#808080" stroke-width="1.07412"/>
<path d="M43.8705 8.54945L41.7169 6.35073L41 7.08263L43.8705 10.0183L50.0235 3.73191L49.3066 3L43.8705 8.54945Z" fill="black"/>
<rect x="52.5371" y="0.537059" width="11.9259" height="11.9259" rx="3.75942" fill="#FFFF00" stroke="#808080" stroke-width="1.07412"/>
<rect x="65.5371" y="0.537059" width="11.9259" height="11.9259" rx="3.75942" fill="#FFFF00" stroke="#808080" stroke-width="1.07412"/>
<rect opacity="0.25" x="78.5371" y="0.537059" width="11.9259" height="11.9259" rx="3.75942" fill="#808080" stroke="#808080" stroke-width="1.07412"/>
<rect x="91.5371" y="0.537059" width="11.9259" height="11.9259" rx="3.75942" fill="#FFFF00" stroke="#808080" stroke-width="1.07412"/>
<rect x="104.537" y="0.537059" width="11.9259" height="11.9259" rx="3.75942" fill="#808080" stroke="#808080" stroke-width="1.07412"/>
<rect x="106" y="6" width="9" height="1" fill="black"/>
<rect x="117.537" y="0.537059" width="11.9259" height="11.9259" rx="3.75942" fill="#808080" stroke="#808080" stroke-width="1.07412"/>
<rect x="119" y="6" width="9" height="1" fill="black"/>
<rect opacity="0.25" x="130.537" y="0.537059" width="11.9259" height="11.9259" rx="3.75942" fill="#808080" stroke="#808080" stroke-width="1.07412"/>
<rect opacity="0.25" x="132" y="6" width="9" height="1" fill="black"/>
<rect x="143.537" y="0.537059" width="11.9259" height="11.9259" rx="3.75942" fill="#808080" stroke="#808080" stroke-width="1.07412"/>
<rect x="145" y="6" width="9" height="1" fill="black"/>
</svg>
