<svg width="80" height="16" viewBox="0 0 80 16" fill="none" xmlns="http://www.w3.org/2000/svg">
<path d="M5.13381 8.701C5.13381 8.902 4.96878 9.066 4.77475 9.066H3.36654C3.16451 9.066 3.00049 8.902 3.00049 8.701V7.299C3.00049 7.097 3.16451 6.933 3.36654 6.933H4.76875C4.96978 6.933 5.12781 7.097 5.12781 7.299L5.13381 8.701Z" fill="#1B1F22"/>
<path d="M13.0019 8.701C13.0019 8.902 12.8379 9.066 12.6418 9.066H11.2416C11.0416 9.066 10.8776 8.902 10.8776 8.701V7.299C10.8776 7.097 11.0416 6.933 11.2416 6.933H12.6418C12.8379 6.934 13.0019 7.098 13.0019 7.299V8.701Z" fill="#1B1F22"/>
<path d="M9.06736 8.701C9.06736 8.902 8.90333 9.066 8.7023 9.066H7.30009C7.10506 9.066 6.94104 8.902 6.94104 8.701V7.299C6.94104 7.097 7.10506 6.933 7.30009 6.933H8.7023C8.90333 6.933 9.06736 7.097 9.06736 7.299V8.701Z" fill="#1B1F22"/>
<path d="M21.1361 8.701C21.1361 8.902 20.9711 9.066 20.7781 9.066H19.3729C19.1668 9.066 19.0028 8.902 19.0028 8.701V7.299C19.0028 7.097 19.1668 6.933 19.3689 6.933H20.7701C20.9641 6.933 21.1291 7.097 21.1291 7.299L21.1361 8.701Z" fill="#1B1F22"/>
<path d="M29.0043 8.701C29.0043 8.902 28.8403 9.066 28.6443 9.066H27.2441C27.044 9.066 26.88 8.902 26.88 8.701V7.299C26.88 7.097 27.044 6.933 27.2441 6.933H28.6453C28.8403 6.934 29.0043 7.098 29.0043 7.299V8.701Z" fill="#1B1F22"/>
<path d="M25.0698 8.701C25.0698 8.902 24.9058 9.066 24.7047 9.066H23.3025C23.1085 9.066 22.9445 8.902 22.9445 8.701V7.299C22.9445 7.097 23.1085 6.933 23.3025 6.933H24.7047C24.9058 6.933 25.0698 7.097 25.0698 7.299V8.701Z" fill="#1B1F22"/>
<path d="M37.1386 8.701C37.1386 8.902 36.9735 9.066 36.7805 9.066H35.3753C35.1693 9.066 35.0052 8.902 35.0052 8.701V7.299C35.0052 7.097 35.1693 6.933 35.3713 6.933H36.7725C36.9665 6.933 37.1316 7.097 37.1316 7.299L37.1386 8.701Z" fill="#878586"/>
<path d="M45.0068 8.701C45.0068 8.902 44.8427 9.066 44.6477 9.066H43.2465C43.0465 9.066 42.8824 8.902 42.8824 8.701V7.299C42.8824 7.097 43.0465 6.933 43.2465 6.933H44.6477C44.8427 6.934 45.0068 7.098 45.0068 7.299V8.701Z" fill="#878586"/>
<path d="M41.0721 8.701C41.0721 8.902 40.9081 9.066 40.707 9.066H39.3048C39.1108 9.066 38.9468 8.902 38.9468 8.701V7.299C38.9468 7.097 39.1108 6.933 39.3048 6.933H40.707C40.9081 6.933 41.0721 7.097 41.0721 7.299V8.701Z" fill="#878586"/>
<path d="M53.1409 8.701C53.1409 8.902 52.9759 9.066 52.7828 9.066H51.3776C51.1716 9.066 51.0076 8.902 51.0076 8.701V7.299C51.0076 7.097 51.1716 6.933 51.3736 6.933H52.7748C52.9689 6.933 53.1339 7.097 53.1339 7.299L53.1409 8.701Z" fill="#1B1F22"/>
<path d="M61.0091 8.701C61.0091 8.902 60.8451 9.066 60.65 9.066H59.2488C59.0488 9.066 58.8848 8.902 58.8848 8.701V7.299C58.8848 7.097 59.0488 6.933 59.2488 6.933H60.65C60.8451 6.934 61.0091 7.098 61.0091 7.299V8.701Z" fill="#1B1F22"/>
<path d="M57.0745 8.701C57.0745 8.902 56.9105 9.066 56.7095 9.066H55.3073C55.1132 9.066 54.9492 8.902 54.9492 8.701V7.299C54.9492 7.097 55.1132 6.933 55.3073 6.933H56.7095C56.9105 6.933 57.0745 7.097 57.0745 7.299V8.701Z" fill="#1B1F22"/>
<path d="M69.1315 8.701C69.1315 8.902 68.9664 9.066 68.7664 9.066H67.3702C67.1682 9.066 67.0042 8.902 67.0042 8.701V7.299C67.0042 7.097 67.1682 6.933 67.3702 6.933H68.7664C68.9674 6.933 69.1325 7.097 69.1325 7.299L69.1315 8.701Z" fill="#1B1F22"/>
<path d="M76.9997 8.701C76.9997 8.902 76.8357 9.066 76.6347 9.066H75.2384C75.0384 9.066 74.8744 8.902 74.8744 8.701V7.299C74.8744 7.097 75.0384 6.933 75.2384 6.933H76.6347C76.8357 6.934 76.9997 7.098 76.9997 7.299V8.701Z" fill="#1B1F22"/>
<path d="M73.066 8.701C73.066 8.902 72.902 9.066 72.701 9.066H71.2988C71.0977 9.066 70.9337 8.902 70.9337 8.701V7.299C70.9337 7.097 71.0977 6.933 71.2988 6.933H72.701C72.902 6.933 73.066 7.097 73.066 7.299V8.701Z" fill="#1B1F22"/>
</svg>
