<svg width="80" height="16" viewBox="0 0 80 16" fill="none" xmlns="http://www.w3.org/2000/svg">
<path d="M11.7902 13H9.1648L4.21106 8L9.1338 3H11.7902L6.78145 8L11.7902 13Z" fill="#1B1F22"/>
<path d="M27.7932 13H25.1679L20.2141 8L25.1368 3H27.7932L22.7845 8L27.7932 13Z" fill="#1B1F22"/>
<path d="M43.7956 13H41.1702L36.2164 8L41.1392 3H43.7956L38.7868 8L43.7956 13Z" fill="#878586"/>
<path d="M59.7979 13H57.1725L52.2188 8L57.1415 3H59.7979L54.7891 8L59.7979 13Z" fill="#1B1F22"/>
<path d="M75.9994 13H73.374L68.4203 8L73.343 3H75.9994L70.9907 8L75.9994 13Z" fill="#1B1F22"/>
</svg>
