<svg width="80" height="16" viewBox="0 0 80 16" fill="none" xmlns="http://www.w3.org/2000/svg">
<g clip-path="url(#clip0_19_281)">
<path d="M43.8897 5.778H36.1155C35.1714 5.778 34.4482 6.501 34.4482 7.445V10.778H36.6706V13H43.3386V10.777H45.5679V7.445C45.5569 6.5 44.8338 5.778 43.8897 5.778ZM42.2234 11.891H37.7847V9.111H42.2234V11.891ZM43.3336 3H36.6656V5.223H43.3336V3Z" fill="#878586"/>
<path d="M27.8872 5.778H20.1131C19.1689 5.778 18.4458 6.501 18.4458 7.445V10.778H20.6681V13H27.3361V10.777H29.5655V7.445C29.5545 6.5 28.8314 5.778 27.8872 5.778ZM26.221 11.891H21.7823V9.111H26.221V11.891ZM27.3311 3H20.6631V5.223H27.3311V3Z" fill="#1B1F22"/>
<path d="M11.8894 5.778H4.11122C3.16708 5.778 2.44397 6.501 2.44397 7.445V10.778H4.6663V13H11.3343V10.777H13.5636V7.445C13.5566 6.5 12.8345 5.778 11.8894 5.778ZM10.2231 11.891H5.77747V9.111H10.2231V11.891ZM11.3343 3H4.6663V5.223H11.3343V3Z" fill="#1B1F22"/>
<path d="M59.892 5.778H52.1178C51.1727 5.778 50.4506 6.501 50.4506 7.445V10.778H52.6729V13H59.3409V10.777H61.5702V7.445C61.5592 6.5 60.8361 5.778 59.892 5.778ZM58.2257 11.891H53.7871V9.111H58.2257V11.891ZM59.3359 3H52.6679V5.223H59.3359V3Z" fill="#1B1F22"/>
<path d="M75.8884 5.778H68.1102C67.1651 5.778 66.443 6.501 66.443 7.445V10.778H68.6653V13H75.3333V10.777H77.5567V7.445C77.5557 6.5 76.8325 5.778 75.8884 5.778ZM74.2222 11.891H69.7835V9.111H74.2222V11.891ZM75.3323 3H68.6643V5.223H75.3323V3Z" fill="#1B1F22"/>
</g>
<defs>
<clipPath id="clip0_19_281">
<rect width="80" height="16" fill="white"/>
</clipPath>
</defs>
</svg>
