<svg width="80" height="16" viewBox="0 0 80 16" fill="none" xmlns="http://www.w3.org/2000/svg">
<g clip-path="url(#clip0_19_284)">
<path d="M12.2454 2.99902C12.3494 2.99902 12.4473 3.01802 12.5383 3.05802C12.6332 3.09702 12.7062 3.15102 12.7742 3.21902C12.8401 3.28702 12.8951 3.36902 12.9341 3.46502C12.9731 3.56002 12.993 3.66402 12.993 3.77702V12.297C12.993 12.387 12.9731 12.475 12.9341 12.559C12.8931 12.643 12.8401 12.717 12.7722 12.788C12.7062 12.851 12.6262 12.9 12.5363 12.939C12.4473 12.98 12.3484 13 12.2454 13H9.78365C9.8966 13 10.0025 12.979 10.0995 12.936C10.1964 12.893 10.2834 12.833 10.3554 12.757C10.4293 12.682 10.4883 12.594 10.5293 12.496C10.5703 12.398 10.5922 12.294 10.5922 12.182V10.584C10.5922 10.475 10.5713 10.37 10.5293 10.271C10.4883 10.167 10.4293 10.083 10.3554 10.013C10.2834 9.94102 10.1964 9.87502 10.0995 9.83302C9.99555 9.79102 9.8966 9.77002 9.78365 9.77002H6.18945C6.07651 9.77002 5.97256 9.79102 5.87661 9.83302C5.78165 9.87902 5.6977 9.94002 5.62773 10.013C5.56476 10.081 5.50279 10.167 5.46081 10.271C5.41984 10.374 5.39985 10.474 5.39985 10.584V12.183C5.39985 12.294 5.42084 12.402 5.46081 12.496C5.50179 12.595 5.56476 12.683 5.62773 12.757C5.6977 12.833 5.78065 12.894 5.87661 12.937C5.97256 12.979 6.07651 13 6.18945 13H3.73468C3.63373 13 3.53778 12.98 3.44882 12.939C3.35987 12.9 3.2819 12.849 3.21494 12.783C3.15197 12.719 3.10299 12.64 3.06501 12.558C3.01704 12.475 2.99805 12.387 2.99805 12.297V3.77702C2.99805 3.66402 3.01804 3.56002 3.05802 3.46502C3.095 3.36802 3.14797 3.28702 3.20794 3.21802C3.27791 3.15002 3.35587 3.09602 3.44482 3.05802C3.53478 3.01802 3.63273 2.99902 3.73168 2.99902H12.2454ZM11.8006 8.18002V3.40302H4.59425V8.18102C4.59425 8.29402 4.61524 8.40002 4.65722 8.49702C4.70119 8.59402 4.75817 8.68002 4.83013 8.75002C4.90209 8.82202 4.98805 8.88102 5.084 8.92402C5.18095 8.96702 5.2869 8.98602 5.39985 8.98602H10.994C11.103 8.98602 11.2069 8.96502 11.3069 8.92302C11.4048 8.88102 11.4908 8.82202 11.5648 8.75002C11.6387 8.68002 11.6977 8.59402 11.7397 8.49702C11.7787 8.39902 11.8006 8.29302 11.8006 8.18002ZM6.18945 12.584V10.163H7.79065V12.584H6.18945Z" fill="#1B1F22"/>
<path d="M44.2928 2.999C44.3968 2.999 44.4947 3.018 44.5857 3.058C44.6757 3.097 44.7536 3.151 44.8216 3.219C44.8845 3.287 44.9355 3.369 44.9745 3.465C45.0135 3.56 45.0375 3.664 45.0375 3.777V12.297C45.0375 12.387 45.0165 12.475 44.9745 12.559C44.9325 12.643 44.8805 12.717 44.8126 12.788C44.7496 12.851 44.6667 12.9 44.5837 12.939C44.4957 12.98 44.3968 13 44.2928 13H41.8311C41.937 13 42.05 12.979 42.1439 12.936C42.2479 12.893 42.3318 12.833 42.3998 12.757C42.4738 12.682 42.5397 12.594 42.5807 12.496C42.6217 12.398 42.6437 12.294 42.6437 12.182V10.584C42.6437 10.475 42.6227 10.37 42.5807 10.271C42.5397 10.167 42.4768 10.083 42.3998 10.013C42.3348 9.941 42.2479 9.875 42.1439 9.833C42.045 9.791 41.941 9.77 41.8311 9.77H38.2309C38.1249 9.77 38.014 9.791 37.918 9.833C37.8211 9.875 37.7361 9.937 37.6692 10.013C37.5992 10.077 37.5442 10.163 37.5022 10.271C37.4613 10.37 37.4393 10.474 37.4393 10.584V12.182C37.4393 12.294 37.4603 12.401 37.5022 12.496C37.5432 12.594 37.5992 12.682 37.6692 12.757C37.7361 12.833 37.8191 12.893 37.918 12.936C38.016 12.979 38.1209 13 38.2339 13H35.7821C35.6822 13 35.5932 12.98 35.5042 12.939C35.4073 12.9 35.3373 12.849 35.2704 12.783C35.2074 12.719 35.1514 12.64 35.1144 12.558C35.0735 12.474 35.0535 12.38 35.0535 12.289V3.77C35.0535 3.657 35.0735 3.553 35.1124 3.458C35.1514 3.361 35.2074 3.28 35.2694 3.211C35.3363 3.143 35.4153 3.089 35.5032 3.051C35.5932 3.011 35.6901 2.992 35.7821 2.992L44.2928 2.999ZM43.8481 8.18V3.403H36.6427V8.181C36.6427 8.294 36.6637 8.4 36.7056 8.497C36.7486 8.594 36.8066 8.68 36.8776 8.75C36.9415 8.822 37.0355 8.881 37.1314 8.924C37.2284 8.967 37.3343 8.987 37.4443 8.987H43.0455C43.1494 8.987 43.2584 8.966 43.3563 8.924C43.4603 8.882 43.5442 8.822 43.6162 8.751C43.6881 8.682 43.7541 8.596 43.7961 8.498C43.8271 8.399 43.8481 8.293 43.8481 8.18ZM38.2379 12.584V10.163H39.8411V12.584H38.2379Z" fill="#878586"/>
<path d="M60.2739 2.999C60.3779 2.999 60.4688 3.018 60.5668 3.058C60.6567 3.097 60.7347 3.151 60.7956 3.219C60.8616 3.287 60.9166 3.369 60.9556 3.465C60.9956 3.56 61.0155 3.664 61.0155 3.777V12.297C61.0155 12.387 60.9955 12.475 60.9566 12.559C60.9156 12.643 60.8626 12.717 60.7947 12.788C60.7317 12.851 60.6487 12.9 60.5658 12.939C60.4758 12.98 60.3769 13 60.2739 13H57.8111C57.9241 13 58.037 12.979 58.127 12.936C58.2169 12.893 58.3109 12.833 58.3829 12.757C58.4568 12.682 58.5158 12.594 58.5568 12.496C58.5977 12.398 58.6197 12.294 58.6197 12.182V10.584C58.6197 10.475 58.5987 10.37 58.5568 10.271C58.5158 10.167 58.4568 10.083 58.3829 10.013C58.3109 9.941 58.2239 9.875 58.127 9.833C58.028 9.791 57.9241 9.77 57.8111 9.77H54.2169C54.104 9.77 54.0001 9.791 53.9041 9.833C53.8022 9.875 53.7182 9.937 53.6552 10.013C53.5853 10.077 53.5303 10.163 53.4883 10.271C53.4473 10.37 53.4253 10.474 53.4253 10.584V12.182C53.4253 12.294 53.4463 12.401 53.4883 12.496C53.5293 12.594 53.5853 12.682 53.6552 12.757C53.7182 12.833 53.8012 12.893 53.9041 12.936C54.0001 12.979 54.104 13 54.2169 13H51.7612C51.6612 13 51.5653 12.98 51.4763 12.939C51.3864 12.9 51.3094 12.849 51.2474 12.783C51.1815 12.719 51.1285 12.64 51.0915 12.558C51.0505 12.474 51.0295 12.38 51.0295 12.289V3.77C51.0295 3.657 51.0505 3.553 51.0895 3.458C51.1285 3.361 51.1815 3.28 51.2464 3.211C51.3094 3.143 51.3924 3.089 51.4753 3.051C51.5653 3.011 51.6632 2.992 51.7612 2.992L60.2739 2.999ZM59.8281 8.18V3.403H52.6227V8.181C52.6227 8.294 52.6437 8.4 52.6857 8.497C52.7287 8.594 52.7897 8.68 52.8576 8.75C52.9286 8.822 53.0155 8.881 53.1185 8.924C53.2154 8.967 53.3144 8.987 53.4313 8.987H59.0305C59.1355 8.987 59.2464 8.966 59.3434 8.924C59.4403 8.882 59.5293 8.822 59.6012 8.751C59.6752 8.682 59.7352 8.596 59.7782 8.498C59.8071 8.399 59.8281 8.293 59.8281 8.18ZM54.2179 12.584V10.163H55.8211V12.584H54.2179Z" fill="#1B1F22"/>
<path d="M76.2659 2.999C76.3698 2.999 76.4608 3.018 76.5587 3.058C76.6487 3.097 76.7266 3.151 76.7876 3.219C76.8536 3.287 76.9085 3.369 76.9475 3.465C76.9875 3.56 77.0075 3.664 77.0075 3.777V12.297C77.0075 12.387 76.9875 12.475 76.9485 12.559C76.9075 12.643 76.8546 12.717 76.7866 12.788C76.7236 12.851 76.6407 12.9 76.5577 12.939C76.4678 12.98 76.3688 13 76.2659 13H73.8031C73.916 13 74.029 12.979 74.1189 12.936C74.2089 12.893 74.3028 12.833 74.3748 12.757C74.4488 12.682 74.5077 12.594 74.5487 12.496C74.5897 12.398 74.6117 12.294 74.6117 12.182V10.584C74.6117 10.475 74.5907 10.37 74.5487 10.271C74.5077 10.167 74.4488 10.083 74.3748 10.013C74.3028 9.941 74.2159 9.875 74.1189 9.833C74.02 9.791 73.916 9.77 73.8031 9.77H70.2089C70.0959 9.77 69.992 9.791 69.896 9.833C69.7941 9.875 69.7101 9.937 69.6472 10.013C69.5772 10.077 69.5222 10.163 69.4803 10.271C69.4393 10.37 69.4173 10.474 69.4173 10.584V12.182C69.4173 12.294 69.4383 12.401 69.4803 12.496C69.5212 12.594 69.5772 12.682 69.6472 12.757C69.7101 12.833 69.7931 12.893 69.896 12.936C69.992 12.979 70.0959 13 70.2089 13H67.7531C67.6532 13 67.5572 12.98 67.4683 12.939C67.3783 12.9 67.3013 12.849 67.2394 12.783C67.1734 12.719 67.1204 12.64 67.0834 12.558C67.0425 12.474 67.0215 12.38 67.0215 12.289V3.77C67.0215 3.657 67.0425 3.553 67.0815 3.458C67.1204 3.361 67.1734 3.28 67.2384 3.211C67.3013 3.143 67.3843 3.089 67.4673 3.051C67.5572 3.011 67.6552 2.992 67.7531 2.992L76.2659 2.999ZM75.8201 8.18V3.403H68.6147V8.181C68.6147 8.294 68.6357 8.4 68.6777 8.497C68.7206 8.594 68.7816 8.68 68.8496 8.75C68.9205 8.822 69.0075 8.881 69.1104 8.924C69.2074 8.967 69.3063 8.987 69.4233 8.987H75.0225C75.1274 8.987 75.2384 8.966 75.3353 8.924C75.4333 8.882 75.5212 8.822 75.5932 8.751C75.6672 8.682 75.7281 8.596 75.7701 8.498C75.7991 8.399 75.8201 8.293 75.8201 8.18ZM70.2099 12.584V10.163H71.8131V12.584H70.2099Z" fill="#1B1F22"/>
<path d="M28.3009 2.999C28.4048 2.999 28.5028 3.018 28.5938 3.058C28.6837 3.097 28.7617 3.151 28.8296 3.219C28.8926 3.287 28.9436 3.369 28.9826 3.465C29.0215 3.56 29.0455 3.664 29.0455 3.777V12.297C29.0455 12.387 29.0245 12.475 28.9826 12.559C28.9406 12.643 28.8886 12.717 28.8206 12.788C28.7577 12.851 28.6747 12.9 28.5918 12.939C28.5038 12.98 28.4048 13 28.3009 13H25.8391C25.9451 13 26.058 12.979 26.152 12.936C26.2559 12.893 26.3399 12.833 26.4078 12.757C26.4818 12.682 26.5478 12.594 26.5888 12.496C26.6297 12.398 26.6517 12.294 26.6517 12.182V10.584C26.6517 10.475 26.6307 10.37 26.5888 10.271C26.5478 10.167 26.4848 10.083 26.4078 10.013C26.3429 9.941 26.2559 9.875 26.152 9.833C26.053 9.791 25.9491 9.77 25.8391 9.77H22.2389C22.133 9.77 22.022 9.791 21.9261 9.833C21.8301 9.875 21.7452 9.937 21.6772 10.013C21.6072 10.077 21.5523 10.163 21.5103 10.271C21.4693 10.37 21.4473 10.474 21.4473 10.584V12.182C21.4473 12.294 21.4683 12.401 21.5103 12.496C21.5513 12.594 21.6072 12.682 21.6772 12.757C21.7452 12.833 21.8271 12.893 21.9261 12.936C22.024 12.979 22.129 13 22.2419 13H19.7902C19.6902 13 19.6013 12.98 19.5123 12.939C19.4153 12.9 19.3454 12.849 19.2784 12.783C19.2154 12.719 19.1595 12.64 19.1225 12.558C19.0815 12.474 19.0615 12.38 19.0615 12.289V3.77C19.0615 3.657 19.0815 3.553 19.1205 3.458C19.1595 3.361 19.2154 3.28 19.2774 3.211C19.3444 3.143 19.4233 3.089 19.5113 3.051C19.6013 3.011 19.6982 2.992 19.7902 2.992L28.3009 2.999ZM27.8561 8.18V3.403H20.6507V8.181C20.6507 8.294 20.6717 8.4 20.7137 8.497C20.7567 8.594 20.8146 8.68 20.8856 8.75C20.9496 8.822 21.0435 8.881 21.1395 8.924C21.2364 8.967 21.3424 8.987 21.4523 8.987H27.0535C27.1575 8.987 27.2664 8.966 27.3644 8.924C27.4683 8.882 27.5523 8.822 27.6242 8.751C27.6962 8.682 27.7622 8.596 27.8041 8.498C27.8351 8.399 27.8561 8.293 27.8561 8.18ZM22.2459 12.584V10.163H23.8491V12.584H22.2459Z" fill="#1B1F22"/>
</g>
<defs>
<clipPath id="clip0_19_284">
<rect width="80" height="16" fill="white"/>
</clipPath>
</defs>
</svg>
