<svg width="80" height="16" viewBox="0 0 80 16" fill="none" xmlns="http://www.w3.org/2000/svg">
<g clip-path="url(#clip0_19_282)">
<path d="M7.11711 11.199C6.67104 11.199 6.25398 11.116 5.86392 10.945C5.47386 10.777 5.13481 10.549 4.84476 10.257C4.55372 9.97501 4.32369 9.63701 4.15666 9.24601C3.98864 8.85701 3.90462 8.44201 3.90462 8.00001C3.90462 7.55801 3.98964 7.14301 4.15666 6.75401C4.32469 6.36401 4.55472 6.02501 4.84476 5.73801C5.12681 5.45101 5.47486 5.22301 5.86292 5.05501C6.25298 4.88701 6.67004 4.80201 7.11711 4.80201C7.55917 4.80201 7.97423 4.88701 8.36029 5.05501C8.74735 5.22301 9.0854 5.45101 9.37644 5.73801C9.66549 6.02501 9.89752 6.36401 10.0645 6.75301C10.2276 7.14301 10.3116 7.55801 10.3116 8.00001V8.04901L9.40345 7.16501H8.3883L10.6816 9.37301H10.7026L13.002 7.16301H11.9808L11.2077 7.93001C11.1977 7.37301 11.0847 6.85001 10.8657 6.35901C10.6466 5.86901 10.3516 5.44101 9.98054 5.07801C9.60948 4.71501 9.17741 4.42701 8.68534 4.21501C8.19327 4.00401 7.66519 3.89801 7.1041 3.89801C6.53702 3.89801 6.00094 4.00501 5.50286 4.21901C5.01079 4.43301 4.57672 4.72601 4.20267 5.10001C3.82961 5.47301 3.53657 5.90801 3.32154 6.40501C3.1075 6.90201 3.00049 7.43401 3.00049 8.00001C3.00049 8.56601 3.1075 9.09801 3.32254 9.59601C3.53657 10.091 3.83061 10.528 4.20267 10.901C4.57572 11.272 5.01579 11.567 5.50786 11.791C6.00494 12.001 6.53702 12.104 7.1071 12.104C7.1121 12.104 7.11711 12.104 7.12211 12.104L7.11711 11.199Z" fill="#1B1F22"/>
<path d="M53.872 10.945C53.4809 10.777 53.1429 10.549 52.8518 10.257C52.5528 9.97501 52.3308 9.63001 52.1637 9.24001C51.9957 8.85301 51.9117 8.44001 51.9117 7.99801C51.9117 7.55601 51.9957 7.14101 52.1627 6.75201C52.3308 6.36201 52.5618 6.02301 52.8508 5.73601C53.1409 5.44901 53.4899 5.22101 53.872 5.05301C54.2631 4.88501 54.6801 4.80001 55.1272 4.80001C55.5693 4.80001 55.9833 4.88501 56.3704 5.05301C56.7574 5.22101 57.0955 5.44901 57.3865 5.73601C57.6756 6.02301 57.9076 6.36201 58.0746 6.75101C58.2387 7.14301 58.3227 7.55801 58.3227 8.00001V8.04901L57.4185 7.16501H56.4024L58.6957 9.37301H58.7167L61.0091 7.16301H59.9879L59.2148 7.93001C59.2048 7.37301 59.0918 6.85001 58.8727 6.35901C58.6537 5.86901 58.3587 5.44101 57.9876 5.07801C57.6166 4.71501 57.1765 4.42701 56.6924 4.21501C56.2003 4.00401 55.6713 3.89801 55.1122 3.89801C54.5441 3.89801 54.008 4.00501 53.5079 4.21901C53.0159 4.43301 52.5818 4.72601 52.2077 5.10001C51.8347 5.47301 51.5416 5.90801 51.3256 6.40501C51.1146 6.90201 51.0076 7.43401 51.0076 8.00001C51.0076 8.56601 51.1146 9.09801 51.3286 9.59601C51.5426 10.092 51.8367 10.528 52.2087 10.901C52.5818 11.272 53.0169 11.567 53.5149 11.791C54.012 12.005 54.5451 12.104 55.1192 12.104C55.1242 12.104 55.1282 12.104 55.1332 12.104V11.2C54.6791 11.199 54.2621 11.116 53.872 10.945Z" fill="#1B1F22"/>
<path d="M71.1166 11.199C70.6705 11.199 70.2535 11.116 69.8634 10.945C69.4673 10.777 69.1343 10.549 68.8422 10.257C68.5502 9.96501 68.3222 9.63001 68.1541 9.24001C67.9871 8.85301 67.9031 8.44001 67.9031 7.99801C67.9031 7.55601 67.9871 7.14101 68.1541 6.75201C68.3222 6.36201 68.5502 6.02301 68.8422 5.73601C69.1323 5.44901 69.4733 5.22101 69.8634 5.05301C70.2535 4.88501 70.6705 4.80001 71.1176 4.80001C71.5557 4.80001 71.9717 4.88501 72.3608 5.05301C72.7478 5.22101 73.0859 5.44901 73.3769 5.73601C73.666 6.02301 73.895 6.36201 74.061 6.75101C74.2251 7.14101 74.3091 7.55601 74.3091 7.99801V8.04701L73.4109 7.16301H72.3898L74.6831 9.37101H74.7101L77.0035 7.16101H75.9813L75.2052 7.93001C75.1952 7.37301 75.0822 6.85001 74.8631 6.35901C74.6361 5.86901 74.3421 5.44101 73.97 5.07801C73.607 4.71501 73.1669 4.42701 72.6748 4.21501C72.1907 4.00401 71.6567 3.89801 71.0946 3.89801C70.5325 3.89801 69.9954 4.00501 69.4973 4.21901C69.0013 4.43301 68.5672 4.72601 68.1931 5.10001C67.8201 5.47301 67.527 5.90801 67.311 6.40501C67.093 6.90201 66.991 7.43401 66.991 8.00001C66.991 8.56601 67.095 9.09801 67.313 9.59601C67.527 10.092 67.8211 10.528 68.1931 10.901C68.5662 11.272 69.0013 11.567 69.4993 11.791C69.9964 12.005 70.5295 12.104 71.0956 12.104C71.3466 12.104 71.5817 12.083 71.8177 12.041V11.131C71.5967 11.174 71.3636 11.199 71.1166 11.199Z" fill="#1B1F22"/>
<path d="M37.8697 10.945C37.4786 10.777 37.1406 10.549 36.8495 10.257C36.5505 9.97501 36.3284 9.63001 36.1614 9.24001C35.9934 8.85301 35.9094 8.44001 35.9094 7.99801C35.9094 7.55601 35.9934 7.14101 36.1604 6.75201C36.3284 6.36201 36.5595 6.02301 36.8485 5.73601C37.1386 5.44901 37.4876 5.22101 37.8697 5.05301C38.2607 4.88501 38.6778 4.80001 39.1249 4.80001C39.5669 4.80001 39.981 4.88501 40.3681 5.05301C40.7551 5.22101 41.0932 5.44901 41.3842 5.73601C41.6732 6.02301 41.9053 6.36201 42.0723 6.75101C42.2363 7.14301 42.3203 7.55801 42.3203 8.00001V8.04901L41.4162 7.16501H40.4001L42.6934 9.37301H42.7144L45.0067 7.16301H43.9856L43.2125 7.93001C43.2025 7.37301 43.0895 6.85001 42.8704 6.35901C42.6514 5.86901 42.3564 5.44101 41.9853 5.07801C41.6142 4.71501 41.1742 4.42701 40.6901 4.21501C40.198 4.00401 39.6689 3.89801 39.1099 3.89801C38.5418 3.89801 38.0057 4.00501 37.5056 4.21901C37.0136 4.43301 36.5795 4.72601 36.2054 5.10001C35.8324 5.47301 35.5393 5.90801 35.3233 6.40501C35.1123 6.90201 35.0052 7.43401 35.0052 8.00001C35.0052 8.56601 35.1123 9.09801 35.3263 9.59601C35.5403 10.092 35.8344 10.528 36.2064 10.901C36.5795 11.272 37.0146 11.567 37.5126 11.791C38.0097 12.005 38.5428 12.104 39.1169 12.104C39.1219 12.104 39.1259 12.104 39.1309 12.104V11.2C38.6768 11.199 38.2597 11.116 37.8697 10.945Z" fill="#878586"/>
<path d="M21.8672 10.945C21.4762 10.777 21.1381 10.549 20.8471 10.257C20.548 9.97501 20.326 9.63001 20.159 9.24001C19.991 8.85301 19.9069 8.44001 19.9069 7.99801C19.9069 7.55601 19.991 7.14101 20.158 6.75201C20.326 6.36201 20.557 6.02301 20.8461 5.73601C21.1361 5.44901 21.4852 5.22101 21.8672 5.05301C22.2583 4.88501 22.6754 4.80001 23.1224 4.80001C23.5645 4.80001 23.9786 4.88501 24.3656 5.05301C24.7527 5.22101 25.0907 5.44901 25.3818 5.73601C25.6708 6.02301 25.9028 6.36201 26.0699 6.75101C26.2339 7.14301 26.3179 7.55801 26.3179 8.00001V8.04901L25.4138 7.16501H24.3976L26.691 9.37301H26.712L29.0043 7.16301H27.9832L27.21 7.93001C27.2 7.37301 27.087 6.85001 26.868 6.35901C26.649 5.86901 26.3539 5.44101 25.9829 5.07801C25.6118 4.71501 25.1717 4.42701 24.6877 4.21501C24.1956 4.00401 23.6665 3.89801 23.1074 3.89801C22.5393 3.89801 22.0033 4.00501 21.5032 4.21901C21.0111 4.43301 20.577 4.72601 20.203 5.10001C19.8299 5.47301 19.5369 5.90801 19.3209 6.40501C19.1098 6.90201 19.0028 7.43401 19.0028 8.00001C19.0028 8.56601 19.1098 9.09801 19.3239 9.59601C19.5379 10.092 19.8319 10.528 20.204 10.901C20.577 11.272 21.0121 11.567 21.5102 11.791C22.0073 12.005 22.5403 12.104 23.1144 12.104C23.1194 12.104 23.1234 12.104 23.1284 12.104V11.2C22.6744 11.199 22.2573 11.116 21.8672 10.945Z" fill="#1B1F22"/>
</g>
<defs>
<clipPath id="clip0_19_282">
<rect width="80" height="16" fill="white"/>
</clipPath>
</defs>
</svg>
