<svg width="80" height="16" viewBox="0 0 80 16" fill="none" xmlns="http://www.w3.org/2000/svg">
<g clip-path="url(#clip0_16_152)">
<path d="M7.15504 8.049L4.62366 5.367V7.548L8.01016 11.141L11.3837 7.567V5.386L8.86429 8.049V1.998H7.15504V8.049Z" fill="#1B1F22"/>
<path d="M4.85167 12.324C4.72865 12.324 4.62463 12.428 4.62463 12.548V13.777C4.62463 13.9 4.72865 14.001 4.85167 14.001H11.1536C11.2746 14.001 11.3776 13.9 11.3776 13.777V12.548C11.3776 12.43 11.2746 12.324 11.1536 12.324H4.85167Z" fill="#1B1F22"/>
<path d="M23.1575 8.049L20.6261 5.368V7.548L24.0126 11.141L27.3861 7.567V5.385L24.8667 8.049V1.998H23.1575V8.049Z" fill="#1B1F22"/>
<path d="M20.8541 12.324C20.7311 12.324 20.6271 12.428 20.6271 12.548V13.777C20.6271 13.9 20.7311 14.001 20.8541 14.001H27.1561C27.2771 14.001 27.3801 13.9 27.3801 13.777V12.548C27.3801 12.43 27.2771 12.324 27.1561 12.324H20.8541Z" fill="#1B1F22"/>
<path d="M39.1609 8.04801L36.6295 5.36701V7.54701L40.016 11.139L43.3895 7.56601V5.38401L40.8701 8.04801V1.99701H39.1609V8.04801Z" fill="#878586"/>
<path d="M36.8575 12.324C36.7345 12.324 36.6305 12.428 36.6305 12.552V13.78C36.6305 13.905 36.7345 14.006 36.8575 14.006H43.1595C43.2805 14.006 43.3835 13.905 43.3835 13.78V12.552C43.3835 12.43 43.2805 12.324 43.1595 12.324H36.8575Z" fill="#878586"/>
<path d="M55.1632 8.04801L52.6318 5.36801V7.54801L56.0183 11.139L59.3918 7.56501V5.38301L56.8725 8.04801V1.99701H55.1632V8.04801Z" fill="#1B1F22"/>
<path d="M52.8598 12.324C52.7368 12.324 52.6328 12.428 52.6328 12.552V13.78C52.6328 13.905 52.7368 14.006 52.8598 14.006H59.1618C59.2828 14.006 59.3858 13.905 59.3858 13.78V12.552C59.3858 12.43 59.2828 12.324 59.1618 12.324H52.8598Z" fill="#1B1F22"/>
<path d="M71.1527 8.049L68.6213 5.367V7.548L72.0068 11.139L75.3804 7.565V5.385L72.862 8.049V1.998H71.1527V8.049Z" fill="#1B1F22"/>
<path d="M68.8504 12.324C68.7274 12.324 68.6254 12.426 68.6254 12.549V13.778C68.6254 13.903 68.7274 14.006 68.8504 14.006H75.1553C75.2744 14.006 75.3784 13.903 75.3784 13.778V12.549C75.3784 12.427 75.2764 12.325 75.1553 12.325L68.8504 12.324Z" fill="#1B1F22"/>
</g>
<defs>
<clipPath id="clip0_16_152">
<rect width="80" height="16" fill="white"/>
</clipPath>
</defs>
</svg>
