<svg width="60" height="120" viewBox="0 0 60 120" fill="none" xmlns="http://www.w3.org/2000/svg">
<rect x="7" y="47" width="2" height="26" rx="1" fill="#878586"/>
<rect x="20" y="47" width="5" height="26" rx="2.5" fill="#878586"/>
<rect x="35" y="47" width="5" height="26" rx="2.5" fill="#878586"/>
<path d="M5.5 93L8 96H3L5.5 93Z" fill="#878586"/>
<path d="M15.5 93L18 96H13L15.5 93Z" fill="#878586"/>
<path d="M25.5 93L28 96H23L25.5 93Z" fill="#878586"/>
<path d="M5.5 118L3 115L8 115L5.5 118Z" fill="#878586"/>
<path d="M15.5 118L13 115L18 115L15.5 118Z" fill="#878586"/>
<path d="M25.5 118L23 115L28 115L25.5 118Z" fill="#878586"/>
</svg>
