<svg width="80" height="16" viewBox="0 0 80 16" fill="none" xmlns="http://www.w3.org/2000/svg">
<path d="M13.0015 4.211V6.837L8.00075 11.789L3 6.867V4.211L8.00075 9.221L13.0015 4.211Z" fill="white"/>
<path d="M29.0043 4.211V6.837L24.0036 11.789L19.0028 6.867V4.211L24.0036 9.221L29.0043 4.211Z" fill="white"/>
<path d="M45.0067 4.211V6.837L40.006 11.789L35.0052 6.867V4.211L40.006 9.221L45.0067 4.211Z" fill="#878586"/>
<path d="M61.0091 4.211V6.837L56.0083 11.789L51.0076 6.867V4.211L56.0083 9.221L61.0091 4.211Z" fill="white"/>
<path d="M76.9995 4.211V6.837L71.9988 11.789L66.998 6.867V4.211L71.9988 9.221L76.9995 4.211Z" fill="white"/>
</svg>
