<svg width="215" height="32" viewBox="0 0 215 32" fill="none" xmlns="http://www.w3.org/2000/svg">
<g clip-path="url(#clip0_19_327)">
<path opacity="0.25" d="M114.605 20.016L101.985 32H112.251L129.139 15.961L112.325 0H102.062L114.605 11.915H86.1389V20.016H114.605Z" fill="black"/>
<path d="M157.605 20.016L144.982 32H155.25L172.139 15.961L155.325 0H145.061L157.605 11.915H129.141V20.016H157.605Z" fill="black"/>
<path d="M200.605 20.016L187.982 32H198.25L215.139 15.961L198.325 0H188.061L200.605 11.915H172.139V20.016H200.605Z" fill="black"/>
<path d="M71.6059 20.016L58.9849 32H69.2499L86.1389 15.961L69.3259 0H59.0619L71.6059 11.915H43.1389V20.016H71.6059Z" fill="black"/>
<path d="M28.606 20.016L15.984 32H26.25L43.139 15.961L26.325 0H16.063L28.606 11.915H0.139038V20.016H28.606Z" fill="black"/>
</g>
<defs>
<clipPath id="clip0_19_327">
<rect width="215" height="32" fill="white"/>
</clipPath>
</defs>
</svg>
