<svg width="120" height="24" viewBox="0 0 120 24" fill="none" xmlns="http://www.w3.org/2000/svg">
<path d="M16.17 5.699L11.162 11.499L16.17 17.302L14.782 18.5L8.73904 11.499L14.782 4.5L16.17 5.699Z" fill="black" fill-opacity="0.6"/>
<path d="M40.17 5.699L35.162 11.499L40.17 17.302L38.782 18.5L32.739 11.499L38.782 4.5L40.17 5.699Z" fill="black" fill-opacity="0.6"/>
<path opacity="0.25" d="M64.171 5.699L59.163 11.499L64.171 17.302L62.783 18.5L56.739 11.499L62.783 4.5L64.171 5.699Z" fill="black" fill-opacity="0.6"/>
<path d="M87.963 5.699L82.955 11.499L87.963 17.302L86.575 18.5L80.531 11.499L86.575 4.5L87.963 5.699Z" fill="black" fill-opacity="0.6"/>
<path opacity="0.75" d="M111.963 5.699L106.955 11.499L111.963 17.302L110.575 18.5L104.531 11.499L110.575 4.5L111.963 5.699Z" fill="black" fill-opacity="0.6"/>
</svg>
