<svg width="135" height="32" viewBox="0 0 135 32" fill="none" xmlns="http://www.w3.org/2000/svg">
<path d="M24.546 0H17.951H15.496H13.02H2.452C1.863 0 1.32 0.212 0.893 0.563C0.832 0.617 0.767 0.671 0.708 0.725C0.297 1.145 0.035 1.712 0.004 2.341C0.003 2.376 0 2.418 0 2.457V6.03V8.491V10.953V13.418V15.88V18.341V22.037V24.5V29.534C0 29.986 0.119 30.402 0.331 30.765C0.758 31.506 1.547 32 2.452 32H24.547C24.632 32 24.712 31.996 24.793 31.988C26.031 31.861 27 30.811 27 29.538V2.461C27 1.104 25.899 0 24.546 0ZM2.452 24.5V22.038V18.346V15.884V13.423V10.961V8.496V6.038V2.461H15.497H17.952H24.547V29.538H2.452V24.5Z" fill="black"/>
<path d="M15.497 13.535H4.90503V15.884V16H10.792H15.497H17.952H22.292V13.535H17.952H15.497Z" fill="black"/>
<path d="M17.382 20.919V18.462H15.497H4.90503V20.919H15.497H17.382Z" fill="black"/>
<path d="M4.90503 23.381V24.5V25.843H19.841V23.381H17.551H4.90503Z" fill="black"/>
<path d="M6.13695 9.84601H15.5049H17.9519H20.8379C21.5159 9.84601 22.0679 9.29002 22.0679 8.61102V7.38402C22.0679 6.70902 21.5219 6.15302 20.8379 6.15302H17.9519H15.4969H13.2429H6.13695C5.46395 6.15302 4.90995 6.70902 4.90995 7.38402V8.49502V8.61102C4.90495 9.29102 5.45895 9.84601 6.13695 9.84601Z" fill="black"/>
<path d="M51.547 0H44.952H42.497H40.02H29.453C28.864 0 28.321 0.212 27.894 0.563C27.832 0.617 27.767 0.671 27.709 0.725C27.297 1.145 27.035 1.712 27.004 2.341C27.003 2.376 27 2.418 27 2.457V6.03V8.491V10.953V13.418V15.88V18.341V22.037V24.5V29.534C27 29.986 27.12 30.402 27.331 30.765C27.759 31.506 28.548 32 29.453 32H51.548C51.633 32 51.713 31.996 51.794 31.988C53.033 31.861 54.002 30.81 54.002 29.538V2.461C54.001 1.104 52.9 0 51.547 0ZM29.453 24.5V22.038V18.346V15.884V13.423V10.961V8.496V6.038V2.461H42.498H44.953H51.548V29.538H29.453V24.5Z" fill="black"/>
<path d="M42.498 13.535H31.906V15.884V16H37.792H42.498H44.953H49.292V13.535H44.953H42.498Z" fill="black"/>
<path d="M44.383 20.919V18.462H42.498H31.906V20.919H42.498H44.383Z" fill="black"/>
<path d="M31.906 23.381V24.5V25.843H46.842V23.381H44.553H31.906Z" fill="black"/>
<path d="M33.138 9.84601H42.506H44.953H47.839C48.517 9.84601 49.069 9.29002 49.069 8.61102V7.38402C49.069 6.70902 48.523 6.15302 47.839 6.15302H44.953H42.498H40.245H33.138C32.465 6.15302 31.911 6.70902 31.911 7.38402V8.49502V8.61102C31.906 9.29102 32.46 9.84601 33.138 9.84601Z" fill="black"/>
<g opacity="0.25">
<path d="M78.549 0H71.953H69.498H67.02H56.454C55.865 0 55.322 0.212 54.895 0.563C54.833 0.617 54.768 0.671 54.71 0.725C54.298 1.145 54.036 1.712 54.005 2.341C54.004 2.376 54 2.418 54 2.457V6.03V8.491V10.953V13.418V15.88V18.341V22.037V24.5V29.534C54 29.986 54.12 30.402 54.331 30.765C54.76 31.506 55.549 32 56.454 32H78.549C78.633 32 78.713 31.996 78.795 31.988C80.033 31.861 81.002 30.81 81.002 29.538V2.461C81.002 1.104 79.9 0 78.549 0ZM56.454 24.5V22.038V18.346V15.884V13.423V10.961V8.496V6.038V2.461H69.498H71.953H78.549V29.538H56.454V24.5Z" fill="black"/>
<path d="M69.498 13.535H58.908V15.884V16H64.793H69.498H71.953H76.293V13.535H71.953H69.498Z" fill="black"/>
<path d="M71.385 20.919V18.462H69.498H58.908V20.919H69.498H71.385Z" fill="black"/>
<path d="M58.908 23.381V24.5V25.843H73.844V23.381H71.555H58.908Z" fill="black"/>
<path d="M60.139 9.84601H69.506H71.953H74.84C75.518 9.84601 76.069 9.29002 76.069 8.61102V7.38402C76.069 6.70902 75.524 6.15302 74.84 6.15302H71.953H69.498H67.246H60.139C59.466 6.15302 58.912 6.70902 58.912 7.38402V8.49502V8.61102C58.908 9.29102 59.461 9.84601 60.139 9.84601Z" fill="black"/>
</g>
<path d="M105.549 0H98.955H96.5H94.021H83.455C82.865 0 82.322 0.212 81.894 0.563C81.831 0.617 81.767 0.671 81.706 0.725C81.294 1.145 81.032 1.712 81.001 2.341C81.004 2.376 81 2.418 81 2.457V6.03V8.491V10.953V13.418V15.88V18.341V22.037V24.5V29.534C81 29.986 81.119 30.402 81.33 30.765C81.762 31.499 82.549 31.994 83.453 31.994H105.547C105.633 31.994 105.713 31.99 105.793 31.976C107.033 31.849 108.002 30.798 108.002 29.532V2.461C108.004 1.104 106.902 0 105.549 0ZM83.455 24.5V22.038V18.346V15.884V13.423V10.961V8.496V6.038V2.461H96.5H98.955H105.549V29.538H83.455V24.5Z" fill="black"/>
<path d="M96.5 13.535H85.908V15.884V16H91.795H96.5H98.955H103.295V13.535H98.955H96.5Z" fill="black"/>
<path d="M98.385 20.919V18.462H96.5H85.908V20.919H96.5H98.385Z" fill="black"/>
<path d="M85.908 23.381V24.5V25.843H100.844V23.381H98.555H85.908Z" fill="black"/>
<path d="M87.139 9.84601H96.508H98.955H101.84C102.518 9.84601 103.07 9.29002 103.07 8.61102V7.38402C103.07 6.70902 102.523 6.15302 101.84 6.15302H98.955H96.5H94.246H87.139C86.467 6.15302 85.912 6.70902 85.912 7.38402V8.49502V8.61102C85.908 9.29102 86.463 9.84601 87.139 9.84601Z" fill="black"/>
<path d="M132.551 0H125.955H123.5H121.021H110.455C109.867 0 109.322 0.212 108.896 0.563C108.833 0.617 108.769 0.671 108.708 0.725C108.296 1.145 108.034 1.712 108.003 2.341C108.003 2.376 107.999 2.418 107.999 2.457V6.03V8.491V10.953V13.418V15.88V18.341V22.037V24.5V29.534C107.999 29.986 108.12 30.402 108.331 30.765C108.762 31.498 109.548 31.994 110.452 31.994H132.546C132.632 31.994 132.712 31.99 132.792 31.976C134.032 31.849 135.001 30.799 135.001 29.532V2.461C135.004 1.104 133.902 0 132.551 0ZM110.455 24.5V22.038V18.346V15.884V13.423V10.961V8.496V6.038V2.461H123.5H125.955H132.551V29.538H110.455V24.5Z" fill="black"/>
<path d="M123.5 13.535H112.91V15.884V16H118.795H123.5H125.955H130.295V13.535H125.955H123.5Z" fill="black"/>
<path d="M125.387 20.919V18.462H123.5H112.91V20.919H123.5H125.387Z" fill="black"/>
<path d="M112.91 23.381V24.5V25.843H127.846V23.381H125.555H112.91Z" fill="black"/>
<path d="M114.141 9.84601H123.508H125.955H128.842C129.52 9.84601 130.071 9.29002 130.071 8.61102V7.38402C130.071 6.70902 129.526 6.15302 128.842 6.15302H125.955H123.5H121.248H114.141C113.467 6.15302 112.914 6.70902 112.914 7.38402V8.49502V8.61102C112.91 9.29102 113.463 9.84601 114.141 9.84601Z" fill="black"/>
</svg>
