<svg width="80" height="16" viewBox="0 0 80 16" fill="none" xmlns="http://www.w3.org/2000/svg">
<g clip-path="url(#clip0_16_85)">
<path d="M7.94818 7.15L10.6316 4.62H8.44825L4.85571 8.007L8.43225 11.379H10.6186L7.94818 8.863H14.0021V7.15H7.94818Z" fill="#1B1F22"/>
<path d="M3.67049 4.849C3.67049 4.725 3.57048 4.626 3.44646 4.626H2.22228C2.09926 4.625 2.00024 4.725 2.00024 4.849V11.152C2.00024 11.271 2.10426 11.376 2.22928 11.376H3.45046C3.57348 11.376 3.6745 11.272 3.6745 11.152L3.67049 4.849Z" fill="#1B1F22"/>
<path d="M23.9506 7.15L26.634 4.62H24.4507L20.8582 8.007L24.4347 11.379H26.621L23.9506 8.863H30.0045V7.15H23.9506Z" fill="#1B1F22"/>
<path d="M19.673 4.849C19.673 4.725 19.574 4.626 19.4489 4.626H18.2248C18.1017 4.626 17.9957 4.726 17.9957 4.849V11.152C17.9957 11.271 18.0997 11.376 18.2248 11.376H19.4499C19.574 11.376 19.676 11.272 19.676 11.152V4.849H19.673Z" fill="#1B1F22"/>
<path d="M39.9529 7.15L42.6353 4.62H40.453L36.8605 8.007L40.437 11.379H42.6223L39.9529 8.863H46.0068V7.15H39.9529Z" fill="#878586"/>
<path d="M35.6753 4.849C35.6753 4.725 35.5763 4.626 35.4513 4.626H34.2271C34.1041 4.626 33.998 4.726 33.998 4.849V11.152C33.998 11.271 34.1021 11.376 34.2271 11.376H35.4523C35.5763 11.376 35.6783 11.272 35.6783 11.152V4.849H35.6753Z" fill="#878586"/>
<path d="M55.9545 7.15L58.6379 4.62H56.4556L52.864 8.007L56.4395 11.379H58.6249L55.9545 8.863H62.0094V7.15H55.9545Z" fill="#1B1F22"/>
<path d="M51.6788 4.849C51.6788 4.725 51.5788 4.626 51.4528 4.626H50.2296C50.1076 4.625 50.0076 4.725 50.0076 4.849V11.152C50.0076 11.271 50.1116 11.376 50.2366 11.376H51.4628C51.5858 11.376 51.6918 11.272 51.6918 11.152V4.849H51.6788Z" fill="#1B1F22"/>
<path d="M71.9467 7.15L74.6311 4.62H72.4458L68.8542 8.007L72.4318 11.379H74.6141L71.9467 8.863H77.9996V7.15H71.9467Z" fill="#1B1F22"/>
<path d="M67.6661 4.849C67.6661 4.725 67.5681 4.626 67.443 4.626H66.2199C66.0958 4.626 65.9968 4.726 65.9968 4.849V11.152C65.9968 11.271 66.0958 11.376 66.2199 11.376H67.449C67.5711 11.376 67.6731 11.272 67.6731 11.152V4.849H67.6661Z" fill="#1B1F22"/>
</g>
<defs>
<clipPath id="clip0_16_85">
<rect width="80" height="16" fill="white"/>
</clipPath>
</defs>
</svg>
