<svg width="80" height="16" viewBox="0 0 80 16" fill="none" xmlns="http://www.w3.org/2000/svg">
<g clip-path="url(#clip0_19_254)">
<path d="M12.7659 3.87701L11.8678 3.26701C11.6198 3.10001 11.2797 3.16501 11.1117 3.41101L6.71503 9.89501L4.69372 7.87401C4.48269 7.66401 4.13764 7.66401 3.92261 7.87401L3.15949 8.64301C2.94846 8.85401 2.94846 9.20601 3.15949 9.41401L6.26596 12.518C6.43999 12.692 6.70603 12.831 6.95406 12.831C7.2001 12.831 7.44814 12.676 7.60716 12.439L12.903 4.62801C13.076 4.38401 13.012 4.04501 12.7659 3.87701Z" fill="white"/>
<path d="M28.7683 3.87701L27.8702 3.26701C27.6222 3.10001 27.2821 3.16501 27.1141 3.41101L22.7174 9.89401L20.6961 7.87301C20.4851 7.66301 20.139 7.66301 19.925 7.87301L19.1589 8.64301C18.9469 8.85401 18.9469 9.20601 19.1589 9.41401L22.2654 12.518C22.4394 12.692 22.7044 12.831 22.9535 12.831C23.1995 12.831 23.4475 12.676 23.6056 12.439L28.9044 4.63001C29.0784 4.38401 29.0144 4.04501 28.7683 3.87701Z" fill="white"/>
<path d="M44.7707 3.87701L43.8725 3.26701C43.6245 3.10001 43.2844 3.16501 43.1164 3.41101L38.7198 9.89401L36.6985 7.87301C36.4874 7.66301 36.1414 7.66301 35.9273 7.87301L35.1612 8.64301C34.9492 8.85401 34.9492 9.20601 35.1612 9.41401L38.2677 12.518C38.4417 12.692 38.7068 12.831 38.9558 12.831C39.2018 12.831 39.4499 12.676 39.6079 12.439L44.9067 4.63001C45.0807 4.38401 45.0167 4.04501 44.7707 3.87701Z" fill="black" fill-opacity="0.25"/>
<path d="M60.7731 3.87701L59.875 3.26701C59.6269 3.10001 59.2869 3.16501 59.1189 3.41101L54.7222 9.89401L52.7009 7.87301C52.4899 7.66301 52.1438 7.66301 51.9298 7.87301L51.1637 8.64301C50.9516 8.85401 50.9516 9.20601 51.1637 9.41401L54.2701 12.518C54.4442 12.692 54.7092 12.831 54.9582 12.831C55.2043 12.831 55.4523 12.676 55.6103 12.439L60.9091 4.63001C61.0832 4.38401 61.0191 4.04501 60.7731 3.87701Z" fill="white"/>
<path d="M76.7635 3.87701L75.8674 3.26701C75.6194 3.10001 75.2793 3.16501 75.1113 3.41101L70.7146 9.89401L68.6933 7.87301C68.4823 7.66301 68.1302 7.66301 67.9222 7.87301L67.1561 8.64301C66.9441 8.85401 66.9441 9.20601 67.1561 9.41401L70.2606 12.518C70.4346 12.692 70.7066 12.831 70.9537 12.831C71.1997 12.831 71.4477 12.676 71.6058 12.439L76.9025 4.62801C77.0746 4.38401 77.0096 4.04501 76.7635 3.87701Z" fill="white"/>
</g>
<defs>
<clipPath id="clip0_19_254">
<rect width="80" height="16" fill="white"/>
</clipPath>
</defs>
</svg>
