<svg width="80" height="16" viewBox="0 0 80 16" fill="none" xmlns="http://www.w3.org/2000/svg">
<g clip-path="url(#clip0_19_285)">
<path d="M5.7339 6.629C5.7339 6.128 5.82891 5.657 6.01894 5.217C6.20697 4.777 6.46101 4.393 6.79106 4.063C7.12111 3.734 7.51316 3.474 7.94923 3.285C8.3993 3.095 8.87237 3 9.37644 3C9.70849 3 10.0265 3.043 10.3366 3.13C10.6496 3.217 10.9407 3.339 11.2037 3.497C11.4748 3.654 11.7178 3.844 11.9368 4.064C12.1579 4.284 12.3369 4.529 12.4999 4.797C12.6579 5.067 12.781 5.355 12.868 5.664C12.955 5.973 13.002 6.294 13.002 6.629C13.002 6.964 12.959 7.285 12.873 7.594C12.786 7.902 12.6629 8.192 12.5049 8.46C12.3559 8.729 12.1559 8.975 11.9418 9.195C11.7128 9.418 11.4768 9.607 11.2077 9.765C10.9367 9.917 10.6486 10.038 10.3436 10.125C10.0385 10.212 9.7145 10.263 9.37945 10.263C9.0694 10.263 8.77535 10.226 8.48731 10.152C8.19927 10.079 7.92723 9.975 7.67219 9.84L4.62773 12.736C4.54872 12.822 4.44871 12.882 4.32869 12.931C4.20767 12.977 4.08465 13 3.96063 13C3.83261 13 3.70959 12.975 3.59058 12.924C3.47756 12.872 3.36554 12.799 3.27753 12.701C3.18652 12.607 3.11951 12.502 3.0735 12.385C3.02349 12.27 3.00049 12.15 3.00049 12.027C3.00049 11.9 3.02449 11.771 3.0745 11.642C3.12351 11.513 3.19452 11.41 3.28853 11.329L6.25898 8.508C6.08995 8.234 5.95993 7.938 5.86992 7.622C5.7789 7.306 5.7339 6.975 5.7339 6.629ZM6.83506 6.629C6.83506 6.979 6.90207 7.308 7.03609 7.616C7.16911 7.924 7.35114 8.194 7.58117 8.424C7.81021 8.653 8.08025 8.834 8.3943 8.968C8.70234 9.104 9.03239 9.168 9.37444 9.168C9.7285 9.168 10.0625 9.104 10.3626 8.968C10.6716 8.834 10.9407 8.653 11.1697 8.424C11.3987 8.194 11.5818 7.925 11.7158 7.616C11.8578 7.307 11.9158 6.978 11.9158 6.629C11.9158 6.279 11.8528 5.949 11.7158 5.638C11.5818 5.327 11.4027 5.058 11.1697 4.828C10.9407 4.598 10.6716 4.417 10.3626 4.283C10.0535 4.149 9.7255 4.083 9.37444 4.083C9.02439 4.083 8.69434 4.15 8.3943 4.284C8.08025 4.418 7.81221 4.599 7.58117 4.829C7.35214 5.058 7.16911 5.329 7.03709 5.639C6.90307 5.948 6.83506 6.279 6.83506 6.629Z" fill="#1B1F22"/>
<path d="M21.7352 6.629C21.7352 6.128 21.8312 5.657 22.0203 5.217C22.2083 4.777 22.4623 4.393 22.7924 4.063C23.1214 3.734 23.5145 3.474 23.9495 3.285C24.4006 3.095 24.8737 3 25.3778 3C25.7098 3 26.0279 3.043 26.3379 3.13C26.651 3.217 26.942 3.339 27.205 3.497C27.4761 3.654 27.7191 3.844 27.9381 4.064C28.1592 4.284 28.3382 4.529 28.5012 4.797C28.6593 5.067 28.7823 5.355 28.8693 5.664C28.9563 5.973 29.0043 6.294 29.0043 6.629C29.0043 6.964 28.9613 7.285 28.8753 7.594C28.7883 7.902 28.6653 8.192 28.5072 8.46C28.3582 8.729 28.1582 8.975 27.9441 9.195C27.7151 9.418 27.4791 9.607 27.21 9.765C26.939 9.917 26.651 10.038 26.3459 10.125C26.0409 10.212 25.7178 10.263 25.3828 10.263C25.0727 10.263 24.7787 10.226 24.4906 10.152C24.2036 10.079 23.9275 9.974 23.6765 9.839L20.6331 12.735C20.554 12.821 20.453 12.885 20.334 12.93C20.21 12.977 20.087 13 19.963 13C19.8349 13 19.7119 12.975 19.5929 12.924C19.4819 12.872 19.3679 12.799 19.2798 12.701C19.1878 12.607 19.1218 12.502 19.0748 12.385C19.0258 12.27 19.0028 12.15 19.0028 12.027C19.0028 11.9 19.0258 11.771 19.0768 11.642C19.1258 11.513 19.1958 11.409 19.2909 11.329L22.2613 8.508C22.0923 8.234 21.9623 7.938 21.8722 7.622C21.7802 7.306 21.7352 6.975 21.7352 6.629ZM22.8374 6.629C22.8374 6.979 22.9034 7.308 23.0384 7.616C23.1714 7.924 23.3525 8.194 23.5835 8.424C23.8125 8.653 24.0826 8.834 24.3966 8.968C24.7057 9.104 25.0357 9.168 25.3768 9.168C25.7308 9.168 26.0649 9.104 26.3649 8.968C26.674 8.834 26.943 8.653 27.172 8.424C27.4011 8.194 27.5841 7.925 27.7181 7.616C27.8601 7.307 27.9181 6.978 27.9181 6.629C27.9181 6.279 27.8551 5.949 27.7181 5.638C27.5841 5.327 27.4051 5.058 27.172 4.828C26.943 4.598 26.674 4.417 26.3649 4.283C26.0559 4.149 25.7278 4.083 25.3768 4.083C25.0267 4.083 24.6967 4.15 24.3966 4.284C24.0836 4.418 23.8185 4.599 23.5835 4.829C23.3545 5.058 23.1714 5.329 23.0394 5.639C22.9054 5.948 22.8374 6.279 22.8374 6.629Z" fill="#1B1F22"/>
<path d="M37.7327 6.629C37.7327 6.128 37.8287 5.657 38.0177 5.217C38.2058 4.777 38.4598 4.393 38.7898 4.063C39.1189 3.734 39.5039 3.474 39.947 3.285C40.3961 3.095 40.8692 3 41.3732 3C41.7053 3 42.0233 3.043 42.3334 3.13C42.6464 3.217 42.9305 3.339 43.2005 3.497C43.4715 3.654 43.7146 3.844 43.9336 4.064C44.1546 4.284 44.3337 4.529 44.4967 4.797C44.6547 5.067 44.7777 5.355 44.8647 5.664C44.9518 5.973 44.9948 6.294 44.9948 6.629C44.9948 6.964 44.9518 7.285 44.8657 7.594C44.7787 7.902 44.6557 8.192 44.4977 8.46C44.3407 8.729 44.1486 8.975 43.9346 9.195C43.7056 9.418 43.4615 9.607 43.2005 9.765C42.9295 9.917 42.6414 10.038 42.3364 10.125C42.0313 10.212 41.7083 10.263 41.3732 10.263C41.0632 10.263 40.7691 10.226 40.4811 10.152C40.194 10.079 39.918 9.974 39.667 9.839L36.6245 12.735C36.5455 12.821 36.4445 12.885 36.3255 12.93C36.2055 12.977 36.0824 13 35.9584 13C35.8304 13 35.7074 12.975 35.5884 12.924C35.4693 12.872 35.3633 12.799 35.2753 12.701C35.1753 12.607 35.1173 12.502 35.0703 12.385C35.0273 12.27 35.0043 12.151 35.0043 12.028C35.0043 11.901 35.0273 11.772 35.0783 11.643C35.1273 11.514 35.1973 11.414 35.2923 11.33L38.2628 8.509C38.0937 8.235 37.9637 7.939 37.8737 7.623C37.7767 7.306 37.7327 6.975 37.7327 6.629ZM38.8338 6.629C38.8338 6.979 38.8999 7.308 39.0349 7.616C39.1679 7.924 39.3479 8.194 39.58 8.424C39.809 8.653 40.079 8.834 40.3871 8.968C40.7001 9.104 41.0332 9.168 41.3752 9.168C41.7293 9.168 42.0553 9.104 42.3634 8.968C42.6724 8.834 42.9415 8.653 43.1705 8.424C43.3995 8.194 43.5826 7.925 43.7166 7.616C43.8576 7.307 43.9166 6.978 43.9166 6.629C43.9166 6.279 43.8536 5.949 43.7166 5.638C43.5826 5.327 43.4035 5.058 43.1705 4.828C42.9415 4.598 42.6724 4.417 42.3634 4.283C42.0503 4.149 41.7263 4.083 41.3752 4.083C41.0252 4.083 40.6951 4.15 40.3871 4.284C40.079 4.418 39.817 4.599 39.58 4.829C39.3509 5.058 39.1679 5.329 39.0359 5.639C38.9019 5.948 38.8338 6.279 38.8338 6.629Z" fill="#878586"/>
<path d="M53.7291 6.629C53.7291 6.128 53.8251 5.657 54.0062 5.217C54.1962 4.777 54.4562 4.393 54.7863 4.063C55.1153 3.734 55.5004 3.474 55.9435 3.285C56.3925 3.095 56.8656 3 57.3697 3C57.7017 3 58.0198 3.043 58.3298 3.13C58.6399 3.217 58.9269 3.339 59.1969 3.497C59.468 3.654 59.711 3.844 59.926 4.064C60.1551 4.284 60.3341 4.529 60.4921 4.797C60.6502 5.067 60.7732 5.355 60.8602 5.664C60.9472 5.973 60.9902 6.294 60.9902 6.629C60.9902 6.964 60.9472 7.285 60.8612 7.594C60.7742 7.902 60.6512 8.192 60.4931 8.46C60.3361 8.729 60.1441 8.975 59.928 9.195C59.706 9.418 59.463 9.607 59.1989 9.765C58.9279 9.917 58.6359 10.038 58.3348 10.125C58.0298 10.212 57.7067 10.263 57.3717 10.263C57.0616 10.263 56.7676 10.226 56.4795 10.152C56.1925 10.079 55.9164 9.974 55.6654 9.839L52.622 12.735C52.5429 12.821 52.4419 12.885 52.3229 12.93C52.2029 12.977 52.0799 13 51.9559 13C51.8278 13 51.7048 12.975 51.5858 12.924C51.4668 12.872 51.3608 12.799 51.2727 12.701C51.1737 12.607 51.1157 12.502 51.0687 12.385C51.0247 12.27 51.0017 12.151 51.0017 12.028C51.0017 11.901 51.0247 11.772 51.0757 11.643C51.1247 11.514 51.1947 11.414 51.2898 11.33L54.2602 8.509C54.0912 8.235 53.9612 7.939 53.8711 7.623C53.7741 7.306 53.7291 6.975 53.7291 6.629ZM54.8303 6.629C54.8303 6.979 54.8963 7.308 55.0313 7.616C55.1643 7.924 55.3444 8.194 55.5764 8.424C55.8054 8.653 56.0755 8.834 56.3835 8.968C56.6966 9.104 57.0296 9.168 57.3717 9.168C57.7237 9.168 58.0518 9.104 58.3598 8.968C58.6689 8.834 58.9379 8.653 59.1669 8.424C59.396 8.194 59.579 7.925 59.713 7.616C59.847 7.307 59.913 6.978 59.913 6.629C59.913 6.279 59.847 5.949 59.713 5.638C59.579 5.327 59.4 5.058 59.1669 4.828C58.9379 4.598 58.6689 4.417 58.3598 4.283C58.0468 4.149 57.7147 4.083 57.3717 4.083C57.0286 4.083 56.6916 4.15 56.3835 4.284C56.0755 4.418 55.8054 4.599 55.5764 4.829C55.3474 5.058 55.1643 5.329 55.0323 5.639C54.8993 5.948 54.8303 6.279 54.8303 6.629Z" fill="#1B1F22"/>
<path d="M69.7314 6.629C69.7314 6.128 69.8274 5.657 70.0085 5.217C70.1985 4.777 70.4585 4.393 70.7886 4.063C71.1176 3.734 71.5027 3.474 71.9458 3.285C72.3948 3.095 72.8679 3 73.372 3C73.704 3 74.0221 3.043 74.3321 3.13C74.6422 3.217 74.9292 3.339 75.1993 3.497C75.4703 3.654 75.7133 3.844 75.9284 4.064C76.1574 4.284 76.3364 4.529 76.4944 4.797C76.6525 5.067 76.7755 5.355 76.8625 5.664C76.9495 5.973 76.9925 6.294 76.9925 6.629C76.9925 6.964 76.9495 7.285 76.8635 7.594C76.7765 7.902 76.6535 8.192 76.4954 8.46C76.3384 8.729 76.1424 8.975 75.9304 9.195C75.7083 9.418 75.4653 9.607 75.2013 9.765C74.9302 9.917 74.6382 10.038 74.3371 10.125C74.0321 10.212 73.709 10.263 73.374 10.263C73.0639 10.263 72.7699 10.226 72.4818 10.152C72.1948 10.079 71.9188 9.974 71.6677 9.839L68.6243 12.735C68.5453 12.821 68.4442 12.885 68.3252 12.93C68.2052 12.977 68.0822 13 67.9582 13C67.8301 13 67.7071 12.975 67.5881 12.924C67.4691 12.872 67.3631 12.799 67.2751 12.701C67.1761 12.607 67.118 12.502 67.071 12.385C67.027 12.27 67.004 12.151 67.004 12.028C67.004 11.901 67.027 11.772 67.078 11.643C67.127 11.514 67.1971 11.414 67.2921 11.33L70.2625 8.509C70.0935 8.235 69.9635 7.939 69.8735 7.623C69.7764 7.306 69.7314 6.975 69.7314 6.629ZM70.8326 6.629C70.8326 6.979 70.8986 7.308 71.0336 7.616C71.1667 7.924 71.3467 8.194 71.5787 8.424C71.8077 8.653 72.0778 8.834 72.3858 8.968C72.6989 9.104 73.0319 9.168 73.374 9.168C73.726 9.168 74.0541 9.104 74.3621 8.968C74.6712 8.834 74.9402 8.653 75.1692 8.424C75.3983 8.194 75.5813 7.925 75.7153 7.616C75.8494 7.307 75.9154 6.978 75.9154 6.629C75.9154 6.279 75.8494 5.949 75.7153 5.638C75.5813 5.327 75.4023 5.058 75.1692 4.828C74.9402 4.598 74.6712 4.417 74.3621 4.283C74.0491 4.149 73.717 4.083 73.374 4.083C73.0309 4.083 72.6939 4.15 72.3858 4.284C72.0778 4.418 71.8077 4.599 71.5787 4.829C71.3497 5.058 71.1667 5.329 71.0346 5.639C70.9016 5.948 70.8326 6.279 70.8326 6.629Z" fill="#1B1F22"/>
</g>
<defs>
<clipPath id="clip0_19_285">
<rect width="80" height="16" fill="white"/>
</clipPath>
</defs>
</svg>
